<svg width="40" height="40" viewBox="0 0 40 40" fill="none" xmlns="http://www.w3.org/2000/svg">
  <path d="M14.1762 17.8573C14.1762 16.3231 15.4348 15.0795 16.9874 15.0795C18.54 15.0795 19.7986 16.3231 19.7986 17.8573C19.7986 19.3914 18.54 20.6351 16.9874 20.6351C15.4348 20.6351 14.1762 19.3914 14.1762 17.8573Z" fill="#385DD6" />
  <path fill-rule="evenodd" clip-rule="evenodd" d="M3.33331 17.8571C3.33331 13.3675 3.33331 11.1227 4.74482 9.72799C6.15633 8.33325 8.42812 8.33325 12.9717 8.33325H21.0037C25.5473 8.33325 27.8191 8.33325 29.2306 9.72799C30.6421 11.1227 30.6421 13.3675 30.6421 17.8571C30.6421 22.3467 30.6421 24.5915 29.2306 25.9863C27.8191 27.381 25.5473 27.381 21.0037 27.381H12.9717C8.42812 27.381 6.15633 27.381 4.74482 25.9863C3.33331 24.5915 3.33331 22.3467 3.33331 17.8571ZM11.7666 17.8573C11.7666 15.0081 14.104 12.6985 16.9874 12.6985C19.8708 12.6985 22.2082 15.0081 22.2082 17.8573C22.2082 20.7064 19.8708 23.016 16.9874 23.016C14.104 23.016 11.7666 20.7064 11.7666 17.8573ZM6.94741 21.0319C6.94741 21.6894 7.48682 22.2224 8.15221 22.2224C8.8176 22.2224 9.357 21.6894 9.357 21.0319L9.357 14.6826C9.357 14.0251 8.8176 13.4921 8.15221 13.4921C7.48681 13.4921 6.94741 14.0251 6.94741 14.6826L6.94741 21.0319ZM25.8226 22.2224C25.1572 22.2224 24.6178 21.6894 24.6178 21.0319V14.6826C24.6178 14.0251 25.1572 13.4921 25.8226 13.4921C26.488 13.4921 27.0274 14.0251 27.0274 14.6826V21.0319C27.0274 21.6894 26.488 22.2224 25.8226 22.2224Z" fill="#385DD6" />
  <path opacity="0.5" d="M6.77545 27.0418C6.79718 27.2934 6.82328 27.5343 6.85464 27.7648C7.04904 29.1935 7.46492 30.3965 8.43184 31.3519C8.5695 31.488 8.71223 31.6129 8.85998 31.7278C9.80227 32.5844 10.9696 32.9644 12.3432 33.1469C13.7359 33.3319 15.5067 33.3319 17.7035 33.3319H25.9118C28.1087 33.3319 29.8795 33.3319 31.2722 33.1469C32.7181 32.9548 33.9356 32.5439 34.9025 31.5884C35.8694 30.633 36.2853 29.43 36.4797 28.0013C36.6669 26.6251 36.6669 24.8754 36.6669 22.7046V22.5304C36.6669 20.3596 36.6669 18.6098 36.4797 17.2337C36.2853 15.8049 35.8694 14.602 34.9025 13.6465C34.7648 13.5105 34.6221 13.3855 34.4744 13.2706C33.5321 12.414 32.3647 12.034 30.9911 11.8516C30.7731 11.8226 30.5459 11.7982 30.3092 11.7776C30.6421 13.1666 30.6421 15.0835 30.6421 17.8572C30.6421 22.3468 30.6421 24.5916 29.2306 25.9863C27.819 27.3811 25.5473 27.3811 21.0037 27.3811H12.9717C10.1355 27.3811 8.18455 27.3811 6.77545 27.0418Z" fill="#385DD6" />
</svg>