<svg width="40" height="40" viewBox="0 0 40 40" fill="none" xmlns="http://www.w3.org/2000/svg">
  <g opacity="0.5">
    <path fill-rule="evenodd" clip-rule="evenodd" d="M23.3333 36.6666H16.6667C10.3813 36.6666 7.23859 36.6666 5.28596 34.714C3.33334 32.7613 3.33334 29.6186 3.33334 23.3333V16.6666C3.33334 10.3812 3.33334 7.23849 5.28596 5.28587C7.23859 3.33325 10.3978 3.33325 16.7163 3.33325C17.7263 3.33325 18.5357 3.33325 19.2167 3.36102C19.1943 3.49424 19.1825 3.63013 19.1821 3.76753L19.1667 8.49153C19.1665 10.32 19.1664 11.936 19.3415 13.2385C19.5313 14.6504 19.9672 16.062 21.1193 17.2141C22.2714 18.3663 23.6831 18.8021 25.0949 18.9919C26.3975 19.167 28.0134 19.1669 29.8419 19.1668L30 19.1668H36.5957C36.6667 20.0572 36.6667 21.1501 36.6667 22.6047V23.3333C36.6667 29.6186 36.6667 32.7613 34.7141 34.714C32.7614 36.6666 29.6187 36.6666 23.3333 36.6666Z" fill="#385DD6" />
  </g>
  <path d="M10 22.9167C9.30964 22.9167 8.75 23.4764 8.75 24.1667C8.75 24.8571 9.30964 25.4167 10 25.4167H23.3333C24.0237 25.4167 24.5833 24.8571 24.5833 24.1667C24.5833 23.4764 24.0237 22.9167 23.3333 22.9167H10Z" fill="#385DD6" />
  <path d="M10 28.7501C9.30964 28.7501 8.75 29.3097 8.75 30.0001C8.75 30.6904 9.30964 31.2501 10 31.2501H19.1667C19.857 31.2501 20.4167 30.6904 20.4167 30.0001C20.4167 29.3097 19.857 28.7501 19.1667 28.7501H10Z" fill="#385DD6" />
  <path d="M19.1821 3.76675L19.1667 8.49075C19.1665 10.3193 19.1664 11.9352 19.3415 13.2377C19.5313 14.6496 19.9672 16.0612 21.1193 17.2134C22.2714 18.3655 23.6831 18.8013 25.0949 18.9911C26.3974 19.1663 28.0134 19.1661 29.8419 19.166L36.5957 19.166C36.6164 19.4252 36.631 19.7016 36.6414 19.9991H36.6667C36.6667 19.5533 36.6667 19.3304 36.6501 19.068C36.5559 17.577 35.9361 15.8687 35.0525 14.6641C34.8969 14.4521 34.7906 14.3248 34.5779 14.0702C33.2569 12.4892 31.5184 10.5198 30 9.1658C28.6486 7.96067 26.7977 6.64219 25.1836 5.56408C23.7967 4.63783 23.1033 4.1747 22.1526 3.83049C21.9005 3.73923 21.568 3.63843 21.3077 3.57435C20.6677 3.41681 20.0447 3.36201 19.1667 3.34302L19.1821 3.76675Z" fill="#385DD6" />
</svg>