<svg width="40" height="40" viewBox="0 0 40 40" fill="none" xmlns="http://www.w3.org/2000/svg">
  <path d="M8.15266 16.0239C8.15266 15.3532 8.69208 14.8096 9.35748 14.8096H15.7832C16.4486 14.8096 16.988 15.3532 16.988 16.0239C16.988 16.6945 16.4486 17.2381 15.7832 17.2381H9.35748C8.69208 17.2381 8.15266 16.6945 8.15266 16.0239Z" fill="#385DD6" />
  <path fill-rule="evenodd" clip-rule="evenodd" d="M35.314 16.673C35.2103 16.6667 35.0973 16.6667 34.9802 16.6668L34.951 16.6668H30.3582C26.5726 16.6668 23.3333 19.5602 23.3333 23.3334C23.3333 27.1066 26.5726 30.0001 30.3582 30.0001H34.951L34.9802 30.0001C35.0973 30.0001 35.2103 30.0002 35.314 29.9938C36.8517 29.8995 38.2116 28.7311 38.326 27.0991C38.3334 26.9921 38.3334 26.8767 38.3333 26.7698L38.3333 26.7408V19.926L38.3333 19.897C38.3334 19.7901 38.3334 19.6747 38.326 19.5677C38.2116 17.9357 36.8517 16.7673 35.314 16.673ZM29.951 25.1112C30.9256 25.1112 31.7157 24.3152 31.7157 23.3334C31.7157 22.3516 30.9256 21.5556 29.951 21.5556C28.9763 21.5556 28.1863 22.3516 28.1863 23.3334C28.1863 24.3152 28.9763 25.1112 29.951 25.1112Z" fill="#385DD6" />
  <path opacity="0.5" d="M35.2323 16.6691C35.2323 14.7014 35.1608 12.5907 33.9029 11.0775C33.7815 10.9315 33.6522 10.7896 33.5146 10.652C32.2673 9.40472 30.6857 8.85119 28.7317 8.58848C26.833 8.33321 24.407 8.33323 21.3441 8.33325H17.8226C14.7597 8.33323 12.3336 8.33321 10.435 8.58848C8.48092 8.85119 6.89934 9.40472 5.65207 10.652C4.4048 11.8993 3.85127 13.4808 3.58855 15.4349C3.33328 17.3336 3.3333 19.7596 3.33333 22.8225V23.0106C3.3333 26.0735 3.33328 28.4996 3.58855 30.3983C3.85127 32.3523 4.4048 33.9339 5.65207 35.1812C6.89934 36.4285 8.48092 36.982 10.435 37.2447C12.3336 37.5 14.7597 37.4999 17.8226 37.4999H21.344C24.4069 37.4999 26.833 37.5 28.7317 37.2447C30.6857 36.982 32.2673 36.4285 33.5146 35.1812C33.8554 34.8403 34.1449 34.4739 34.391 34.0809C35.1418 32.8818 35.2323 31.4121 35.2323 29.9974C35.152 30 35.0673 29.9999 34.9803 29.9999L30.3582 29.9999C26.5726 29.9999 23.3333 27.1065 23.3333 23.3333C23.3333 19.56 26.5726 16.6666 30.3582 16.6666L34.9802 16.6666C35.0672 16.6666 35.152 16.6665 35.2323 16.6691Z" fill="#385DD6" />
  <path d="M16.8358 4.28677L13.3333 6.65414L10.4445 8.58719C12.3418 8.33321 14.7649 8.33323 17.8226 8.33325H21.3441C24.407 8.33323 26.833 8.33321 28.7317 8.58848C29.1136 8.63983 29.4813 8.70228 29.8351 8.77886L26.6667 6.66659L23.1458 4.28677C21.2649 3.01541 18.7167 3.01541 16.8358 4.28677Z" fill="#385DD6" />
</svg>