<svg width="40" height="40" viewBox="0 0 40 40" fill="none" xmlns="http://www.w3.org/2000/svg">
  <path d="M30.8057 27.9456C29.7451 28.1991 28.6382 28.3333 27.5 28.3333C19.676 28.3333 13.3333 21.9907 13.3333 14.1667C13.3333 13.3609 13.4006 12.5708 13.5298 11.8018C13.4695 11.8598 13.4072 11.9132 13.3416 11.963C12.8739 12.3181 12.2914 12.4498 11.1265 12.7134L10.0659 12.9534C5.96643 13.8809 3.9167 14.3447 3.42904 15.9129C2.94138 17.4811 4.33875 19.1151 7.1335 22.3832L7.85653 23.2287C8.65071 24.1574 9.0478 24.6217 9.22644 25.1962C9.40508 25.7707 9.34505 26.3902 9.22498 27.6293L9.11566 28.7573C8.69313 33.1177 8.48187 35.2978 9.75858 36.267C11.0353 37.2362 12.9545 36.3526 16.7928 34.5853L17.7858 34.1281C18.8765 33.6259 19.4219 33.3748 20 33.3748C20.5781 33.3748 21.1235 33.6259 22.2142 34.1281L23.2072 34.5853C27.0455 36.3526 28.9647 37.2362 30.2414 36.267C31.5181 35.2978 31.3069 33.1177 30.8843 28.7573L30.8057 27.9456Z" fill="#385DD6" />
  <path opacity="0.5" d="M15.2553 9.01388L14.7091 9.99364C14.1092 11.0698 13.8093 11.6079 13.3416 11.9629C13.4072 11.9131 13.4695 11.8597 13.5298 11.8017C13.4006 12.5707 13.3333 13.3608 13.3333 14.1666C13.3333 21.9906 19.676 28.3333 27.5 28.3333C28.6382 28.3333 29.7451 28.199 30.8057 27.9455L30.775 27.6292C30.655 26.3901 30.5949 25.7706 30.7736 25.1961C30.9522 24.6217 31.3493 24.1573 32.1435 23.2286L32.8665 22.3831C35.6612 19.115 37.0586 17.481 36.571 15.9128C36.0833 14.3446 34.0336 13.8808 29.9341 12.9533L28.8735 12.7133C27.7086 12.4498 27.1261 12.318 26.6584 11.9629C26.1907 11.6079 25.8908 11.0698 25.2909 9.99365L24.7447 9.01388C22.6336 5.22679 21.5781 3.33325 20 3.33325C18.4219 3.33325 17.3664 5.2268 15.2553 9.01388Z" fill="#385DD6" />
</svg>