<svg width="40" height="40" viewBox="0 0 40 40" fill="none" xmlns="http://www.w3.org/2000/svg">
  <path opacity="0.5" fill-rule="evenodd" clip-rule="evenodd" d="M23.3333 36.6666H16.6667C10.3813 36.6666 7.23859 36.6666 5.28596 34.714C3.33334 32.7613 3.33334 29.6186 3.33334 23.3333V16.6666C3.33334 10.3812 3.33334 7.23849 5.28596 5.28587C7.23859 3.33325 10.3978 3.33325 16.7163 3.33325C17.7263 3.33325 18.5357 3.33325 19.2167 3.36102C19.1943 3.49424 19.1825 3.63013 19.1821 3.76753L19.1667 8.49153C19.1665 10.32 19.1664 11.936 19.3415 13.2385C19.5313 14.6504 19.9672 16.062 21.1193 17.2141C22.2714 18.3663 23.6831 18.8021 25.0949 18.9919C26.3975 19.167 28.0134 19.1669 29.8419 19.1668L30 19.1668H36.5957C36.6667 20.0572 36.6667 21.1501 36.6667 22.6047V23.3333C36.6667 29.6186 36.6667 32.7613 34.7141 34.714C32.7614 36.6666 29.6187 36.6666 23.3333 36.6666Z" fill="#385DD6" />
  <path d="M14.7568 23.3709L14.9206 23.6649C15.1006 23.9877 15.1906 24.1491 15.3309 24.2557C15.4712 24.3622 15.6459 24.4017 15.9954 24.4808L16.3136 24.5528C17.5434 24.831 18.1583 24.9702 18.3046 25.4406C18.4509 25.9111 18.0317 26.4013 17.1933 27.3817L16.9764 27.6354C16.7381 27.914 16.619 28.0533 16.5654 28.2256C16.5118 28.3979 16.5298 28.5838 16.5659 28.9555L16.5986 29.2939C16.7254 30.602 16.7888 31.2561 16.4058 31.5469C16.0228 31.8376 15.447 31.5725 14.2955 31.0423L13.9976 30.9052C13.6704 30.7545 13.5068 30.6792 13.3333 30.6792C13.1599 30.6792 12.9963 30.7545 12.6691 30.9052L12.3712 31.0423C11.2197 31.5725 10.6439 31.8376 10.2609 31.5469C9.8779 31.2561 9.94128 30.602 10.068 29.2939L10.1008 28.9555C10.1369 28.5838 10.1549 28.3979 10.1013 28.2256C10.0477 28.0533 9.92856 27.914 9.6903 27.6354L9.47339 27.3817C8.63497 26.4013 8.21576 25.9111 8.36205 25.4406C8.50835 24.9702 9.12327 24.831 10.3531 24.5528L10.6713 24.4808C11.0208 24.4017 11.1955 24.3622 11.3358 24.2557C11.4761 24.1491 11.5661 23.9877 11.7461 23.6649L11.9099 23.3709C12.5433 22.2348 12.8599 21.6667 13.3333 21.6667C13.8068 21.6667 14.1234 22.2348 14.7568 23.3709Z" fill="#385DD6" />
  <path d="M19.1821 3.76675L19.1667 8.49075C19.1665 10.3193 19.1664 11.9352 19.3415 13.2377C19.5313 14.6496 19.9672 16.0612 21.1193 17.2134C22.2714 18.3655 23.6831 18.8013 25.0949 18.9911C26.3974 19.1663 28.0134 19.1661 29.8419 19.166L36.5957 19.166C36.6164 19.4252 36.631 19.7016 36.6414 19.9991H36.6667C36.6667 19.5533 36.6667 19.3304 36.6501 19.068C36.5559 17.577 35.9361 15.8687 35.0525 14.6641C34.8969 14.4521 34.7906 14.3248 34.5779 14.0702C33.2569 12.4892 31.5184 10.5198 30 9.1658C28.6486 7.96067 26.7977 6.64219 25.1836 5.56408C23.7967 4.63783 23.1033 4.1747 22.1526 3.83049C21.9005 3.73923 21.568 3.63843 21.3077 3.57435C20.6677 3.41681 20.0447 3.36201 19.1667 3.34302L19.1821 3.76675Z" fill="#385DD6" />
</svg>