<?xml version="1.0"?>
<svg xmlns="http://www.w3.org/2000/svg" xmlns:xlink="http://www.w3.org/1999/xlink" version="1.1" xml:space="preserve">
  <defs>
    <symbol id="email" width="100%" height="100%" viewBox="0 0 56 56" fill="none">
      <path d="M4.66675 28.0002C4.66675 19.2006 4.66675 14.8008 7.40042 12.0672C10.1341 9.3335 14.5339 9.3335 23.3334 9.3335H32.6667C41.4663 9.3335 45.8661 9.3335 48.5997 12.0672C51.3334 14.8008 51.3334 19.2006 51.3334 28.0002C51.3334 36.7997 51.3334 41.1995 48.5997 43.9332C45.8661 46.6668 41.4663 46.6668 32.6667 46.6668H23.3334C14.5339 46.6668 10.1341 46.6668 7.40042 43.9332C4.66675 41.1995 4.66675 36.7997 4.66675 28.0002Z" stroke="currentColor" stroke-width="2" />
      <path d="M14 18.6665L19.0374 22.8644C23.3229 26.4356 25.4657 28.2212 28 28.2212C30.5343 28.2212 32.6771 26.4356 36.9626 22.8644L42 18.6665" stroke="currentColor" stroke-width="2" stroke-linecap="round" />

    </symbol>
    <symbol id="phone" width="100%" height="100%" viewBox="0 0 56 56" fill="none">
      <path d="M31.5001 4.66699C31.5001 4.66699 36.9448 5.16197 43.8745 12.0916C50.8041 19.0213 51.2991 24.466 51.2991 24.466" stroke="currentColor" stroke-width="2" stroke-linecap="round" />
      <path d="M33.1498 12.9165C33.1498 12.9165 35.4597 13.5765 38.9245 17.0413C42.3893 20.5061 43.0493 22.816 43.0493 22.816" stroke="currentColor" stroke-width="2" stroke-linecap="round" />
      <path d="M35.235 35.0635L34.5099 34.3748L35.235 35.0635ZM36.2977 33.9446L37.0228 34.6333L36.2977 33.9446ZM41.9366 33.1621L41.4377 34.0288L41.9366 33.1621ZM46.3944 35.728L45.8956 36.5946L46.3944 35.728ZM47.6506 43.7697L48.3756 44.4584L47.6506 43.7697ZM44.336 47.2593L43.6109 46.5707L44.336 47.2593ZM41.2446 48.9139L41.3429 49.9091L41.2446 48.9139ZM18.2358 38.4421L18.9609 37.7534L18.2358 38.4421ZM7.00674 16.2539L6.00817 16.3074L6.00818 16.3074L7.00674 16.2539ZM22.1142 19.8406L22.8393 20.5293L22.1142 19.8406ZM22.4799 13.2839L23.2964 12.7066L22.4799 13.2839ZM19.5376 9.12244L18.7211 9.69975V9.69975L19.5376 9.12244ZM12.2767 8.42016L13.0018 9.10885L12.2767 8.42016ZM8.61431 12.276L7.88926 11.5873L7.88926 11.5873L8.61431 12.276ZM25.8139 30.4638L26.539 29.7751L25.8139 30.4638ZM35.9601 35.7522L37.0228 34.6333L35.5727 33.256L34.5099 34.3748L35.9601 35.7522ZM41.4377 34.0288L45.8956 36.5946L46.8933 34.8613L42.4354 32.2954L41.4377 34.0288ZM46.9255 43.081L43.6109 46.5707L45.061 47.948L48.3756 44.4584L46.9255 43.081ZM41.1464 47.9187C37.6036 48.2684 28.6266 47.9296 18.9609 37.7534L17.5108 39.1308C27.6634 49.8196 37.2816 50.3099 41.3429 49.9091L41.1464 47.9187ZM18.9609 37.7534C9.78809 28.0962 8.2035 19.8929 8.0053 16.2003L6.00818 16.3074C6.23066 20.4526 7.99525 29.1127 17.5108 39.1308L18.9609 37.7534ZM22.17 21.2339L22.8393 20.5293L21.3892 19.1519L20.7199 19.8565L22.17 21.2339ZM23.2964 12.7066L20.3541 8.54512L18.7211 9.69975L21.6634 13.8612L23.2964 12.7066ZM11.5517 7.73148L7.88926 11.5873L9.33937 12.9647L13.0018 9.10885L11.5517 7.73148ZM21.445 20.5452C20.7199 19.8565 20.719 19.8575 20.7181 19.8585C20.7177 19.8588 20.7168 19.8598 20.7161 19.8605C20.7148 19.8619 20.7135 19.8633 20.7121 19.8648C20.7094 19.8678 20.7065 19.8709 20.7034 19.8743C20.6973 19.881 20.6906 19.8885 20.6834 19.8968C20.669 19.9134 20.6524 19.9332 20.6341 19.9562C20.5976 20.0024 20.5543 20.0617 20.5076 20.1346C20.414 20.2809 20.3076 20.4811 20.2159 20.7389C20.0303 21.2604 19.9163 21.9849 20.0544 22.9273C20.3274 24.7906 21.5749 27.4529 25.0889 31.1525L26.539 29.7751C23.158 26.2155 22.221 23.9185 22.0333 22.6373C21.941 22.0074 22.0276 21.6133 22.1001 21.4094C22.1375 21.3044 22.1746 21.2402 22.1922 21.2126C22.2011 21.1987 22.2053 21.1938 22.2024 21.1974C22.201 21.1992 22.1978 21.2032 22.1925 21.2093C22.1898 21.2123 22.1867 21.2159 22.1829 21.22C22.1811 21.222 22.1791 21.2242 22.1769 21.2265C22.1758 21.2277 22.1747 21.2289 22.1736 21.2301C22.173 21.2307 22.1721 21.2317 22.1718 21.232C22.1709 21.2329 22.17 21.2339 21.445 20.5452ZM25.0889 31.1525C28.5969 34.8457 31.1398 36.1789 32.9498 36.4729C33.8702 36.6223 34.5838 36.4992 35.0995 36.2958C35.3532 36.1958 35.5493 36.0801 35.6915 35.9792C35.7625 35.9289 35.8199 35.8823 35.8644 35.8433C35.8866 35.8238 35.9057 35.8062 35.9216 35.7908C35.9295 35.7832 35.9367 35.7761 35.9431 35.7696C35.9463 35.7664 35.9493 35.7633 35.9522 35.7604C35.9536 35.7589 35.9549 35.7575 35.9563 35.7561C35.9569 35.7555 35.9579 35.7545 35.9582 35.7541C35.9591 35.7531 35.9601 35.7522 35.235 35.0635C34.5099 34.3748 34.5109 34.3738 34.5118 34.3729C34.512 34.3726 34.5129 34.3716 34.5135 34.371C34.5147 34.3698 34.5158 34.3687 34.5169 34.3675C34.5191 34.3653 34.5212 34.3631 34.5232 34.3611C34.5271 34.3572 34.5305 34.3538 34.5335 34.3509C34.5394 34.3452 34.5434 34.3416 34.5455 34.3398C34.5496 34.3362 34.546 34.3397 34.5345 34.3479C34.5116 34.3641 34.4565 34.3995 34.3657 34.4353C34.1922 34.5037 33.8434 34.5918 33.2704 34.4987C32.0937 34.3076 29.926 33.341 26.539 29.7751L25.0889 31.1525ZM20.3541 8.54512C18.2397 5.55457 14.0611 5.08953 11.5517 7.73148L13.0018 9.10885C14.5734 7.45423 17.275 7.65443 18.7211 9.69975L20.3541 8.54512ZM8.0053 16.2003C7.94149 15.0114 8.4639 13.8864 9.33937 12.9647L7.88926 11.5873C6.74117 12.796 5.90755 14.4327 6.00817 16.3074L8.0053 16.2003ZM43.6109 46.5707C42.8776 47.3426 42.0401 47.8305 41.1464 47.9187L41.3429 49.9091C42.8543 49.7599 44.1087 48.9507 45.061 47.948L43.6109 46.5707ZM22.8393 20.5293C24.8359 18.4272 24.9938 15.1073 23.2964 12.7066L21.6634 13.8612C22.8427 15.5292 22.6898 17.7826 21.3892 19.1519L22.8393 20.5293ZM45.8956 36.5946C48.2169 37.9308 48.7015 41.2113 46.9255 43.081L48.3756 44.4584C51.0745 41.617 50.2974 36.8206 46.8933 34.8613L45.8956 36.5946ZM37.0228 34.6333C38.1663 33.4294 39.9486 33.1716 41.4377 34.0288L42.4354 32.2954C40.1652 30.9887 37.3673 31.3665 35.5727 33.256L37.0228 34.6333Z" fill="currentColor" />

    </symbol>
    <symbol id="menu" width="100%" height="100%" viewBox="0 0 28 28" fill="none">
      <path fill-rule="evenodd" clip-rule="evenodd" d="M24.2084 8.1665C24.2084 8.64975 23.8166 9.0415 23.3334 9.0415L4.66671 9.0415C4.18346 9.0415 3.79171 8.64975 3.79171 8.1665C3.79171 7.68325 4.18346 7.2915 4.66671 7.2915L23.3334 7.2915C23.8166 7.2915 24.2084 7.68325 24.2084 8.1665Z" fill="currentColor" />
      <path fill-rule="evenodd" clip-rule="evenodd" d="M24.2084 14C24.2084 14.4832 23.8166 14.875 23.3334 14.875L4.66671 14.875C4.18346 14.875 3.79171 14.4832 3.79171 14C3.79171 13.5168 4.18346 13.125 4.66671 13.125L23.3334 13.125C23.8166 13.125 24.2084 13.5168 24.2084 14Z" fill="currentColor" />
      <path fill-rule="evenodd" clip-rule="evenodd" d="M24.2084 19.8335C24.2084 20.3167 23.8166 20.7085 23.3334 20.7085L4.66671 20.7085C4.18346 20.7085 3.79171 20.3167 3.79171 19.8335C3.79171 19.3502 4.18346 18.9585 4.66671 18.9585L23.3334 18.9585C23.8166 18.9585 24.2084 19.3502 24.2084 19.8335Z" fill="currentColor" />

    </symbol>
    <symbol id="arrow-right" width="100%" height="100%" viewBox="0 0 20 20" fill="none">
      <path fill-rule="evenodd" clip-rule="evenodd" d="M11.2248 4.55806C11.4688 4.31398 11.8646 4.31398 12.1086 4.55806L17.1086 9.55806C17.3527 9.80214 17.3527 10.1979 17.1086 10.4419L12.1086 15.4419C11.8646 15.686 11.4688 15.686 11.2248 15.4419C10.9807 15.1979 10.9807 14.8021 11.2248 14.5581L15.1578 10.625H3.33337C2.9882 10.625 2.70837 10.3452 2.70837 10C2.70837 9.65482 2.9882 9.375 3.33337 9.375H15.1578L11.2248 5.44194C10.9807 5.19786 10.9807 4.80214 11.2248 4.55806Z" fill="currentColor" />

    </symbol>
    <symbol id="arrow-right-alt" width="100%" height="100%" viewBox="0 0 32 19" fill="none">
      <path fill-rule="evenodd" clip-rule="evenodd" d="M26.4833 9.93584H0V8.61106H26.4626C25.5887 8.19476 24.8301 7.67809 24.1629 7.05973C22.3987 5.42479 21.3458 3.14178 20.4255 0.361747L21.564 0C22.4707 2.73915 23.449 4.784 24.9854 6.2079C26.3522 7.47476 28.2191 8.30143 31.0311 8.61106H32V8.69484V9.86484V9.93584H31.1493C28.2707 10.2349 26.3707 11.0641 24.9849 12.3459C23.4489 13.7666 22.4707 15.8081 21.564 18.5471L20.4255 18.1853C21.3459 15.4051 22.3989 13.1251 24.1633 11.4933C24.8357 10.8714 25.6009 10.3528 26.4833 9.93584Z" fill="currentColor" />

    </symbol>
    <symbol id="arrow-left" width="100%" height="100%" viewBox="0 0 15 10" fill="none">
      <path d="M2 5L1.29289 4.29289L0.585786 5L1.29289 5.70711L2 5ZM14 6C14.5523 6 15 5.55228 15 5C15 4.44772 14.5523 4 14 4V6ZM5.29289 0.292893L1.29289 4.29289L2.70711 5.70711L6.70711 1.70711L5.29289 0.292893ZM1.29289 5.70711L5.29289 9.70711L6.70711 8.29289L2.70711 4.29289L1.29289 5.70711ZM2 6H14V4H2V6Z" fill="currentColor" />
    </symbol>
    <symbol id="arrow-left-alt" width="100%" height="100%" viewBox="0 0 32 19" fill="none">
      <path fill-rule="evenodd" clip-rule="evenodd" d="M5.51674 9.93584H32V8.61106H5.53737C6.41131 8.19476 7.16994 7.67809 7.83714 7.05973C9.60126 5.42479 10.6542 3.14178 11.5745 0.361747L10.436 0C9.52926 2.73915 8.55097 4.784 7.01463 6.2079C5.64777 7.47476 3.78091 8.30143 0.968855 8.61106H0V8.69484V9.86484V9.93584H0.850685C3.72931 10.2349 5.62931 11.0641 7.01514 12.3459C8.55114 13.7666 9.52926 15.8081 10.436 18.5471L11.5745 18.1853C10.6541 15.4051 9.60108 13.1251 7.83674 11.4933C7.16428 10.8714 6.39908 10.3528 5.51674 9.93584Z" fill="currentColor" />

    </symbol>
    <symbol id="gal-ochka" width="100%" height="100%" viewBox="0 0 12 10" fill="none">
      <path d="M6.23497 8.79946C5.9649 9.16602 5.54433 9.3913 5.0896 9.41369C4.63487 9.43632 4.19445 9.25304 3.88975 8.91464L1.15929 5.88456C0.725328 5.40328 0.763876 4.6614 1.24515 4.22744C1.72689 3.79348 2.46831 3.83226 2.90227 4.31377L4.83407 6.45771C4.8627 6.48956 4.90425 6.50664 4.94695 6.50456C4.98988 6.50249 5.02912 6.48102 5.05475 6.44686L9.02546 1.0614C9.40979 0.539728 10.1443 0.428699 10.6662 0.813259C11.1876 1.19782 11.2984 1.93232 10.9139 2.45376L6.23497 8.79946Z" fill="currentColor" />
    </symbol>
    <symbol id="to-right" width="100%" height="100%" viewBox="0 0 8 14" fill="none">
      <path d="M5.63663 7.00019L1.15148 2.51504C0.7935 2.15706 0.7935 1.57666 1.15148 1.21868C1.50946 0.8607 2.08986 0.8607 2.44784 1.21868L7.58118 6.35201C7.93916 6.70999 7.93916 7.29039 7.58118 7.64838L2.44784 12.7817C2.08986 13.1397 1.50946 13.1397 1.15148 12.7817C0.7935 12.4237 0.7935 11.8433 1.15148 11.4853L5.63663 7.00019Z" fill="currentColor" />
    </symbol>
    <symbol id="to-left" width="100%" height="100%" viewBox="0 0 8 14" fill="none">
      <path d="M2.36337 7.00019L6.84852 2.51504C7.2065 2.15706 7.2065 1.57666 6.84852 1.21868C6.49054 0.8607 5.91014 0.8607 5.55216 1.21868L0.418823 6.35201C0.0608425 6.70999 0.0608425 7.29039 0.418823 7.64838L5.55216 12.7817C5.91014 13.1397 6.49054 13.1397 6.84852 12.7817C7.2065 12.4237 7.2065 11.8433 6.84852 11.4853L2.36337 7.00019Z" fill="currentColor" />
    </symbol>
    <symbol id="play" width="100%" height="100%" viewBox="0 0 24 24" fill="none">
      <path d="M19.5761 9.35258C21.4746 10.5065 21.4746 13.4935 19.5761 14.6474L8.11276 21.6145C6.26758 22.736 4 21.2763 4 18.9671L4 5.0329C4 2.72368 6.26758 1.26402 8.11276 2.38548L19.5761 9.35258Z" fill="currentColor" />
    </symbol>
    <symbol id="cross" width="100%" height="100%" viewBox="0 0 28 28" fill="none">
      <path d="M20.9999 7.00006L7 21M6.99994 7L20.9999 20.9999" stroke="currentColor" stroke-width="2.4" stroke-linecap="round" />
    </symbol>
    <symbol id="location" width="100%" height="100%" viewBox="0 0 21 20" fill="none">
      <path fill-rule="evenodd" clip-rule="evenodd" d="M10.5 1.6665C6.8181 1.6665 3.83333 5.00199 3.83333 8.74984C3.83333 12.4683 5.9611 16.5102 9.28088 18.0619C10.0548 18.4236 10.9452 18.4236 11.7191 18.0619C15.0389 16.5102 17.1667 12.4683 17.1667 8.74984C17.1667 5.00199 14.1819 1.6665 10.5 1.6665ZM10.5 9.99984C11.4205 9.99984 12.1667 9.25364 12.1667 8.33317C12.1667 7.4127 11.4205 6.6665 10.5 6.6665C9.57952 6.6665 8.83333 7.4127 8.83333 8.33317C8.83333 9.25364 9.57952 9.99984 10.5 9.99984Z" fill="currentColor" />

    </symbol>
    <symbol id="whatsapp" width="100%" height="100%" viewBox="0 0 32 32" fill="none">
      <path fill-rule="evenodd" clip-rule="evenodd" d="M24.5031 7.48784C22.247 5.23989 19.2467 4.00137 16.0501 4C9.46351 4 4.10279 9.33474 4.10014 15.8919C4.09934 17.9879 4.64948 20.0338 5.69527 21.8374L4 28L10.3348 26.3462C12.0802 27.2937 14.0453 27.7931 16.0452 27.7938H16.0502C22.6361 27.7938 27.9972 22.4584 28 15.9011C28.0011 12.7236 26.7592 9.73568 24.5031 7.48784ZM16.0502 25.7853H16.0462C14.264 25.7847 12.5159 25.3081 10.991 24.4075L10.6283 24.1934L6.86915 25.1747L7.87251 21.5271L7.63636 21.1529C6.64219 19.5793 6.11699 17.7603 6.1178 15.8924C6.11998 10.4425 10.5755 6.00858 16.0542 6.00858C18.707 6.0095 21.2009 7.03896 23.0761 8.90749C24.9513 10.7759 25.9833 13.2593 25.9822 15.9006C25.98 21.351 21.5245 25.7853 16.0502 25.7853ZM21.4982 18.3821C21.1996 18.2334 19.7317 17.5145 19.458 17.4153C19.1843 17.3163 18.9852 17.2667 18.7862 17.5642C18.5872 17.8617 18.0148 18.5309 17.8407 18.7293C17.6665 18.9275 17.4923 18.9525 17.1938 18.8036C16.8951 18.655 15.9331 18.3411 14.7926 17.3287C13.905 16.5408 13.3058 15.5677 13.1316 15.2701C12.9574 14.9726 13.113 14.8118 13.2626 14.6637C13.3968 14.5305 13.5611 14.3165 13.7105 14.143C13.8598 13.9696 13.9095 13.8455 14.0091 13.6472C14.1086 13.4489 14.0589 13.2754 13.9841 13.1267C13.9095 12.9779 13.3123 11.5152 13.0635 10.9202C12.8212 10.3409 12.575 10.4192 12.3918 10.4101C12.2178 10.4015 12.0185 10.3996 11.8194 10.3996C11.6204 10.3996 11.297 10.4739 11.0232 10.7714C10.7496 11.0689 9.97824 11.7879 9.97824 13.2505C9.97824 14.7132 11.0481 16.1261 11.1974 16.3245C11.3466 16.5228 13.3029 19.5242 16.2981 20.8115C17.0103 21.1177 17.5666 21.3004 18.0002 21.4375C18.7156 21.6637 19.3665 21.6317 19.8809 21.5552C20.4546 21.4699 21.6474 20.8363 21.8962 20.1422C22.145 19.448 22.145 18.853 22.0704 18.7291C21.9958 18.6053 21.7968 18.5309 21.4982 18.3821Z" fill="currentColor" />

    </symbol>
    <symbol id="telegram" width="100%" height="100%" viewBox="0 0 32 32" fill="none">
      <path fill-rule="evenodd" clip-rule="evenodd" d="M5.64325 14.9576C12.0844 12.0358 16.3723 10.0944 18.5255 9.15246C24.6538 6.48056 25.942 6.01922 26.7701 6C26.9542 6 27.359 6.03844 27.6351 6.26911C27.8559 6.46134 27.9111 6.71123 27.9479 6.90345C27.9848 7.09567 28.0216 7.49934 27.9848 7.8069C27.6535 11.4591 26.218 20.3206 25.4819 24.3957C25.1691 26.1258 24.5618 26.7024 23.9729 26.7601C22.6846 26.8754 21.7093 25.8759 20.4762 25.0301C18.5255 23.7037 17.4397 22.8772 15.5442 21.5701C13.3542 20.0707 14.7712 19.2442 16.0227 17.8986C16.3539 17.5526 22.0037 12.1704 22.1141 11.6898C22.1325 11.6321 22.1325 11.4015 22.0037 11.2861C21.8749 11.1708 21.6909 11.2092 21.5436 11.2477C21.3412 11.2861 18.2495 13.439 12.2316 17.6872C11.3482 18.3215 10.5569 18.6291 9.83918 18.6098C9.04784 18.5906 7.53878 18.1485 6.39778 17.7641C5.01754 17.3027 3.91335 17.0528 4.00536 16.2455C4.06057 15.8226 4.61267 15.3997 5.64325 14.9576Z" fill="currentColor" />


    </symbol>
    <symbol id="circle-check" width="100%" height="100%" viewBox="0 0 24 24" fill="none">
      <path d="M12 21C16.9706 21 21 16.9706 21 12C21 7.02944 16.9706 3 12 3C7.02944 3 3 7.02944 3 12C3 16.9706 7.02944 21 12 21Z" stroke="currentColor" stroke-width="2" stroke-linecap="round" stroke-linejoin="round" />
      <path d="M9 12L11 14L15 10" stroke="currentColor" stroke-width="2" stroke-linecap="round" stroke-linejoin="round" />
    </symbol>
    <symbol id="shield-star" width="100%" height="100%" viewBox="0 0 52 52" fill="none">
      <path opacity="0.5" d="M7.31795 11.0119C6.5 12.1773 6.5 15.6413 6.5 22.5694V25.9813C6.5 38.1971 15.6844 44.1252 21.4469 46.6424C23.01 47.3252 23.7916 47.6667 26 47.6667C28.2084 47.6667 28.99 47.3253 30.5531 46.6424C36.3156 44.1252 45.5 38.1971 45.5 25.9813V22.5694C45.5 15.6413 45.5 12.1773 44.682 11.0119C43.8641 9.8465 40.607 8.73158 34.0927 6.50173L34.0927 6.50172L32.8516 6.07689C29.4559 4.91452 27.758 4.33333 26 4.33333C24.242 4.33333 22.5441 4.91452 19.1484 6.07688L19.1484 6.07689L17.9073 6.50172L17.9073 6.50172C11.393 8.73157 8.1359 9.8465 7.31795 11.0119Z" fill="currentColor" />
      <path d="M23.5327 18.1206L23.2487 18.6301C22.9368 19.1897 22.7808 19.4695 22.5376 19.6541C22.2944 19.8387 21.9915 19.9072 21.3857 20.0443L20.8342 20.1691C18.7025 20.6514 17.6367 20.8926 17.3831 21.708C17.1295 22.5235 17.8561 23.3732 19.3094 25.0726L19.6854 25.5123L19.6854 25.5123C20.0984 25.9952 20.3048 26.2366 20.3977 26.5354C20.4906 26.8341 20.4594 27.1562 20.397 27.8005L20.3401 28.3871C20.1204 30.6545 20.0106 31.7882 20.6744 32.2922C21.3383 32.7962 22.3363 32.3367 24.3322 31.4177L24.8486 31.1799C25.4158 30.9188 25.6994 30.7882 26 30.7882C26.3006 30.7882 26.5842 30.9188 27.1514 31.1799L27.6677 31.4177C29.6637 32.3367 30.6616 32.7962 31.3255 32.2922C31.9894 31.7882 31.8795 30.6545 31.6598 28.3872L31.603 27.8005L31.603 27.8005C31.5406 27.1562 31.5093 26.8341 31.6022 26.5354C31.6951 26.2366 31.9016 25.9952 32.3146 25.5123L32.6906 25.0726L32.6906 25.0726C34.1438 23.3732 34.8705 22.5235 34.6169 21.708C34.3633 20.8926 33.2974 20.6514 31.1657 20.1691L30.6142 20.0443C30.0084 19.9072 29.7056 19.8387 29.4624 19.6541C29.2192 19.4695 29.0632 19.1897 28.7513 18.6301L28.4672 18.1206L28.4672 18.1206C27.3695 16.1513 26.8206 15.1667 26 15.1667C25.1794 15.1667 24.6305 16.1513 23.5327 18.1206L23.5327 18.1206Z" fill="currentColor" />

    </symbol>

    <!--  -->
    <!--  -->
    <!--  -->
  </defs>
</svg>