<svg width="1277" height="698" viewBox="0 0 1277 698" fill="none" xmlns="http://www.w3.org/2000/svg">
<g opacity="0.1">
<path opacity="0.010101" d="M1315.06 212.636C1320.77 206.715 1322.03 197.785 1318.16 190.517L991.055 -424.687C987.19 -431.954 979.086 -435.907 970.979 -434.478L284.803 -313.487C276.697 -312.057 270.433 -305.571 269.288 -297.42L172.317 392.561C171.172 400.712 175.405 408.674 182.803 412.282L809.048 717.722C816.446 721.331 825.327 719.765 831.045 713.844L1315.06 212.636Z" stroke="url(#paint0_linear_20_1816)" stroke-width="2"/>
<path opacity="0.020202" d="M1322.28 204.254C1327.89 198.234 1328.99 189.284 1325 182.084L987.844 -426.158C983.853 -433.358 975.68 -437.169 967.6 -435.598L284.941 -302.902C276.861 -301.332 270.711 -294.737 269.708 -286.567L184.955 403.686C183.952 411.856 188.324 419.743 195.784 423.221L826.064 717.126C833.524 720.604 842.375 718.884 847.989 712.864L1322.28 204.254Z" stroke="url(#paint1_linear_20_1816)" stroke-width="2"/>
<path opacity="0.030303" d="M1329.31 195.886C1334.82 189.769 1335.76 180.801 1331.64 173.673L984.587 -427.446C980.471 -434.574 972.234 -438.242 964.182 -436.531L285.238 -292.217C277.187 -290.505 271.153 -283.804 270.292 -275.618L197.738 414.692C196.877 422.878 201.386 430.687 208.906 434.035L843.009 716.356C850.529 719.704 859.349 717.829 864.857 711.712L1329.31 195.886Z" stroke="url(#paint2_linear_20_1816)" stroke-width="2"/>
<path opacity="0.040404" d="M1336.15 187.537C1341.55 181.324 1342.34 172.341 1338.1 165.286L981.288 -428.549C977.049 -435.605 968.748 -439.128 960.728 -437.277L285.696 -281.433C277.676 -279.582 271.76 -272.776 271.043 -264.576L210.662 425.575C209.945 433.775 214.589 441.505 222.166 444.721L859.88 715.415C867.457 718.631 876.244 716.602 881.644 710.39L1336.15 187.537Z" stroke="url(#paint3_linear_20_1816)" stroke-width="2"/>
<path opacity="0.050505" d="M1342.81 179.207C1348.1 172.901 1348.73 163.906 1344.37 156.925L977.95 -429.469C973.588 -436.449 965.228 -439.827 957.241 -437.836L286.317 -270.556C278.33 -268.564 272.534 -261.657 271.96 -253.445L223.726 436.333C223.152 444.545 227.93 452.192 235.562 455.275L876.675 714.302C884.307 717.385 893.057 715.204 898.348 708.898L1342.81 179.207Z" stroke="url(#paint4_linear_20_1816)" stroke-width="2"/>
<path opacity="0.0606061" d="M1349.28 170.897C1354.46 164.5 1354.94 155.495 1350.45 148.592L974.577 -430.207C970.094 -437.11 961.676 -440.342 953.725 -438.211L287.102 -259.59C279.151 -257.46 273.476 -250.452 273.045 -242.232L236.926 446.961C236.496 455.181 241.407 462.743 249.091 465.693L893.391 713.017C901.076 715.967 909.786 713.633 914.966 707.236L1349.28 170.897Z" stroke="url(#paint5_linear_20_1816)" stroke-width="2"/>
<path opacity="0.0707071" d="M1355.57 162.615C1360.64 156.128 1360.95 147.116 1356.35 140.292L971.171 -430.761C966.568 -437.585 958.095 -440.669 950.182 -438.4L288.052 -248.537C280.139 -246.268 274.588 -239.162 274.3 -230.936L250.261 457.459C249.974 465.685 255.016 473.161 262.751 475.976L910.025 711.564C917.76 714.379 926.428 711.894 931.495 705.408L1355.57 162.615Z" stroke="url(#paint6_linear_20_1816)" stroke-width="2"/>
<path opacity="0.0808081" d="M1361.68 154.364C1366.63 147.79 1366.79 138.774 1362.06 132.031L967.737 -431.127C963.016 -437.87 954.49 -440.806 946.618 -438.399L289.168 -237.396C281.297 -234.99 275.87 -227.788 275.726 -219.558L263.728 467.827C263.584 476.057 268.756 483.443 276.539 486.123L926.574 709.948C934.356 712.628 942.98 709.991 947.933 703.418L1361.68 154.364Z" stroke="url(#paint7_linear_20_1816)" stroke-width="2"/>
<path opacity="0.0909091" d="M1367.59 146.144C1372.43 139.485 1372.43 130.468 1367.59 123.808L964.277 -431.311C959.439 -437.97 950.863 -440.757 943.034 -438.213L290.452 -226.177C282.624 -223.633 277.324 -216.338 277.324 -208.107V478.059C277.324 486.29 282.624 493.585 290.452 496.129L943.034 708.166C950.863 710.709 959.439 707.923 964.277 701.264L1367.59 146.144Z" stroke="url(#paint8_linear_20_1816)" stroke-width="2"/>
<path opacity="0.10101" d="M1373.33 137.959C1378.05 131.216 1377.9 122.2 1372.94 115.627L960.795 -431.312C955.841 -437.885 947.218 -440.522 939.435 -437.842L291.905 -214.88C284.122 -212.2 278.95 -204.813 279.094 -196.583L291.046 488.153C291.189 496.383 296.616 503.585 304.488 505.992L959.405 706.22C967.276 708.626 975.802 705.691 980.523 698.948L1373.33 137.959Z" stroke="url(#paint9_linear_20_1816)" stroke-width="2"/>
<path opacity="0.111111" d="M1378.89 129.816C1383.49 122.992 1383.18 113.98 1378.11 107.494L957.294 -431.125C952.226 -437.611 943.558 -440.096 935.823 -437.281L293.528 -203.505C285.793 -200.689 280.751 -193.214 281.038 -184.987L304.892 498.113C305.179 506.339 310.731 513.445 318.643 515.713L975.682 704.116C983.594 706.385 992.068 703.301 996.67 696.477L1378.89 129.816Z" stroke="url(#paint10_linear_20_1816)" stroke-width="2"/>
<path opacity="0.121212" d="M1384.26 121.712C1388.75 114.808 1388.27 105.803 1383.09 99.4066L953.777 -430.756C948.597 -437.153 939.887 -439.487 932.202 -436.537L295.321 -192.061C287.637 -189.111 282.726 -181.549 283.156 -173.329L318.86 507.928C319.29 516.148 324.965 523.156 332.916 525.286L991.863 701.85C999.813 703.981 1008.23 700.749 1012.71 693.846L1384.26 121.712Z" stroke="url(#paint11_linear_20_1816)" stroke-width="2"/>
<path opacity="0.131313" d="M1389.46 113.656C1393.82 106.676 1393.19 97.6803 1387.9 91.3748L950.248 -430.2C944.957 -436.505 936.208 -438.687 928.576 -435.603L297.286 -180.546C289.655 -177.463 284.876 -169.815 285.45 -161.604L332.945 517.605C333.519 525.816 339.316 532.724 347.302 534.715L1007.95 699.432C1015.93 701.423 1024.29 698.045 1028.65 691.064L1389.46 113.656Z" stroke="url(#paint12_linear_20_1816)" stroke-width="2"/>
<path opacity="0.141414" d="M1394.48 105.648C1398.72 98.5928 1397.93 89.6099 1392.53 83.3977L946.71 -429.46C941.31 -435.672 932.524 -437.701 924.947 -434.484L299.424 -168.966C291.847 -165.75 287.203 -158.02 287.92 -149.82L347.147 527.137C347.864 535.337 353.78 542.142 361.8 543.994L1023.93 696.858C1031.95 698.709 1040.25 695.186 1044.49 688.13L1394.48 105.648Z" stroke="url(#paint13_linear_20_1816)" stroke-width="2"/>
<path opacity="0.151515" d="M1399.32 97.6904C1403.43 90.5618 1402.49 81.5939 1396.98 75.4769L943.167 -428.538C937.659 -434.655 928.839 -436.529 921.319 -433.181L301.735 -157.325C294.216 -153.977 289.707 -146.168 290.568 -137.982L361.461 536.521C362.321 544.707 368.355 551.409 376.406 553.12L1039.8 694.129C1047.86 695.841 1056.09 692.173 1060.21 685.045L1399.32 97.6904Z" stroke="url(#paint14_linear_20_1816)" stroke-width="2"/>
<path opacity="0.161616" d="M1403.98 89.7881C1407.97 82.5888 1406.87 73.6387 1401.26 67.6187L939.621 -427.43C934.007 -433.45 925.155 -435.171 917.695 -431.692L304.221 -145.624C296.761 -142.146 292.389 -134.259 293.392 -126.089L375.885 545.759C376.888 553.929 383.038 560.524 391.118 562.095L1055.58 691.252C1063.66 692.823 1071.83 689.012 1075.82 681.813L1403.98 89.7881Z" stroke="url(#paint15_linear_20_1816)" stroke-width="2"/>
<path opacity="0.171717" d="M1408.47 81.9447C1412.34 74.6768 1411.08 65.7473 1405.37 59.8262L936.076 -426.138C930.358 -432.059 921.478 -433.625 914.079 -430.016L306.881 -133.866C299.483 -130.258 295.25 -122.296 296.396 -114.145L390.417 554.85C391.562 563.001 397.826 569.488 405.932 570.917L1071.24 688.228C1079.34 689.658 1087.45 685.705 1091.31 678.437L1408.47 81.9447Z" stroke="url(#paint16_linear_20_1816)" stroke-width="2"/>
<path opacity="0.181818" d="M1412.79 74.1604C1416.53 66.8262 1415.12 57.9199 1409.3 52.0996L932.535 -424.664C926.714 -430.484 917.808 -431.895 910.474 -428.158L309.717 -122.057C302.383 -118.32 298.289 -110.286 299.577 -102.156L405.052 563.788C406.34 571.918 412.716 578.294 420.846 579.582L1086.79 685.057C1094.92 686.345 1102.95 682.251 1106.69 674.917L1412.79 74.1604Z" stroke="url(#paint17_linear_20_1816)" stroke-width="2"/>
<path opacity="0.191919" d="M1416.94 66.4406C1420.55 59.0424 1418.98 50.1621 1413.06 44.4442L929.001 -423.006C923.08 -428.724 914.151 -429.979 906.883 -426.114L312.729 -110.197C305.462 -106.333 301.509 -98.2281 302.938 -90.1219L419.789 572.575C421.219 580.682 427.705 586.946 435.856 588.091L1102.23 681.744C1110.38 682.889 1118.34 678.656 1121.95 671.258L1416.94 66.4406Z" stroke="url(#paint18_linear_20_1816)" stroke-width="2"/>
<path opacity="0.20202" d="M1420.91 58.7838C1424.39 51.3237 1422.67 42.4721 1416.65 36.8584L925.479 -421.169C919.459 -426.783 910.509 -427.882 903.309 -423.891L315.918 -98.2948C308.719 -94.3042 304.908 -86.1317 306.479 -78.0517L434.625 581.205C436.196 589.285 442.791 595.435 450.961 596.438L1117.55 678.285C1125.72 679.288 1133.61 674.917 1137.09 667.457L1420.91 58.7838Z" stroke="url(#paint19_linear_20_1816)" stroke-width="2"/>
<path opacity="0.212121" d="M1424.72 51.2011C1428.07 43.6814 1426.2 34.8612 1420.08 29.3534L921.97 -419.146C915.852 -424.654 906.885 -425.596 899.756 -421.481L319.284 -86.3447C312.156 -82.2291 308.488 -73.9914 310.199 -65.94L449.557 589.684C451.268 597.736 457.969 603.77 466.155 604.63L1132.75 674.692C1140.94 675.553 1148.75 671.044 1152.1 663.525L1424.72 51.2011Z" stroke="url(#paint20_linear_20_1816)" stroke-width="2"/>
<path opacity="0.222222" d="M1428.36 43.6872C1431.58 36.1102 1429.55 27.324 1423.34 21.9238L918.478 -416.945C912.266 -422.345 903.283 -423.131 896.227 -418.892L322.828 -74.3584C315.772 -70.119 312.249 -61.8185 314.1 -53.7982L464.581 598.004C466.432 606.024 473.238 611.94 481.438 612.657L1147.84 670.96C1156.04 671.677 1163.77 667.033 1166.98 659.456L1428.36 43.6872Z" stroke="url(#paint21_linear_20_1816)" stroke-width="2"/>
<path opacity="0.232323" d="M1431.84 36.2505C1434.92 28.6186 1432.74 19.8691 1426.43 14.5782L915.006 -414.561C908.701 -419.852 899.705 -420.481 892.725 -416.119L326.549 -62.3334C319.569 -57.9714 316.191 -49.6107 318.182 -41.6239L479.694 606.167C481.686 614.154 488.593 619.95 496.805 620.524L1162.8 667.095C1171.01 667.67 1178.66 662.891 1181.74 655.259L1431.84 36.2505Z" stroke="url(#paint22_linear_20_1816)" stroke-width="2"/>
<path opacity="0.242424" d="M1435.15 28.8918C1438.1 21.2071 1435.77 12.4971 1429.37 7.31702L911.558 -411.998C905.161 -417.178 896.156 -417.65 889.253 -413.167L330.448 -50.275C323.545 -45.7919 320.314 -37.3735 322.444 -29.4227L494.895 614.172C497.025 622.123 504.033 627.797 512.253 628.228L1177.64 663.099C1185.86 663.53 1193.42 658.619 1196.37 650.934L1435.15 28.8918Z" stroke="url(#paint23_linear_20_1816)" stroke-width="2"/>
<path opacity="0.252525" d="M1438.3 21.612C1441.11 13.8771 1438.63 5.20913 1432.14 0.141458L908.137 -409.257C901.65 -414.325 892.638 -414.639 885.814 -410.037L334.526 -38.1881C327.702 -33.5852 324.618 -25.1117 326.887 -17.1993L510.179 622.014C512.448 629.927 519.553 635.478 527.78 635.765L1192.35 658.973C1200.57 659.26 1208.05 654.218 1210.87 646.483L1438.3 21.612Z" stroke="url(#paint24_linear_20_1816)" stroke-width="2"/>
<path opacity="0.262626" d="M1441.29 14.415C1443.97 6.63212 1441.33 -1.99114 1434.76 -6.94484L904.745 -406.339C898.171 -411.292 889.155 -411.45 882.413 -406.729L338.783 -26.0751C332.04 -21.3539 329.105 -12.8278 331.511 -4.95624L525.543 629.695C527.95 637.566 535.152 642.993 543.382 643.137L1206.93 654.719C1215.16 654.862 1222.55 649.69 1225.23 641.907L1441.29 14.415Z" stroke="url(#paint25_linear_20_1816)" stroke-width="2"/>
<path opacity="0.272727" d="M1444.12 7.3059C1446.66 -0.522567 1443.88 -9.09849 1437.22 -13.9367L901.386 -403.241C894.727 -408.08 885.71 -408.08 879.05 -403.241L343.218 -13.9366C336.559 -9.09845 333.773 -0.522492 336.316 7.3059L540.986 637.214C543.53 645.042 550.825 650.343 559.056 650.343L1221.38 650.343C1229.61 650.343 1236.91 645.042 1239.45 637.214L1444.12 7.3059Z" stroke="url(#paint26_linear_20_1816)" stroke-width="2"/>
<path opacity="0.282828" d="M1446.79 0.284657C1449.2 -7.58701 1446.27 -16.113 1439.52 -20.8343L898.063 -399.968C891.32 -404.689 882.304 -404.532 875.731 -399.578L347.832 -1.77861C341.259 3.17506 338.622 11.7983 341.302 19.5812L556.503 644.569C559.183 652.352 566.569 657.524 574.799 657.38L1235.7 645.844C1243.93 645.7 1251.13 640.274 1253.54 632.402L1446.79 0.284657Z" stroke="url(#paint27_linear_20_1816)" stroke-width="2"/>
<path opacity="0.292929" d="M1449.31 -6.64364C1451.58 -14.5561 1448.5 -23.0296 1441.67 -27.6324L894.779 -396.518C887.955 -401.121 878.943 -400.807 872.457 -395.739L352.625 10.398C346.139 15.4657 343.653 24.1337 346.469 31.8686L572.091 651.761C574.906 659.496 582.382 664.538 590.608 664.251L1249.88 641.228C1258.11 640.941 1265.21 635.39 1267.48 627.477L1449.31 -6.64364Z" stroke="url(#paint28_linear_20_1816)" stroke-width="2"/>
<path opacity="0.30303" d="M1451.68 -13.4813C1453.81 -21.4321 1450.58 -29.8505 1443.68 -34.3335L891.537 -392.897C884.634 -397.38 875.629 -396.908 869.232 -391.728L357.597 22.5855C351.2 27.7656 348.866 36.4757 351.816 44.1602L587.748 658.784C590.698 666.468 598.26 671.38 606.48 670.949L1263.93 636.493C1272.15 636.063 1279.16 630.388 1281.29 622.437L1451.68 -13.4813Z" stroke="url(#paint29_linear_20_1816)" stroke-width="2"/>
<path opacity="0.313131" d="M1453.9 -20.2195C1455.89 -28.2063 1452.51 -36.567 1445.53 -40.9289L888.34 -389.1C881.359 -393.462 872.364 -392.833 866.058 -387.542L362.747 34.7866C356.442 40.0776 354.26 48.8271 357.344 56.459L603.47 665.643C606.553 673.275 614.201 678.054 622.412 677.48L1277.84 631.648C1286.05 631.074 1292.96 625.277 1294.95 617.291L1453.9 -20.2195Z" stroke="url(#paint30_linear_20_1816)" stroke-width="2"/>
<path opacity="0.323232" d="M1455.96 -26.8624C1457.82 -34.8827 1454.29 -43.1832 1447.24 -47.4226L885.191 -385.134C878.135 -389.374 869.153 -388.588 862.94 -383.187L368.076 46.9918C361.864 52.392 359.835 61.1782 363.051 68.7552L619.254 672.332C622.471 679.909 630.2 684.553 638.4 683.836L1291.61 626.688C1299.81 625.97 1306.61 620.054 1308.46 612.034L1455.96 -26.8624Z" stroke="url(#paint31_linear_20_1816)" stroke-width="2"/>
<path opacity="0.333333" d="M1457.89 -33.4011C1459.6 -41.4526 1455.93 -49.6903 1448.8 -53.8059L882.093 -380.995C874.965 -385.11 865.997 -384.168 859.88 -378.66L373.582 59.2041C367.465 64.7118 365.591 73.5321 368.939 81.0518L635.098 678.855C638.446 686.375 646.255 690.884 654.441 690.023L1305.23 621.622C1313.42 620.762 1320.12 614.728 1321.83 606.677L1457.89 -33.4011Z" stroke="url(#paint32_linear_20_1816)" stroke-width="2"/>
<path opacity="0.343434" d="M1459.66 -39.838C1461.23 -47.9181 1457.42 -56.0905 1450.22 -60.0811L879.049 -376.688C871.85 -380.678 862.9 -379.579 856.88 -373.965L379.267 71.4157C373.247 77.0294 371.527 85.8811 375.005 93.3411L650.998 685.208C654.476 692.668 662.363 697.04 670.533 696.037L1318.72 616.45C1326.89 615.446 1333.48 609.297 1335.05 601.217L1459.66 -39.838Z" stroke="url(#paint33_linear_20_1816)" stroke-width="2"/>
<path opacity="0.353535" d="M1461.3 -46.1662C1462.73 -54.2725 1458.77 -62.3771 1451.5 -66.2415L876.062 -372.21C868.794 -376.074 859.865 -374.819 853.944 -369.101L385.129 83.6278C379.208 89.3457 377.643 98.226 381.251 105.624L666.95 691.394C670.558 698.792 678.52 703.026 686.671 701.88L1332.06 611.177C1340.21 610.031 1346.69 603.767 1348.12 595.661L1461.3 -46.1662Z" stroke="url(#paint34_linear_20_1816)" stroke-width="2"/>
<path opacity="0.363636" d="M1462.79 -52.3881C1464.08 -60.5181 1459.98 -68.5526 1452.65 -72.2895L873.135 -367.567C865.801 -371.304 856.895 -369.893 851.074 -364.073L391.169 95.8325C385.349 101.653 383.938 110.559 387.675 117.893L682.952 697.408C686.689 704.742 694.724 708.835 702.854 707.548L1345.25 605.802C1353.38 604.514 1359.76 598.138 1361.04 590.008L1462.79 -52.3881Z" stroke="url(#paint35_linear_20_1816)" stroke-width="2"/>
<path opacity="0.373737" d="M1464.14 -58.4976C1465.29 -66.6488 1461.06 -74.6106 1453.66 -78.219L870.27 -362.757C862.872 -366.365 853.992 -364.799 848.274 -358.878L397.385 108.031C391.667 113.952 390.412 122.881 394.277 130.149L699.001 703.252C702.865 710.52 710.97 714.473 719.076 713.044L1358.29 600.332C1366.4 598.903 1372.66 592.416 1373.81 584.265L1464.14 -58.4976Z" stroke="url(#paint36_linear_20_1816)" stroke-width="2"/>
<path opacity="0.383838" d="M1465.36 -64.4969C1466.37 -72.6668 1462 -80.5535 1454.54 -84.0322L867.47 -357.785C860.01 -361.264 851.159 -359.543 845.545 -353.523L403.777 120.215C398.163 126.235 397.064 135.185 401.055 142.384L715.093 708.923C719.083 716.123 727.256 719.933 735.336 718.363L1371.19 594.765C1379.27 593.195 1385.42 586.6 1386.42 578.43L1465.36 -64.4969Z" stroke="url(#paint37_linear_20_1816)" stroke-width="2"/>
<path opacity="0.393939" d="M1466.45 -70.379C1467.31 -78.5652 1462.8 -86.3744 1455.28 -89.7224L864.74 -352.649C857.22 -355.997 848.4 -354.123 842.892 -348.005L410.345 132.386C404.838 138.503 403.895 147.471 408.011 154.599L731.226 714.425C735.342 721.553 743.579 725.221 751.631 723.51L1383.94 589.109C1391.99 587.398 1398.02 580.697 1398.88 572.51L1466.45 -70.379Z" stroke="url(#paint38_linear_20_1816)" stroke-width="2"/>
<path opacity="0.40404" d="M1467.41 -76.1469C1468.12 -84.347 1463.48 -92.0763 1455.9 -95.2925L862.079 -347.356C854.502 -350.572 845.716 -348.543 840.315 -342.331L417.088 144.537C411.688 150.749 410.902 159.732 415.141 166.788L747.395 719.751C751.635 726.807 759.935 730.33 767.956 728.479L1396.53 583.361C1404.55 581.51 1410.46 574.704 1411.18 566.504L1467.41 -76.1469Z" stroke="url(#paint39_linear_20_1816)" stroke-width="2"/>
<path opacity="0.414141" d="M1468.23 -81.7921C1468.81 -90.0034 1464.03 -97.6505 1456.4 -100.734L859.493 -341.899C851.861 -344.982 843.111 -342.801 837.82 -336.495L424.006 156.67C418.715 162.975 418.086 171.971 422.448 178.951L763.6 724.909C767.962 731.89 776.322 735.268 784.309 733.276L1408.97 577.531C1416.95 575.54 1422.75 568.632 1423.32 560.421L1468.23 -81.7921Z" stroke="url(#paint40_linear_20_1816)" stroke-width="2"/>
<path opacity="0.424242" d="M1468.93 -87.3168C1469.36 -95.5368 1464.45 -103.099 1456.77 -106.049L856.982 -336.285C849.298 -339.235 840.588 -336.901 835.408 -330.504L431.096 168.779C425.916 175.176 425.444 184.181 429.927 191.084L779.835 729.894C784.318 736.797 792.736 740.029 800.687 737.898L1421.25 571.618C1429.2 569.488 1434.88 562.48 1435.31 554.26L1468.93 -87.3168Z" stroke="url(#paint41_linear_20_1816)" stroke-width="2"/>
<path opacity="0.434343" d="M1469.51 -92.7192C1469.8 -100.945 1464.75 -108.421 1457.02 -111.236L854.551 -330.517C846.816 -333.332 838.148 -330.846 833.08 -324.36L438.36 180.859C433.292 187.346 432.977 196.357 437.58 203.181L796.097 734.704C800.7 741.529 809.173 744.613 817.086 742.344L1433.38 565.624C1441.29 563.355 1446.85 556.249 1447.13 548.023L1469.51 -92.7192Z" stroke="url(#paint42_linear_20_1816)" stroke-width="2"/>
<path opacity="0.444444" d="M1469.96 -97.9954C1470.11 -106.225 1464.93 -113.612 1457.15 -116.292L852.201 -324.593C844.418 -327.273 835.795 -324.636 830.841 -318.063L445.795 192.911C440.842 199.485 440.684 208.501 445.405 215.243L812.384 739.343C817.106 746.086 825.632 749.022 833.503 746.615L1445.35 559.553C1453.23 557.147 1458.65 549.945 1458.8 541.715L1469.96 -97.9954Z" stroke="url(#paint43_linear_20_1816)" stroke-width="2"/>
<path opacity="0.454545" d="M1470.3 -103.143C1470.3 -111.375 1465 -118.67 1457.17 -121.213L849.936 -318.516C842.107 -321.059 833.531 -318.273 828.693 -311.613L453.402 204.931C448.564 211.59 448.564 220.607 453.402 227.266L828.693 743.81C833.531 750.47 842.107 753.256 849.936 750.713L1457.17 553.41C1465 550.867 1470.3 543.572 1470.3 535.34L1470.3 -103.143Z" stroke="url(#paint44_linear_20_1816)" stroke-width="2"/>
<path opacity="0.464646" d="M1470.52 -108.163C1470.37 -116.393 1464.95 -123.595 1457.08 -126.001L847.757 -312.288C839.885 -314.695 831.359 -311.759 826.638 -305.017L461.179 216.913C456.457 223.656 456.615 232.672 461.568 239.246L845.02 748.104C849.974 754.678 858.597 757.314 866.38 754.634L1468.83 547.195C1476.61 544.516 1481.78 537.129 1481.64 528.899L1470.52 -108.163Z" stroke="url(#paint45_linear_20_1816)" stroke-width="2"/>
<path opacity="0.474747" d="M1470.62 -113.053C1470.33 -121.28 1464.78 -128.385 1456.87 -130.654L845.667 -305.914C837.755 -308.183 829.281 -305.099 824.678 -298.275L469.124 228.856C464.521 235.68 464.836 244.692 469.904 251.178L861.363 752.223C866.43 758.709 875.098 761.195 882.833 758.379L1480.32 540.911C1488.06 538.096 1493.1 530.62 1492.81 522.394L1470.62 -113.053Z" stroke="url(#paint46_linear_20_1816)" stroke-width="2"/>
<path opacity="0.484848" d="M1470.62 -117.81C1470.19 -126.031 1464.51 -133.038 1456.56 -135.169L843.67 -299.392C835.719 -301.522 827.301 -298.291 822.818 -291.388L477.239 240.757C472.755 247.661 473.227 256.666 478.408 263.063L877.718 756.17C882.898 762.566 891.608 764.9 899.292 761.95L1491.66 534.562C1499.34 531.613 1504.25 524.05 1503.82 515.83L1470.62 -117.81Z" stroke="url(#paint47_linear_20_1816)" stroke-width="2"/>
<path opacity="0.494949" d="M1470.5 -122.435C1469.93 -130.646 1464.13 -137.553 1456.14 -139.545L841.766 -292.726C833.779 -294.717 825.419 -291.34 821.057 -284.359L485.52 252.613C481.158 259.593 481.787 268.589 487.078 274.894L894.082 759.942C899.373 766.248 908.122 768.429 915.754 765.346L1502.83 528.15C1510.47 525.067 1515.24 517.42 1514.67 509.209L1470.5 -122.435Z" stroke="url(#paint48_linear_20_1816)" stroke-width="2"/>
<path opacity="0.50505" d="M1470.28 -126.919C1469.56 -135.119 1463.65 -141.924 1455.63 -143.776L839.959 -285.914C831.938 -287.765 823.638 -284.242 819.399 -277.187L493.966 264.424C489.727 271.48 490.513 280.463 495.913 286.675L910.451 763.547C915.851 769.759 924.637 771.787 932.214 768.571L1513.85 521.683C1521.42 518.467 1526.07 510.738 1525.35 502.538L1470.28 -126.919Z" stroke="url(#paint49_linear_20_1816)" stroke-width="2"/>
<path opacity="0.515152" d="M1469.95 -131.267C1469.09 -139.454 1463.06 -146.155 1455.01 -147.866L838.251 -278.962C830.199 -280.673 821.962 -277.006 817.846 -269.877L502.578 276.184C498.462 283.312 499.405 292.28 504.912 298.397L926.824 766.977C932.332 773.094 941.152 774.969 948.672 771.621L1524.7 515.159C1532.22 511.811 1536.72 504.001 1535.86 495.815L1469.95 -131.267Z" stroke="url(#paint50_linear_20_1816)" stroke-width="2"/>
<path opacity="0.525253" d="M1469.53 -135.478C1468.53 -143.647 1462.38 -150.242 1454.3 -151.813L836.644 -271.872C828.564 -273.443 820.391 -269.632 816.401 -262.433L511.353 287.889C507.362 295.088 508.461 304.038 514.075 310.058L943.196 770.235C948.81 776.255 957.662 777.975 965.122 774.496L1535.38 508.58C1542.84 505.101 1547.21 497.214 1546.21 489.045L1469.53 -135.478Z" stroke="url(#paint51_linear_20_1816)" stroke-width="2"/>
<path opacity="0.535354" d="M1469 -139.546C1467.86 -147.697 1461.59 -154.184 1453.49 -155.613L835.14 -264.645C827.034 -266.074 818.929 -262.121 815.065 -254.853L520.289 299.539C516.425 306.806 517.68 315.736 523.398 321.657L959.565 773.322C965.283 779.243 974.164 780.809 981.562 777.2L1545.9 501.952C1553.3 498.344 1557.54 490.382 1556.39 482.231L1469 -139.546Z" stroke="url(#paint52_linear_20_1816)" stroke-width="2"/>
<path opacity="0.545455" d="M1468.39 -143.473C1467.1 -151.603 1460.72 -157.979 1452.59 -159.267L833.742 -257.283C825.612 -258.57 817.578 -254.477 813.841 -247.143L529.387 311.129C525.65 318.463 527.061 327.37 532.881 333.19L975.928 776.237C981.749 782.058 990.655 783.468 997.989 779.731L1556.26 495.278C1563.6 491.541 1567.69 483.506 1566.4 475.376L1468.39 -143.473Z" stroke="url(#paint53_linear_20_1816)" stroke-width="2"/>
<path opacity="0.555556" d="M1467.67 -147.257C1466.24 -155.363 1459.76 -161.627 1451.61 -162.773L832.452 -249.789C824.301 -250.935 816.339 -246.701 812.731 -239.303L538.644 322.658C535.036 330.056 536.602 338.936 542.523 344.654L992.282 778.981C998.203 784.699 1007.13 785.954 1014.4 782.09L1566.45 488.558C1573.72 484.694 1577.67 476.589 1576.24 468.483L1467.67 -147.257Z" stroke="url(#paint54_linear_20_1816)" stroke-width="2"/>
<path opacity="0.565657" d="M1466.87 -150.895C1465.3 -158.975 1458.71 -165.124 1450.54 -166.128L831.272 -242.164C823.102 -243.167 815.215 -238.795 811.736 -231.335L548.059 334.123C544.58 341.583 546.301 350.435 552.321 356.049L1008.62 781.557C1014.64 787.171 1023.59 788.27 1030.79 784.279L1576.48 481.8C1583.68 477.809 1587.49 469.637 1585.92 461.557L1466.87 -150.895Z" stroke="url(#paint55_linear_20_1816)" stroke-width="2"/>
<path opacity="0.575758" d="M1465.98 -154.388C1464.27 -162.44 1457.57 -168.473 1449.38 -169.334L830.204 -234.412C822.018 -235.273 814.208 -230.764 810.86 -223.244L557.63 345.52C554.283 353.039 556.157 361.86 562.274 367.367L1024.95 783.961C1031.07 789.469 1040.03 790.412 1047.16 786.296L1586.34 475.001C1593.47 470.886 1597.14 462.648 1595.43 454.596L1465.98 -154.388Z" stroke="url(#paint56_linear_20_1816)" stroke-width="2"/>
<path opacity="0.585859" d="M1465.01 -157.732C1463.16 -165.752 1456.35 -171.668 1448.15 -172.385L829.25 -226.532C821.05 -227.25 813.32 -222.605 810.104 -215.028L567.357 356.849C564.14 364.426 566.169 373.212 572.381 378.612L1041.26 786.199C1047.47 791.599 1056.45 792.385 1063.51 788.146L1596.03 468.17C1603.09 463.931 1606.61 455.631 1604.76 447.61L1465.01 -157.732Z" stroke="url(#paint57_linear_20_1816)" stroke-width="2"/>
<path opacity="0.59596" d="M1463.95 -160.929C1461.96 -168.915 1455.05 -174.712 1446.84 -175.286L828.412 -218.531C820.201 -219.105 812.554 -214.326 809.47 -206.694L577.236 368.104C574.153 375.736 576.334 384.486 582.64 389.777L1057.54 788.267C1063.85 793.558 1072.84 794.187 1079.82 789.825L1605.56 461.307C1612.54 456.945 1615.92 448.584 1613.93 440.597L1463.95 -160.929Z" stroke="url(#paint58_linear_20_1816)" stroke-width="2"/>
<path opacity="0.606061" d="M1462.82 -163.975C1460.69 -171.926 1453.68 -177.601 1445.46 -178.031L827.692 -210.407C819.472 -210.838 811.91 -205.927 808.96 -198.242L587.268 379.286C584.318 386.97 586.652 395.68 593.049 400.86L1073.8 790.168C1080.2 795.348 1089.21 795.82 1096.11 791.337L1614.92 454.415C1621.83 449.931 1625.06 441.513 1622.93 433.562L1462.82 -163.975Z" stroke="url(#paint59_linear_20_1816)" stroke-width="2"/>
<path opacity="0.616162" d="M1461.61 -166.871C1459.34 -174.783 1452.23 -180.335 1444.01 -180.622L827.092 -202.165C818.866 -202.453 811.39 -197.41 808.575 -189.675L597.449 390.389C594.634 398.124 597.119 406.792 603.606 411.86L1090.04 791.902C1096.52 796.97 1105.54 797.285 1112.36 792.682L1624.12 447.497C1630.94 442.894 1634.03 434.42 1631.76 426.508L1461.61 -166.871Z" stroke="url(#paint60_linear_20_1816)" stroke-width="2"/>
<path opacity="0.626263" d="M1460.33 -169.614C1457.92 -177.485 1450.72 -182.912 1442.49 -183.056L826.614 -193.806C818.384 -193.95 810.998 -188.778 808.318 -180.995L607.779 401.414C605.099 409.197 607.735 417.82 614.309 422.774L1106.24 793.472C1112.82 798.426 1121.83 798.583 1128.57 793.862L1633.15 440.557C1639.89 435.836 1642.82 427.31 1640.42 419.439L1460.33 -169.614Z" stroke="url(#paint61_linear_20_1816)" stroke-width="2"/>
<path opacity="0.636364" d="M1458.97 -172.204C1456.43 -180.032 1449.13 -185.332 1440.9 -185.332L826.26 -185.332C818.029 -185.332 810.734 -180.032 808.19 -172.204L618.255 412.356C615.712 420.185 618.498 428.761 625.157 433.599L1122.41 794.877C1129.07 799.715 1138.09 799.715 1144.75 794.877L1642.01 433.599C1648.67 428.761 1651.45 420.185 1648.91 412.356L1458.97 -172.204Z" stroke="url(#paint62_linear_20_1816)" stroke-width="2"/>
<path opacity="0.646465" d="M1457.55 -174.642C1454.87 -182.424 1447.49 -187.596 1439.26 -187.453L826.032 -176.749C817.801 -176.605 810.6 -171.178 808.193 -163.307L628.876 423.212C626.47 431.084 629.406 439.61 636.148 444.331L1138.55 796.116C1145.29 800.837 1154.31 800.68 1160.88 795.726L1650.7 426.622C1657.27 421.668 1659.91 413.045 1657.23 405.262L1457.55 -174.642Z" stroke="url(#paint63_linear_20_1816)" stroke-width="2"/>
<path opacity="0.656566" d="M1456.07 -176.923C1453.25 -184.658 1445.78 -189.701 1437.55 -189.413L825.93 -168.055C817.703 -167.768 810.598 -162.216 808.329 -154.304L639.64 433.982C637.372 441.895 640.456 450.368 647.28 454.971L1154.65 797.194C1161.47 801.797 1170.48 801.482 1176.97 796.414L1659.23 419.633C1665.71 414.566 1668.2 405.898 1665.38 398.163L1456.07 -176.923Z" stroke="url(#paint64_linear_20_1816)" stroke-width="2"/>
<path opacity="0.666667" d="M1454.52 -179.052C1451.57 -186.737 1444.01 -191.648 1435.79 -191.217L825.957 -159.257C817.737 -158.826 810.729 -153.152 808.599 -145.201L650.546 444.66C648.415 452.611 651.647 461.029 658.55 465.512L1170.7 798.107C1177.6 802.59 1186.61 802.118 1193.01 796.938L1667.58 412.631C1673.98 407.451 1676.32 398.741 1673.37 391.056L1454.52 -179.052Z" stroke="url(#paint65_linear_20_1816)" stroke-width="2"/>
<path opacity="0.676768" d="M1452.92 -181.023C1449.83 -188.655 1442.19 -193.433 1433.97 -192.859L826.115 -150.353C817.903 -149.779 810.996 -143.983 809.004 -135.996L661.59 455.248C659.599 463.235 662.977 471.596 669.958 475.958L1186.71 798.861C1193.69 803.223 1202.69 802.594 1208.99 797.303L1675.78 405.624C1682.08 400.333 1684.26 391.584 1681.18 383.952L1452.92 -181.023Z" stroke="url(#paint66_linear_20_1816)" stroke-width="2"/>
<path opacity="0.686869" d="M1451.26 -182.837C1448.04 -190.414 1440.31 -195.059 1432.11 -194.341L826.404 -141.349C818.204 -140.631 811.399 -134.716 809.547 -126.695L672.772 465.741C670.921 473.762 674.444 482.062 681.499 486.302L1202.67 799.455C1209.73 803.695 1218.71 802.909 1224.93 797.508L1683.8 398.611C1690.02 393.211 1692.04 384.425 1688.83 376.848L1451.26 -182.837Z" stroke="url(#paint67_linear_20_1816)" stroke-width="2"/>
<path opacity="0.69697" d="M1449.54 -184.495C1446.19 -192.014 1438.39 -196.523 1430.2 -195.663L826.827 -132.246C818.641 -131.385 811.94 -125.352 810.228 -117.3L684.089 476.138C682.378 484.189 686.045 492.427 693.174 496.543L1218.59 799.89C1225.72 804.006 1234.68 803.063 1240.8 797.556L1691.66 391.597C1697.78 386.089 1699.66 377.269 1696.31 369.749L1449.54 -184.495Z" stroke="url(#paint68_linear_20_1816)" stroke-width="2"/>
<path opacity="0.707071" d="M1447.78 -185.992C1444.3 -193.452 1436.41 -197.823 1428.24 -196.82L827.385 -123.044C819.215 -122.041 812.621 -115.891 811.05 -107.811L695.54 486.438C693.969 494.518 697.78 502.69 704.979 506.681L1234.45 800.171C1241.65 804.161 1250.6 803.062 1256.62 797.449L1699.36 384.586C1705.38 378.973 1707.1 370.121 1703.62 362.661L1447.78 -185.992Z" stroke="url(#paint69_linear_20_1816)" stroke-width="2"/>
<path opacity="0.717172" d="M1445.97 -187.333C1442.36 -194.731 1434.4 -198.965 1426.25 -197.819L828.08 -113.752C819.928 -112.606 813.442 -106.342 812.013 -98.2361L707.121 496.634C705.692 504.74 709.645 512.845 716.912 516.709L1250.25 800.292C1257.52 804.156 1266.45 802.901 1272.37 797.183L1706.89 377.577C1712.81 371.859 1714.37 362.979 1710.77 355.581L1445.97 -187.333Z" stroke="url(#paint70_linear_20_1816)" stroke-width="2"/>
<path opacity="0.727273" d="M1444.12 -188.513C1440.38 -195.847 1432.34 -199.941 1424.21 -198.653L828.912 -104.366C820.782 -103.079 814.406 -96.7025 813.119 -88.5726L718.832 506.729C717.544 514.859 721.638 522.894 728.972 526.63L1266 800.261C1273.34 803.997 1282.24 802.587 1288.06 796.766L1714.25 370.578C1720.07 364.757 1721.48 355.851 1717.75 348.517L1444.12 -188.513Z" stroke="url(#paint71_linear_20_1816)" stroke-width="2"/>
<path opacity="0.737374" d="M1442.22 -189.534C1438.36 -196.802 1430.25 -200.754 1422.14 -199.325L829.884 -94.8934C821.777 -93.4641 815.513 -86.9777 814.368 -78.8264L730.669 516.718C729.524 524.87 733.757 532.831 741.156 536.44L1281.69 800.075C1289.09 803.684 1297.97 802.118 1303.68 796.197L1721.45 363.587C1727.17 357.666 1728.42 348.737 1724.56 341.469L1442.22 -189.534Z" stroke="url(#paint72_linear_20_1816)" stroke-width="2"/>
<path opacity="0.747475" d="M1440.29 -190.393C1436.3 -197.592 1428.12 -201.403 1420.04 -199.833L830.996 -85.3332C822.916 -83.7625 816.766 -77.1677 815.763 -68.9978L742.632 526.603C741.629 534.772 746.001 542.659 753.461 546.138L1297.31 799.74C1304.77 803.218 1313.62 801.498 1319.24 795.478L1728.49 356.612C1734.1 350.592 1735.2 341.642 1731.21 334.443L1440.29 -190.393Z" stroke="url(#paint73_linear_20_1816)" stroke-width="2"/>
<path opacity="0.757576" d="M1438.32 -191.096C1434.2 -198.224 1425.97 -201.892 1417.91 -200.18L832.249 -75.6934C824.198 -73.9821 818.164 -67.2809 817.304 -59.0947L754.717 536.374C753.857 544.56 758.366 552.369 765.885 555.717L1312.87 799.25C1320.39 802.598 1329.21 800.724 1334.72 794.607L1735.36 349.65C1740.87 343.532 1741.81 334.565 1737.69 327.436L1438.32 -191.096Z" stroke="url(#paint74_linear_20_1816)" stroke-width="2"/>
<path opacity="0.767677" d="M1436.32 -191.635C1432.08 -198.691 1423.78 -202.214 1415.76 -200.362L833.646 -65.9712C825.625 -64.1195 819.71 -57.3141 818.992 -49.1141L766.923 546.037C766.206 554.237 770.85 561.966 778.427 565.182L1328.36 798.614C1335.94 801.831 1344.72 799.802 1350.12 793.59L1742.07 342.708C1747.47 336.496 1748.25 327.513 1744.01 320.457L1436.32 -191.635Z" stroke="url(#paint75_linear_20_1816)" stroke-width="2"/>
<path opacity="0.777778" d="M1434.29 -192.013C1429.93 -198.994 1421.57 -202.372 1413.58 -200.38L835.186 -56.1706C827.199 -54.1793 821.403 -47.2716 820.829 -39.0604L779.247 555.587C778.673 563.798 783.451 571.446 791.083 574.529L1343.78 797.832C1351.41 800.915 1360.16 798.734 1365.45 792.428L1748.62 335.79C1753.91 329.484 1754.54 320.489 1750.17 313.508L1434.29 -192.013Z" stroke="url(#paint76_linear_20_1816)" stroke-width="2"/>
<path opacity="0.787879" d="M1432.23 -192.23C1427.75 -199.133 1419.33 -202.365 1411.38 -200.234L836.871 -46.2949C828.92 -44.1645 823.246 -37.1568 822.815 -28.9368L791.687 565.023C791.256 573.243 796.167 580.806 803.852 583.756L1359.12 796.904C1366.81 799.854 1375.52 797.52 1380.7 791.123L1755 328.896C1760.18 322.499 1760.65 313.494 1756.17 306.591L1432.23 -192.23Z" stroke="url(#paint77_linear_20_1816)" stroke-width="2"/>
<path opacity="0.79798" d="M1430.15 -192.288C1425.55 -199.112 1417.08 -202.196 1409.16 -199.927L838.703 -36.3502C830.791 -34.0813 825.239 -26.9756 824.952 -18.7493L804.241 574.34C803.953 582.566 808.996 590.042 816.731 592.857L1374.39 795.829C1382.13 798.644 1390.79 796.159 1395.86 789.673L1761.23 322.027C1766.29 315.541 1766.61 306.529 1762.01 299.705L1430.15 -192.288Z" stroke="url(#paint78_linear_20_1816)" stroke-width="2"/>
<path opacity="0.808081" d="M1428.05 -192.182C1423.33 -198.925 1414.81 -201.861 1406.93 -199.454L840.681 -26.3333C832.81 -23.9267 827.383 -16.7252 827.239 -8.49514L816.905 583.541C816.762 591.771 821.934 599.157 829.717 601.837L1389.58 794.615C1397.37 797.295 1405.99 794.658 1410.94 788.084L1767.29 315.191C1772.25 308.618 1772.4 299.602 1767.68 292.859L1428.05 -192.182Z" stroke="url(#paint79_linear_20_1816)" stroke-width="2"/>
<path opacity="0.818182" d="M1425.94 -191.918C1421.1 -198.578 1412.52 -201.364 1404.69 -198.82L842.808 -16.2527C834.979 -13.709 829.679 -6.41394 829.679 1.81738L829.679 592.619C829.679 600.85 834.979 608.146 842.808 610.689L1404.69 793.257C1412.52 795.801 1421.1 793.014 1425.94 786.355L1773.2 308.386C1778.04 301.727 1778.04 292.71 1773.2 286.05L1425.94 -191.918Z" stroke="url(#paint80_linear_20_1816)" stroke-width="2"/>
<path opacity="0.828283" d="M1423.8 -191.492C1418.85 -198.065 1410.23 -200.702 1402.44 -198.022L845.083 -6.10694C837.3 -3.42709 832.128 3.95941 832.271 12.1895L842.559 601.577C842.703 609.807 848.13 617.008 856.001 619.415L1419.72 791.762C1427.59 794.168 1436.12 791.232 1440.84 784.49L1778.95 301.618C1783.67 294.876 1783.51 285.86 1778.56 279.286L1423.8 -191.492Z" stroke="url(#paint81_linear_20_1816)" stroke-width="2"/>
<path opacity="0.838384" d="M1421.66 -190.905C1416.59 -197.391 1407.92 -199.877 1400.19 -197.061L847.507 4.09868C839.772 6.91398 834.73 14.3896 835.017 22.6159L855.543 610.41C855.83 618.637 861.382 625.742 869.294 628.011L1434.66 790.128C1442.58 792.397 1451.05 789.313 1455.65 782.489L1784.54 294.888C1789.15 288.064 1788.83 279.052 1783.76 272.566L1421.66 -190.905Z" stroke="url(#paint82_linear_20_1816)" stroke-width="2"/>
<path opacity="0.848485" d="M1419.51 -190.155C1414.33 -196.552 1405.62 -198.886 1397.93 -195.936L850.082 14.3645C842.397 17.3143 837.486 24.8768 837.917 33.0969L868.629 619.121C869.06 627.341 874.735 634.349 882.685 636.479L1449.52 788.361C1457.47 790.492 1465.89 787.26 1470.37 780.357L1789.98 288.201C1794.46 281.298 1793.99 272.293 1788.81 265.896L1419.51 -190.155Z" stroke="url(#paint83_linear_20_1816)" stroke-width="2"/>
<path opacity="0.858586" d="M1417.35 -189.247C1412.06 -195.553 1403.31 -197.734 1395.68 -194.651L852.808 24.6826C845.176 27.7661 840.397 35.4132 840.972 43.6245L881.814 627.702C882.388 635.913 888.185 642.821 896.171 644.812L1464.28 786.458C1472.27 788.45 1480.63 785.072 1484.99 778.091L1795.26 281.556C1799.62 274.575 1799 265.58 1793.7 259.274L1417.35 -189.247Z" stroke="url(#paint84_linear_20_1816)" stroke-width="2"/>
<path opacity="0.868687" d="M1415.19 -188.178C1409.79 -194.39 1401 -196.418 1393.43 -193.202L855.685 35.0549C848.109 38.2711 843.464 46.0005 844.182 54.2005L895.096 636.157C895.814 644.357 901.73 651.162 909.75 653.014L1478.96 784.425C1486.98 786.277 1495.28 782.754 1499.52 775.698L1800.39 274.959C1804.63 267.903 1803.84 258.92 1798.44 252.708L1415.19 -188.178Z" stroke="url(#paint85_linear_20_1816)" stroke-width="2"/>
<path opacity="0.878788" d="M1413.03 -186.947C1407.52 -193.064 1398.7 -194.939 1391.18 -191.591L858.715 45.4778C851.195 48.8258 846.687 56.635 847.547 64.8212L908.472 644.483C909.332 652.669 915.366 659.37 923.418 661.082L1493.54 782.264C1501.59 783.975 1509.82 780.308 1513.94 773.179L1805.37 268.412C1809.48 261.284 1808.54 252.316 1803.03 246.199L1413.03 -186.947Z" stroke="url(#paint86_linear_20_1816)" stroke-width="2"/>
<path opacity="0.888889" d="M1410.87 -185.558C1405.26 -191.578 1396.4 -193.298 1388.94 -189.819L861.898 55.9458C854.438 59.4245 850.066 67.3112 851.069 75.4812L921.94 652.677C922.943 660.847 929.093 667.442 937.173 669.012L1508.02 779.973C1516.1 781.544 1524.27 777.733 1528.26 770.534L1810.19 261.916C1814.18 254.717 1813.09 245.767 1807.47 239.747L1410.87 -185.558Z" stroke="url(#paint87_linear_20_1816)" stroke-width="2"/>
<path opacity="0.89899" d="M1408.72 -184.009C1403 -189.93 1394.12 -191.496 1386.72 -187.887L865.234 66.458C857.836 70.0664 853.603 78.0282 854.748 86.1794L935.497 660.739C936.643 668.89 942.907 675.376 951.013 676.806L1522.4 777.557C1530.51 778.987 1538.61 775.034 1542.48 767.766L1814.87 255.475C1818.73 248.207 1817.48 239.277 1811.76 233.356L1408.72 -184.009Z" stroke="url(#paint88_linear_20_1816)" stroke-width="2"/>
<path opacity="0.909091" d="M1406.57 -182.299C1400.75 -188.119 1391.84 -189.53 1384.51 -185.793L868.724 77.0138C861.389 80.7508 857.296 88.7852 858.583 96.9152L949.14 668.669C950.428 676.799 956.804 683.176 964.934 684.463L1536.69 775.02C1544.82 776.308 1552.85 772.214 1556.59 764.88L1819.4 249.093C1823.13 241.759 1821.72 232.853 1815.9 227.032L1406.57 -182.299Z" stroke="url(#paint89_linear_20_1816)" stroke-width="2"/>
<path opacity="0.919192" d="M1404.44 -180.435C1398.52 -186.152 1389.59 -187.407 1382.32 -183.543L872.367 87.6034C865.1 91.4678 861.147 99.5724 862.576 107.679L962.868 676.461C964.297 684.567 970.784 690.831 978.935 691.977L1550.87 772.357C1559.02 773.503 1566.98 769.269 1570.59 761.871L1823.78 242.767C1827.38 235.368 1825.82 226.488 1819.9 220.77L1404.44 -180.435Z" stroke="url(#paint90_linear_20_1816)" stroke-width="2"/>
<path opacity="0.929293" d="M1402.32 -178.41C1396.3 -184.024 1387.35 -185.123 1380.15 -181.132L876.166 98.2305C868.967 102.221 865.156 110.394 866.726 118.474L976.677 684.119C978.247 692.199 984.842 698.349 993.012 699.352L1564.95 769.577C1573.12 770.58 1581.01 766.208 1584.48 758.748L1828.01 236.504C1831.49 229.044 1829.77 220.193 1823.75 214.579L1402.32 -178.41Z" stroke="url(#paint91_linear_20_1816)" stroke-width="2"/>
<path opacity="0.939394" d="M1400.22 -176.228C1394.1 -181.736 1385.13 -182.679 1378 -178.563L880.119 108.891C872.99 113.006 869.323 121.244 871.034 129.296L990.564 691.64C992.275 699.692 998.977 705.725 1007.16 706.586L1578.92 766.68C1587.11 767.54 1594.92 763.032 1598.26 755.512L1832.1 230.308C1835.45 222.788 1833.57 213.968 1827.46 208.46L1400.22 -176.228Z" stroke="url(#paint92_linear_20_1816)" stroke-width="2"/>
<path opacity="0.949495" d="M1398.13 -173.888C1391.92 -179.288 1382.94 -180.074 1375.88 -175.835L884.227 119.583C877.171 123.822 873.648 132.122 875.5 140.143L1004.53 699.025C1006.38 707.045 1013.18 712.961 1021.38 713.679L1592.79 763.67C1600.99 764.387 1608.71 759.743 1611.93 752.166L1836.05 224.18C1839.26 216.603 1837.24 207.817 1831.02 202.416L1398.13 -173.888Z" stroke="url(#paint93_linear_20_1816)" stroke-width="2"/>
<path opacity="0.959596" d="M1396.07 -171.396C1389.77 -176.687 1380.77 -177.316 1373.79 -172.954L888.49 130.297C881.509 134.659 878.131 143.02 880.123 151.007L1018.56 706.267C1020.56 714.254 1027.46 720.05 1035.67 720.624L1606.54 760.543C1614.75 761.117 1622.4 756.338 1625.48 748.707L1839.85 218.117C1842.94 210.485 1840.76 201.736 1834.45 196.445L1396.07 -171.396Z" stroke="url(#paint94_linear_20_1816)" stroke-width="2"/>
<path opacity="0.969697" d="M1394.04 -168.746C1387.64 -173.926 1378.64 -174.398 1371.73 -169.915L892.909 141.039C886.005 145.522 882.774 153.94 884.904 161.891L1032.67 713.371C1034.8 721.322 1041.81 726.997 1050.03 727.427L1620.18 757.308C1628.4 757.739 1635.97 752.827 1638.92 745.143L1843.52 212.13C1846.47 204.445 1844.14 195.735 1837.74 190.555L1394.04 -168.746Z" stroke="url(#paint95_linear_20_1816)" stroke-width="2"/>
<path opacity="0.979798" d="M1392.03 -165.945C1385.55 -171.013 1376.53 -171.327 1369.71 -166.724L897.482 151.797C890.658 156.4 887.574 164.874 889.843 172.786L1046.85 720.33C1049.12 728.243 1056.22 733.794 1064.45 734.081L1633.71 753.961C1641.94 754.248 1649.41 749.205 1652.23 741.471L1847.05 206.212C1849.86 198.478 1847.38 189.81 1840.89 184.742L1392.03 -165.945Z" stroke="url(#paint96_linear_20_1816)" stroke-width="2"/>
<path opacity="0.989899" d="M1390.06 -162.987C1383.48 -167.941 1374.47 -168.098 1367.72 -163.377L902.212 162.578C895.469 167.299 892.533 175.825 894.94 183.697L1061.09 727.151C1063.5 735.022 1070.7 740.449 1078.93 740.593L1647.13 750.511C1655.36 750.654 1662.74 745.482 1665.42 737.699L1850.44 200.375C1853.12 192.592 1850.48 183.969 1843.91 179.015L1390.06 -162.987Z" stroke="url(#paint97_linear_20_1816)" stroke-width="2"/>
<path d="M1388.11 -159.878C1381.45 -164.716 1372.44 -164.716 1365.78 -159.878L907.096 173.373C900.437 178.211 897.65 186.787 900.194 194.616L1075.39 733.828C1077.94 741.656 1085.23 746.956 1093.46 746.956H1660.43C1668.66 746.956 1675.95 741.656 1678.5 733.828L1853.7 194.616C1856.24 186.787 1853.45 178.211 1846.79 173.373L1388.11 -159.878Z" stroke="url(#paint98_linear_20_1816)" stroke-width="2"/>
</g>
<defs>
<linearGradient id="paint0_linear_20_1816" x1="663.052" y1="473.525" x2="765.263" y2="-253.748" gradientUnits="userSpaceOnUse">
<stop stop-color="white"/>
<stop offset="1" stop-color="white"/>
</linearGradient>
<linearGradient id="paint1_linear_20_1816" x1="676.125" y1="475.967" x2="765.465" y2="-251.648" gradientUnits="userSpaceOnUse">
<stop stop-color="white"/>
<stop offset="1" stop-color="white"/>
</linearGradient>
<linearGradient id="paint2_linear_20_1816" x1="689.189" y1="478.299" x2="765.677" y2="-249.431" gradientUnits="userSpaceOnUse">
<stop stop-color="white"/>
<stop offset="1" stop-color="white"/>
</linearGradient>
<linearGradient id="paint3_linear_20_1816" x1="702.243" y1="480.522" x2="765.901" y2="-247.098" gradientUnits="userSpaceOnUse">
<stop stop-color="white"/>
<stop offset="1" stop-color="white"/>
</linearGradient>
<linearGradient id="paint4_linear_20_1816" x1="715.283" y1="482.634" x2="766.14" y2="-244.649" gradientUnits="userSpaceOnUse">
<stop stop-color="white"/>
<stop offset="1" stop-color="white"/>
</linearGradient>
<linearGradient id="paint5_linear_20_1816" x1="728.309" y1="484.632" x2="766.395" y2="-242.089" gradientUnits="userSpaceOnUse">
<stop stop-color="white"/>
<stop offset="1" stop-color="white"/>
</linearGradient>
<linearGradient id="paint6_linear_20_1816" x1="741.317" y1="486.522" x2="766.668" y2="-239.414" gradientUnits="userSpaceOnUse">
<stop stop-color="white"/>
<stop offset="1" stop-color="white"/>
</linearGradient>
<linearGradient id="paint7_linear_20_1816" x1="754.307" y1="488.304" x2="766.961" y2="-236.623" gradientUnits="userSpaceOnUse">
<stop stop-color="white"/>
<stop offset="1" stop-color="white"/>
</linearGradient>
<linearGradient id="paint8_linear_20_1816" x1="767.277" y1="489.976" x2="767.277" y2="-233.722" gradientUnits="userSpaceOnUse">
<stop stop-color="white"/>
<stop offset="1" stop-color="white"/>
</linearGradient>
<linearGradient id="paint9_linear_20_1816" x1="780.223" y1="491.539" x2="767.617" y2="-230.709" gradientUnits="userSpaceOnUse">
<stop stop-color="white"/>
<stop offset="1" stop-color="white"/>
</linearGradient>
<linearGradient id="paint10_linear_20_1816" x1="793.146" y1="492.997" x2="767.983" y2="-227.582" gradientUnits="userSpaceOnUse">
<stop stop-color="white"/>
<stop offset="1" stop-color="white"/>
</linearGradient>
<linearGradient id="paint11_linear_20_1816" x1="806.042" y1="494.344" x2="768.377" y2="-224.347" gradientUnits="userSpaceOnUse">
<stop stop-color="white"/>
<stop offset="1" stop-color="white"/>
</linearGradient>
<linearGradient id="paint12_linear_20_1816" x1="818.91" y1="495.589" x2="768.801" y2="-220.999" gradientUnits="userSpaceOnUse">
<stop stop-color="white"/>
<stop offset="1" stop-color="white"/>
</linearGradient>
<linearGradient id="paint13_linear_20_1816" x1="831.748" y1="496.727" x2="769.257" y2="-217.542" gradientUnits="userSpaceOnUse">
<stop stop-color="white"/>
<stop offset="1" stop-color="white"/>
</linearGradient>
<linearGradient id="paint14_linear_20_1816" x1="844.554" y1="497.758" x2="769.747" y2="-213.978" gradientUnits="userSpaceOnUse">
<stop stop-color="white"/>
<stop offset="1" stop-color="white"/>
</linearGradient>
<linearGradient id="paint15_linear_20_1816" x1="857.326" y1="498.687" x2="770.273" y2="-210.305" gradientUnits="userSpaceOnUse">
<stop stop-color="white"/>
<stop offset="1" stop-color="white"/>
</linearGradient>
<linearGradient id="paint16_linear_20_1816" x1="870.063" y1="499.514" x2="770.836" y2="-206.524" gradientUnits="userSpaceOnUse">
<stop stop-color="white"/>
<stop offset="1" stop-color="white"/>
</linearGradient>
<linearGradient id="paint17_linear_20_1816" x1="882.762" y1="500.236" x2="771.438" y2="-202.638" gradientUnits="userSpaceOnUse">
<stop stop-color="white"/>
<stop offset="1" stop-color="white"/>
</linearGradient>
<linearGradient id="paint18_linear_20_1816" x1="895.423" y1="500.859" x2="772.082" y2="-198.646" gradientUnits="userSpaceOnUse">
<stop stop-color="white"/>
<stop offset="1" stop-color="white"/>
</linearGradient>
<linearGradient id="paint19_linear_20_1816" x1="908.044" y1="501.377" x2="772.768" y2="-194.554" gradientUnits="userSpaceOnUse">
<stop stop-color="white"/>
<stop offset="1" stop-color="white"/>
</linearGradient>
<linearGradient id="paint20_linear_20_1816" x1="920.621" y1="501.8" x2="773.5" y2="-190.353" gradientUnits="userSpaceOnUse">
<stop stop-color="white"/>
<stop offset="1" stop-color="white"/>
</linearGradient>
<linearGradient id="paint21_linear_20_1816" x1="933.155" y1="502.12" x2="774.278" y2="-186.054" gradientUnits="userSpaceOnUse">
<stop stop-color="white"/>
<stop offset="1" stop-color="white"/>
</linearGradient>
<linearGradient id="paint22_linear_20_1816" x1="945.643" y1="502.345" x2="775.104" y2="-181.65" gradientUnits="userSpaceOnUse">
<stop stop-color="white"/>
<stop offset="1" stop-color="white"/>
</linearGradient>
<linearGradient id="paint23_linear_20_1816" x1="958.083" y1="502.474" x2="775.98" y2="-177.147" gradientUnits="userSpaceOnUse">
<stop stop-color="white"/>
<stop offset="1" stop-color="white"/>
</linearGradient>
<linearGradient id="paint24_linear_20_1816" x1="970.475" y1="502.505" x2="776.907" y2="-172.546" gradientUnits="userSpaceOnUse">
<stop stop-color="white"/>
<stop offset="1" stop-color="white"/>
</linearGradient>
<linearGradient id="paint25_linear_20_1816" x1="982.816" y1="502.44" x2="777.888" y2="-167.848" gradientUnits="userSpaceOnUse">
<stop stop-color="white"/>
<stop offset="1" stop-color="white"/>
</linearGradient>
<linearGradient id="paint26_linear_20_1816" x1="995.105" y1="502.284" x2="778.924" y2="-163.051" gradientUnits="userSpaceOnUse">
<stop stop-color="white"/>
<stop offset="1" stop-color="white"/>
</linearGradient>
<linearGradient id="paint27_linear_20_1816" x1="1007.34" y1="502.035" x2="780.016" y2="-158.159" gradientUnits="userSpaceOnUse">
<stop stop-color="white"/>
<stop offset="1" stop-color="white"/>
</linearGradient>
<linearGradient id="paint28_linear_20_1816" x1="1019.52" y1="501.696" x2="781.167" y2="-153.171" gradientUnits="userSpaceOnUse">
<stop stop-color="white"/>
<stop offset="1" stop-color="white"/>
</linearGradient>
<linearGradient id="paint29_linear_20_1816" x1="1031.64" y1="501.263" x2="782.377" y2="-148.092" gradientUnits="userSpaceOnUse">
<stop stop-color="white"/>
<stop offset="1" stop-color="white"/>
</linearGradient>
<linearGradient id="paint30_linear_20_1816" x1="1043.71" y1="500.745" x2="783.648" y2="-142.919" gradientUnits="userSpaceOnUse">
<stop stop-color="white"/>
<stop offset="1" stop-color="white"/>
</linearGradient>
<linearGradient id="paint31_linear_20_1816" x1="1055.71" y1="500.135" x2="784.983" y2="-137.658" gradientUnits="userSpaceOnUse">
<stop stop-color="white"/>
<stop offset="1" stop-color="white"/>
</linearGradient>
<linearGradient id="paint32_linear_20_1816" x1="1067.65" y1="499.442" x2="786.381" y2="-132.306" gradientUnits="userSpaceOnUse">
<stop stop-color="white"/>
<stop offset="1" stop-color="white"/>
</linearGradient>
<linearGradient id="paint33_linear_20_1816" x1="1079.53" y1="498.661" x2="787.845" y2="-126.866" gradientUnits="userSpaceOnUse">
<stop stop-color="white"/>
<stop offset="1" stop-color="white"/>
</linearGradient>
<linearGradient id="paint34_linear_20_1816" x1="1091.35" y1="497.799" x2="789.377" y2="-121.338" gradientUnits="userSpaceOnUse">
<stop stop-color="white"/>
<stop offset="1" stop-color="white"/>
</linearGradient>
<linearGradient id="paint35_linear_20_1816" x1="1103.1" y1="496.853" x2="790.977" y2="-115.726" gradientUnits="userSpaceOnUse">
<stop stop-color="white"/>
<stop offset="1" stop-color="white"/>
</linearGradient>
<linearGradient id="paint36_linear_20_1816" x1="1114.79" y1="495.826" x2="792.647" y2="-110.028" gradientUnits="userSpaceOnUse">
<stop stop-color="white"/>
<stop offset="1" stop-color="white"/>
</linearGradient>
<linearGradient id="paint37_linear_20_1816" x1="1126.4" y1="494.718" x2="794.388" y2="-104.25" gradientUnits="userSpaceOnUse">
<stop stop-color="white"/>
<stop offset="1" stop-color="white"/>
</linearGradient>
<linearGradient id="paint38_linear_20_1816" x1="1137.95" y1="493.532" x2="796.202" y2="-98.3895" gradientUnits="userSpaceOnUse">
<stop stop-color="white"/>
<stop offset="1" stop-color="white"/>
</linearGradient>
<linearGradient id="paint39_linear_20_1816" x1="1149.42" y1="492.267" x2="798.089" y2="-92.452" gradientUnits="userSpaceOnUse">
<stop stop-color="white"/>
<stop offset="1" stop-color="white"/>
</linearGradient>
<linearGradient id="paint40_linear_20_1816" x1="1160.83" y1="490.929" x2="800.053" y2="-86.4328" gradientUnits="userSpaceOnUse">
<stop stop-color="white"/>
<stop offset="1" stop-color="white"/>
</linearGradient>
<linearGradient id="paint41_linear_20_1816" x1="1172.16" y1="489.515" x2="802.092" y2="-80.3376" gradientUnits="userSpaceOnUse">
<stop stop-color="white"/>
<stop offset="1" stop-color="white"/>
</linearGradient>
<linearGradient id="paint42_linear_20_1816" x1="1183.42" y1="488.028" x2="804.209" y2="-74.1685" gradientUnits="userSpaceOnUse">
<stop stop-color="white"/>
<stop offset="1" stop-color="white"/>
</linearGradient>
<linearGradient id="paint43_linear_20_1816" x1="1194.6" y1="486.471" x2="806.405" y2="-67.9247" gradientUnits="userSpaceOnUse">
<stop stop-color="white"/>
<stop offset="1" stop-color="white"/>
</linearGradient>
<linearGradient id="paint44_linear_20_1816" x1="1205.7" y1="484.844" x2="808.681" y2="-61.6078" gradientUnits="userSpaceOnUse">
<stop stop-color="white"/>
<stop offset="1" stop-color="white"/>
</linearGradient>
<linearGradient id="paint45_linear_20_1816" x1="1216.73" y1="483.148" x2="811.038" y2="-55.2212" gradientUnits="userSpaceOnUse">
<stop stop-color="white"/>
<stop offset="1" stop-color="white"/>
</linearGradient>
<linearGradient id="paint46_linear_20_1816" x1="1227.68" y1="481.384" x2="813.478" y2="-48.7671" gradientUnits="userSpaceOnUse">
<stop stop-color="white"/>
<stop offset="1" stop-color="white"/>
</linearGradient>
<linearGradient id="paint47_linear_20_1816" x1="1238.55" y1="479.555" x2="816" y2="-42.2452" gradientUnits="userSpaceOnUse">
<stop stop-color="white"/>
<stop offset="1" stop-color="white"/>
</linearGradient>
<linearGradient id="paint48_linear_20_1816" x1="1249.33" y1="477.66" x2="818.608" y2="-35.6588" gradientUnits="userSpaceOnUse">
<stop stop-color="white"/>
<stop offset="1" stop-color="white"/>
</linearGradient>
<linearGradient id="paint49_linear_20_1816" x1="1260.04" y1="475.708" x2="821.3" y2="-29.0048" gradientUnits="userSpaceOnUse">
<stop stop-color="white"/>
<stop offset="1" stop-color="white"/>
</linearGradient>
<linearGradient id="paint50_linear_20_1816" x1="1270.66" y1="473.693" x2="824.078" y2="-22.2898" gradientUnits="userSpaceOnUse">
<stop stop-color="white"/>
<stop offset="1" stop-color="white"/>
</linearGradient>
<linearGradient id="paint51_linear_20_1816" x1="1281.2" y1="471.618" x2="826.944" y2="-15.5152" gradientUnits="userSpaceOnUse">
<stop stop-color="white"/>
<stop offset="1" stop-color="white"/>
</linearGradient>
<linearGradient id="paint52_linear_20_1816" x1="1291.66" y1="469.486" x2="829.898" y2="-8.68045" gradientUnits="userSpaceOnUse">
<stop stop-color="white"/>
<stop offset="1" stop-color="white"/>
</linearGradient>
<linearGradient id="paint53_linear_20_1816" x1="1302.03" y1="467.299" x2="832.941" y2="-1.78887" gradientUnits="userSpaceOnUse">
<stop stop-color="white"/>
<stop offset="1" stop-color="white"/>
</linearGradient>
<linearGradient id="paint54_linear_20_1816" x1="1312.31" y1="465.056" x2="836.074" y2="5.15763" gradientUnits="userSpaceOnUse">
<stop stop-color="white"/>
<stop offset="1" stop-color="white"/>
</linearGradient>
<linearGradient id="paint55_linear_20_1816" x1="1322.51" y1="462.762" x2="839.297" y2="12.1597" gradientUnits="userSpaceOnUse">
<stop stop-color="white"/>
<stop offset="1" stop-color="white"/>
</linearGradient>
<linearGradient id="paint56_linear_20_1816" x1="1332.62" y1="460.416" x2="842.612" y2="19.2118" gradientUnits="userSpaceOnUse">
<stop stop-color="white"/>
<stop offset="1" stop-color="white"/>
</linearGradient>
<linearGradient id="paint57_linear_20_1816" x1="1342.64" y1="458.023" x2="846.019" y2="26.3168" gradientUnits="userSpaceOnUse">
<stop stop-color="white"/>
<stop offset="1" stop-color="white"/>
</linearGradient>
<linearGradient id="paint58_linear_20_1816" x1="1352.57" y1="455.58" x2="849.52" y2="33.4689" gradientUnits="userSpaceOnUse">
<stop stop-color="white"/>
<stop offset="1" stop-color="white"/>
</linearGradient>
<linearGradient id="paint59_linear_20_1816" x1="1362.41" y1="453.093" x2="853.113" y2="40.6685" gradientUnits="userSpaceOnUse">
<stop stop-color="white"/>
<stop offset="1" stop-color="white"/>
</linearGradient>
<linearGradient id="paint60_linear_20_1816" x1="1372.17" y1="450.561" x2="856.8" y2="47.9129" gradientUnits="userSpaceOnUse">
<stop stop-color="white"/>
<stop offset="1" stop-color="white"/>
</linearGradient>
<linearGradient id="paint61_linear_20_1816" x1="1381.83" y1="447.987" x2="860.583" y2="55.2019" gradientUnits="userSpaceOnUse">
<stop stop-color="white"/>
<stop offset="1" stop-color="white"/>
</linearGradient>
<linearGradient id="paint62_linear_20_1816" x1="1391.4" y1="445.374" x2="864.461" y2="62.5327" gradientUnits="userSpaceOnUse">
<stop stop-color="white"/>
<stop offset="1" stop-color="white"/>
</linearGradient>
<linearGradient id="paint63_linear_20_1816" x1="1400.87" y1="442.719" x2="868.435" y2="69.9015" gradientUnits="userSpaceOnUse">
<stop stop-color="white"/>
<stop offset="1" stop-color="white"/>
</linearGradient>
<linearGradient id="paint64_linear_20_1816" x1="1410.26" y1="440.029" x2="872.505" y2="77.3099" gradientUnits="userSpaceOnUse">
<stop stop-color="white"/>
<stop offset="1" stop-color="white"/>
</linearGradient>
<linearGradient id="paint65_linear_20_1816" x1="1419.55" y1="437.301" x2="876.672" y2="84.7517" gradientUnits="userSpaceOnUse">
<stop stop-color="white"/>
<stop offset="1" stop-color="white"/>
</linearGradient>
<linearGradient id="paint66_linear_20_1816" x1="1428.75" y1="434.541" x2="880.936" y2="92.2302" gradientUnits="userSpaceOnUse">
<stop stop-color="white"/>
<stop offset="1" stop-color="white"/>
</linearGradient>
<linearGradient id="paint67_linear_20_1816" x1="1437.85" y1="431.748" x2="885.298" y2="99.7403" gradientUnits="userSpaceOnUse">
<stop stop-color="white"/>
<stop offset="1" stop-color="white"/>
</linearGradient>
<linearGradient id="paint68_linear_20_1816" x1="1446.86" y1="428.924" x2="889.759" y2="107.281" gradientUnits="userSpaceOnUse">
<stop stop-color="white"/>
<stop offset="1" stop-color="white"/>
</linearGradient>
<linearGradient id="paint69_linear_20_1816" x1="1455.78" y1="426.075" x2="894.318" y2="114.853" gradientUnits="userSpaceOnUse">
<stop stop-color="white"/>
<stop offset="1" stop-color="white"/>
</linearGradient>
<linearGradient id="paint70_linear_20_1816" x1="1464.6" y1="423.195" x2="898.975" y2="122.449" gradientUnits="userSpaceOnUse">
<stop stop-color="white"/>
<stop offset="1" stop-color="white"/>
</linearGradient>
<linearGradient id="paint71_linear_20_1816" x1="1473.32" y1="420.293" x2="903.732" y2="130.072" gradientUnits="userSpaceOnUse">
<stop stop-color="white"/>
<stop offset="1" stop-color="white"/>
</linearGradient>
<linearGradient id="paint72_linear_20_1816" x1="1481.95" y1="417.366" x2="908.587" y2="137.718" gradientUnits="userSpaceOnUse">
<stop stop-color="white"/>
<stop offset="1" stop-color="white"/>
</linearGradient>
<linearGradient id="paint73_linear_20_1816" x1="1490.49" y1="414.42" x2="913.543" y2="145.387" gradientUnits="userSpaceOnUse">
<stop stop-color="white"/>
<stop offset="1" stop-color="white"/>
</linearGradient>
<linearGradient id="paint74_linear_20_1816" x1="1498.92" y1="411.451" x2="918.598" y2="153.073" gradientUnits="userSpaceOnUse">
<stop stop-color="white"/>
<stop offset="1" stop-color="white"/>
</linearGradient>
<linearGradient id="paint75_linear_20_1816" x1="1507.27" y1="408.466" x2="923.753" y2="160.779" gradientUnits="userSpaceOnUse">
<stop stop-color="white"/>
<stop offset="1" stop-color="white"/>
</linearGradient>
<linearGradient id="paint76_linear_20_1816" x1="1515.51" y1="405.465" x2="929.008" y2="168.502" gradientUnits="userSpaceOnUse">
<stop stop-color="white"/>
<stop offset="1" stop-color="white"/>
</linearGradient>
<linearGradient id="paint77_linear_20_1816" x1="1523.66" y1="402.45" x2="934.362" y2="176.239" gradientUnits="userSpaceOnUse">
<stop stop-color="white"/>
<stop offset="1" stop-color="white"/>
</linearGradient>
<linearGradient id="paint78_linear_20_1816" x1="1531.72" y1="399.42" x2="939.817" y2="183.986" gradientUnits="userSpaceOnUse">
<stop stop-color="white"/>
<stop offset="1" stop-color="white"/>
</linearGradient>
<linearGradient id="paint79_linear_20_1816" x1="1539.67" y1="396.381" x2="945.372" y2="191.747" gradientUnits="userSpaceOnUse">
<stop stop-color="white"/>
<stop offset="1" stop-color="white"/>
</linearGradient>
<linearGradient id="paint80_linear_20_1816" x1="1547.53" y1="393.331" x2="951.027" y2="199.514" gradientUnits="userSpaceOnUse">
<stop stop-color="white"/>
<stop offset="1" stop-color="white"/>
</linearGradient>
<linearGradient id="paint81_linear_20_1816" x1="1555.3" y1="390.274" x2="956.782" y2="207.289" gradientUnits="userSpaceOnUse">
<stop stop-color="white"/>
<stop offset="1" stop-color="white"/>
</linearGradient>
<linearGradient id="paint82_linear_20_1816" x1="1562.97" y1="387.211" x2="962.636" y2="215.069" gradientUnits="userSpaceOnUse">
<stop stop-color="white"/>
<stop offset="1" stop-color="white"/>
</linearGradient>
<linearGradient id="paint83_linear_20_1816" x1="1570.54" y1="384.146" x2="968.591" y2="222.854" gradientUnits="userSpaceOnUse">
<stop stop-color="white"/>
<stop offset="1" stop-color="white"/>
</linearGradient>
<linearGradient id="paint84_linear_20_1816" x1="1578.02" y1="381.076" x2="974.645" y2="230.638" gradientUnits="userSpaceOnUse">
<stop stop-color="white"/>
<stop offset="1" stop-color="white"/>
</linearGradient>
<linearGradient id="paint85_linear_20_1816" x1="1585.4" y1="378.006" x2="980.799" y2="238.424" gradientUnits="userSpaceOnUse">
<stop stop-color="white"/>
<stop offset="1" stop-color="white"/>
</linearGradient>
<linearGradient id="paint86_linear_20_1816" x1="1592.68" y1="374.94" x2="987.051" y2="246.208" gradientUnits="userSpaceOnUse">
<stop stop-color="white"/>
<stop offset="1" stop-color="white"/>
</linearGradient>
<linearGradient id="paint87_linear_20_1816" x1="1599.88" y1="371.874" x2="993.403" y2="253.988" gradientUnits="userSpaceOnUse">
<stop stop-color="white"/>
<stop offset="1" stop-color="white"/>
</linearGradient>
<linearGradient id="paint88_linear_20_1816" x1="1606.97" y1="368.813" x2="999.853" y2="261.762" gradientUnits="userSpaceOnUse">
<stop stop-color="white"/>
<stop offset="1" stop-color="white"/>
</linearGradient>
<linearGradient id="paint89_linear_20_1816" x1="1613.97" y1="365.761" x2="1006.4" y2="269.532" gradientUnits="userSpaceOnUse">
<stop stop-color="white"/>
<stop offset="1" stop-color="white"/>
</linearGradient>
<linearGradient id="paint90_linear_20_1816" x1="1620.88" y1="362.713" x2="1013.05" y2="277.288" gradientUnits="userSpaceOnUse">
<stop stop-color="white"/>
<stop offset="1" stop-color="white"/>
</linearGradient>
<linearGradient id="paint91_linear_20_1816" x1="1627.69" y1="359.676" x2="1019.79" y2="285.036" gradientUnits="userSpaceOnUse">
<stop stop-color="white"/>
<stop offset="1" stop-color="white"/>
</linearGradient>
<linearGradient id="paint92_linear_20_1816" x1="1634.41" y1="356.651" x2="1026.63" y2="292.772" gradientUnits="userSpaceOnUse">
<stop stop-color="white"/>
<stop offset="1" stop-color="white"/>
</linearGradient>
<linearGradient id="paint93_linear_20_1816" x1="1641.03" y1="353.641" x2="1033.57" y2="300.495" gradientUnits="userSpaceOnUse">
<stop stop-color="white"/>
<stop offset="1" stop-color="white"/>
</linearGradient>
<linearGradient id="paint94_linear_20_1816" x1="1647.57" y1="350.642" x2="1040.61" y2="308.199" gradientUnits="userSpaceOnUse">
<stop stop-color="white"/>
<stop offset="1" stop-color="white"/>
</linearGradient>
<linearGradient id="paint95_linear_20_1816" x1="1654.01" y1="347.661" x2="1047.74" y2="315.888" gradientUnits="userSpaceOnUse">
<stop stop-color="white"/>
<stop offset="1" stop-color="white"/>
</linearGradient>
<linearGradient id="paint96_linear_20_1816" x1="1660.36" y1="344.695" x2="1054.96" y2="323.554" gradientUnits="userSpaceOnUse">
<stop stop-color="white"/>
<stop offset="1" stop-color="white"/>
</linearGradient>
<linearGradient id="paint97_linear_20_1816" x1="1666.61" y1="341.752" x2="1062.28" y2="331.203" gradientUnits="userSpaceOnUse">
<stop stop-color="white"/>
<stop offset="1" stop-color="white"/>
</linearGradient>
<linearGradient id="paint98_linear_20_1816" x1="1672.78" y1="338.829" x2="1069.7" y2="338.829" gradientUnits="userSpaceOnUse">
<stop stop-color="white"/>
<stop offset="1" stop-color="white"/>
</linearGradient>
</defs>
</svg>
