<svg width="375" height="1083" viewBox="0 0 375 1083" fill="none" xmlns="http://www.w3.org/2000/svg">
  <g opacity="0.1">
    <path opacity="0.010101" d="M225.478 805.636C231.196 799.715 232.451 790.785 228.587 783.517L-98.5231 168.313C-102.387 161.046 -110.492 157.093 -118.598 158.522L-804.774 279.513C-812.881 280.943 -819.145 287.429 -820.29 295.58L-917.261 985.561C-918.406 993.712 -914.173 1001.67 -906.775 1005.28L-280.53 1310.72C-273.131 1314.33 -264.251 1312.76 -258.533 1306.84L225.478 805.636Z" stroke="url(#paint0_linear_51_2794)" stroke-width="2" />
    <path opacity="0.020202" d="M232.698 797.254C238.312 791.234 239.411 782.284 235.42 775.084L-101.734 166.842C-105.725 159.642 -113.897 155.831 -121.977 157.402L-804.637 290.098C-812.717 291.668 -818.867 298.263 -819.87 306.433L-904.622 996.686C-905.625 1004.86 -901.254 1012.74 -893.794 1016.22L-263.514 1310.13C-256.054 1313.6 -247.202 1311.88 -241.588 1305.86L232.698 797.254Z" stroke="url(#paint1_linear_51_2794)" stroke-width="2" />
    <path opacity="0.030303" d="M239.731 788.886C245.239 782.769 246.181 773.801 242.065 766.673L-104.991 165.554C-109.106 158.426 -117.344 154.758 -125.395 156.469L-804.34 300.783C-812.391 302.495 -818.425 309.196 -819.285 317.382L-891.84 1007.69C-892.7 1015.88 -888.192 1023.69 -880.672 1027.04L-246.569 1309.36C-239.049 1312.7 -230.229 1310.83 -224.721 1304.71L239.731 788.886Z" stroke="url(#paint2_linear_51_2794)" stroke-width="2" />
    <path opacity="0.040404" d="M246.576 780.537C251.976 774.324 252.762 765.341 248.523 758.286L-108.29 164.451C-112.529 157.395 -120.829 153.872 -128.85 155.723L-803.882 311.567C-811.902 313.418 -817.818 320.224 -818.535 328.424L-878.915 1018.58C-879.633 1026.78 -874.989 1034.5 -867.412 1037.72L-229.697 1308.41C-222.12 1311.63 -213.334 1309.6 -207.934 1303.39L246.576 780.537Z" stroke="url(#paint3_linear_51_2794)" stroke-width="2" />
    <path opacity="0.050505" d="M253.234 772.207C258.525 765.901 259.154 756.906 254.792 749.925L-111.627 163.531C-115.989 156.551 -124.35 153.173 -132.337 155.164L-803.261 322.444C-811.248 324.436 -817.044 331.343 -817.618 339.555L-865.852 1029.33C-866.426 1037.54 -861.648 1045.19 -854.016 1048.28L-212.902 1307.3C-205.27 1310.39 -196.521 1308.2 -191.23 1301.9L253.234 772.207Z" stroke="url(#paint4_linear_51_2794)" stroke-width="2" />
    <path opacity="0.0606061" d="M259.707 763.897C264.887 757.5 265.359 748.495 260.876 741.592L-115.001 162.793C-119.484 155.89 -127.902 152.658 -135.853 154.789L-802.476 333.41C-810.427 335.54 -816.101 342.548 -816.532 350.768L-852.651 1039.96C-853.082 1048.18 -848.171 1055.74 -840.486 1058.69L-196.186 1306.02C-188.502 1308.97 -179.792 1306.63 -174.611 1300.24L259.707 763.897Z" stroke="url(#paint5_linear_51_2794)" stroke-width="2" />
    <path opacity="0.0707071" d="M265.994 755.615C271.062 749.128 271.377 740.116 266.774 733.292L-118.406 162.239C-123.009 155.415 -131.483 152.331 -139.395 154.6L-801.526 344.463C-809.438 346.732 -814.99 353.838 -815.277 362.064L-839.317 1050.46C-839.604 1058.68 -834.561 1066.16 -826.826 1068.98L-179.553 1304.56C-171.818 1307.38 -163.15 1304.89 -158.082 1298.41L265.994 755.615Z" stroke="url(#paint6_linear_51_2794)" stroke-width="2" />
    <path opacity="0.0808081" d="M272.098 747.364C277.051 740.79 277.209 731.774 272.487 725.031L-121.841 161.873C-126.562 155.13 -135.088 152.194 -142.96 154.601L-800.409 355.604C-808.281 358.01 -813.708 365.212 -813.851 373.442L-825.85 1060.83C-825.993 1069.06 -820.821 1076.44 -813.038 1079.12L-163.004 1302.95C-155.221 1305.63 -146.598 1302.99 -141.644 1296.42L272.098 747.364Z" stroke="url(#paint7_linear_51_2794)" stroke-width="2" />
    <path opacity="0.0909091" d="M278.017 739.144C282.855 732.485 282.855 723.468 278.017 716.808L-125.301 161.689C-130.139 155.03 -138.715 152.243 -146.543 154.787L-799.125 366.823C-806.954 369.367 -812.254 376.662 -812.254 384.893V1071.06C-812.254 1079.29 -806.954 1086.59 -799.125 1089.13L-146.543 1301.17C-138.715 1303.71 -130.139 1300.92 -125.301 1294.26L278.017 739.144Z" stroke="url(#paint8_linear_51_2794)" stroke-width="2" />
    <path opacity="0.10101" d="M283.754 730.959C288.476 724.216 288.318 715.2 283.365 708.627L-128.783 161.688C-133.737 155.115 -142.36 152.478 -150.143 155.158L-797.673 378.12C-805.455 380.8 -810.628 388.187 -810.484 396.417L-798.532 1081.15C-798.388 1089.38 -792.961 1096.59 -785.09 1098.99L-130.173 1299.22C-122.302 1301.63 -113.776 1298.69 -109.054 1291.95L283.754 730.959Z" stroke="url(#paint9_linear_51_2794)" stroke-width="2" />
    <path opacity="0.111111" d="M289.31 722.816C293.913 715.992 293.599 706.98 288.531 700.494L-132.284 161.875C-137.352 155.389 -146.02 152.904 -153.754 155.719L-796.05 389.495C-803.785 392.311 -808.827 399.786 -808.54 408.013L-784.685 1091.11C-784.398 1099.34 -778.847 1106.44 -770.934 1108.71L-113.896 1297.12C-105.983 1299.38 -97.51 1296.3 -92.9072 1289.48L289.31 722.816Z" stroke="url(#paint10_linear_51_2794)" stroke-width="2" />
    <path opacity="0.121212" d="M294.686 714.712C299.169 707.808 298.697 698.803 293.517 692.407L-135.801 162.244C-140.981 155.847 -149.691 153.513 -157.375 156.463L-794.256 400.939C-801.941 403.889 -806.852 411.451 -806.421 419.671L-770.718 1100.93C-770.287 1109.15 -764.612 1116.16 -756.662 1118.29L-97.715 1294.85C-89.7642 1296.98 -81.3458 1293.75 -76.8627 1286.85L294.686 714.712Z" stroke="url(#paint11_linear_51_2794)" stroke-width="2" />
    <path opacity="0.131313" d="M299.882 706.656C304.244 699.676 303.615 690.68 298.324 684.375L-139.33 162.8C-144.621 156.495 -153.37 154.313 -161.002 157.397L-792.291 412.454C-799.923 415.537 -804.702 423.185 -804.127 431.396L-756.632 1110.6C-756.058 1118.82 -750.262 1125.72 -742.275 1127.71L-81.6325 1292.43C-73.6457 1294.42 -65.285 1291.05 -60.9231 1284.06L299.882 706.656Z" stroke="url(#paint12_linear_51_2794)" stroke-width="2" />
    <path opacity="0.141414" d="M304.899 698.648C309.139 691.593 308.353 682.61 302.953 676.398L-142.867 163.54C-148.268 157.328 -157.054 155.299 -164.631 158.516L-790.153 424.034C-797.73 427.25 -802.375 434.98 -801.657 443.18L-742.431 1120.14C-741.714 1128.34 -735.798 1135.14 -727.777 1136.99L-65.6512 1289.86C-57.6308 1291.71 -49.3304 1288.19 -45.091 1281.13L304.899 698.648Z" stroke="url(#paint13_linear_51_2794)" stroke-width="2" />
    <path opacity="0.151515" d="M309.74 690.69C313.856 683.562 312.913 674.594 307.406 668.477L-146.411 164.462C-151.919 158.345 -160.739 156.471 -168.259 159.819L-787.842 435.675C-795.362 439.023 -799.87 446.832 -799.01 455.018L-728.117 1129.52C-727.256 1137.71 -721.223 1144.41 -713.171 1146.12L-49.7735 1287.13C-41.7221 1288.84 -33.4844 1285.17 -29.3688 1278.04L309.74 690.69Z" stroke="url(#paint14_linear_51_2794)" stroke-width="2" />
    <path opacity="0.161616" d="M314.406 682.788C318.396 675.589 317.297 666.639 311.684 660.619L-149.957 165.57C-155.571 159.55 -164.422 157.829 -171.882 161.308L-785.357 447.376C-792.817 450.854 -797.188 458.741 -796.185 466.911L-713.693 1138.76C-712.689 1146.93 -706.54 1153.52 -698.46 1155.09L-34.0021 1284.25C-25.9221 1285.82 -17.7496 1282.01 -13.759 1274.81L314.406 682.788Z" stroke="url(#paint15_linear_51_2794)" stroke-width="2" />
    <path opacity="0.171717" d="M318.897 674.945C322.761 667.677 321.506 658.747 315.788 652.826L-153.502 166.862C-159.22 160.941 -168.1 159.375 -175.498 162.984L-782.696 459.134C-790.094 462.742 -794.328 470.704 -793.182 478.855L-699.161 1147.85C-698.015 1156 -691.751 1162.49 -683.645 1163.92L-18.3392 1281.23C-10.233 1282.66 -2.12827 1278.7 1.73608 1271.44L318.897 674.945Z" stroke="url(#paint16_linear_51_2794)" stroke-width="2" />
    <path opacity="0.181818" d="M323.214 667.16C326.951 659.826 325.541 650.92 319.72 645.1L-157.043 168.336C-162.863 162.516 -171.77 161.105 -179.104 164.842L-779.861 470.943C-787.194 474.68 -791.288 482.714 -790.001 490.844L-684.526 1156.79C-683.238 1164.92 -676.862 1171.29 -668.732 1172.58L-2.78778 1278.06C5.34218 1279.34 13.3766 1275.25 17.1135 1267.92L323.214 667.16Z" stroke="url(#paint17_linear_51_2794)" stroke-width="2" />
    <path opacity="0.191919" d="M327.361 659.441C330.969 652.042 329.403 643.162 323.482 637.444L-160.576 169.994C-166.497 164.276 -175.427 163.021 -182.695 166.886L-776.848 482.803C-784.116 486.667 -788.069 494.772 -786.64 502.878L-669.788 1165.58C-668.359 1173.68 -661.872 1179.95 -653.721 1181.09L12.6505 1274.74C20.8017 1275.89 28.7635 1271.66 32.3718 1264.26L327.361 659.441Z" stroke="url(#paint18_linear_51_2794)" stroke-width="2" />
    <path opacity="0.20202" d="M331.337 651.784C334.816 644.324 333.095 635.472 327.075 629.858L-164.099 171.831C-170.119 166.217 -179.069 165.118 -186.268 169.109L-773.66 494.705C-780.859 498.696 -784.67 506.868 -783.099 514.948L-654.952 1174.21C-653.382 1182.29 -646.787 1188.44 -638.617 1189.44L27.973 1271.29C36.143 1272.29 44.0297 1267.92 47.5084 1260.46L331.337 651.784Z" stroke="url(#paint19_linear_51_2794)" stroke-width="2" />
    <path opacity="0.212121" d="M335.145 644.201C338.493 636.681 336.618 627.861 330.501 622.353L-167.608 173.854C-173.725 168.346 -182.693 167.404 -189.822 171.519L-770.294 506.655C-777.422 510.771 -781.09 519.009 -779.378 527.06L-640.021 1182.68C-638.31 1190.74 -631.609 1196.77 -623.422 1197.63L43.1773 1267.69C51.3635 1268.55 59.1727 1264.04 62.5206 1256.52L335.145 644.201Z" stroke="url(#paint20_linear_51_2794)" stroke-width="2" />
    <path opacity="0.222222" d="M338.785 636.687C342.002 629.11 339.973 620.324 333.761 614.924L-171.1 176.055C-177.312 170.655 -186.295 169.869 -193.351 174.108L-766.75 518.642C-773.806 522.881 -777.329 531.182 -775.477 539.202L-624.997 1191C-623.145 1199.02 -616.34 1204.94 -608.14 1205.66L58.2614 1263.96C66.4614 1264.68 74.1907 1260.03 77.4069 1252.46L338.785 636.687Z" stroke="url(#paint21_linear_51_2794)" stroke-width="2" />
    <path opacity="0.232323" d="M342.261 629.251C345.344 621.619 343.163 612.869 336.857 607.578L-174.571 178.439C-180.877 173.148 -189.872 172.519 -196.853 176.881L-763.029 530.667C-770.009 535.029 -773.387 543.389 -771.396 551.376L-609.883 1199.17C-607.892 1207.15 -600.984 1212.95 -592.773 1213.52L73.223 1260.1C81.4343 1260.67 89.0814 1255.89 92.1649 1248.26L342.261 629.251Z" stroke="url(#paint22_linear_51_2794)" stroke-width="2" />
    <path opacity="0.242424" d="M345.572 621.892C348.522 614.207 346.188 605.497 339.791 600.317L-178.019 181.002C-184.416 175.822 -193.421 175.35 -200.325 179.833L-759.129 542.725C-766.032 547.208 -769.264 555.627 -767.134 563.577L-594.683 1207.17C-592.553 1215.12 -585.545 1220.8 -577.325 1221.23L88.06 1256.1C96.28 1256.53 103.843 1251.62 106.792 1243.93L345.572 621.892Z" stroke="url(#paint23_linear_51_2794)" stroke-width="2" />
    <path opacity="0.252525" d="M348.722 614.612C351.537 606.877 349.052 598.209 342.565 593.141L-181.441 183.743C-187.927 178.675 -196.939 178.361 -203.763 182.963L-755.051 554.812C-761.875 559.415 -764.959 567.888 -762.69 575.801L-579.399 1215.01C-577.13 1222.93 -570.024 1228.48 -561.798 1228.77L102.77 1251.97C110.997 1252.26 118.472 1247.22 121.288 1239.48L348.722 614.612Z" stroke="url(#paint24_linear_51_2794)" stroke-width="2" />
    <path opacity="0.262626" d="M351.711 607.415C354.391 599.632 351.755 591.009 345.181 586.055L-184.833 186.661C-191.406 181.708 -200.422 181.55 -207.165 186.271L-750.795 566.925C-757.537 571.646 -760.473 580.172 -758.066 588.044L-564.034 1222.69C-561.628 1230.57 -554.426 1235.99 -546.196 1236.14L117.352 1247.72C125.582 1247.86 132.969 1242.69 135.648 1234.91L351.711 607.415Z" stroke="url(#paint25_linear_51_2794)" stroke-width="2" />
    <path opacity="0.272727" d="M354.542 600.306C357.086 592.477 354.3 583.902 347.64 579.063L-188.192 189.759C-194.851 184.92 -203.868 184.92 -210.527 189.759L-746.359 579.063C-753.018 583.902 -755.805 592.478 -753.261 600.306L-548.592 1230.21C-546.048 1238.04 -538.753 1243.34 -530.522 1243.34L131.803 1243.34C140.034 1243.34 147.329 1238.04 149.873 1230.21L354.542 600.306Z" stroke="url(#paint26_linear_51_2794)" stroke-width="2" />
    <path opacity="0.282828" d="M357.217 593.285C359.623 585.413 356.687 576.887 349.945 572.166L-191.515 193.032C-198.257 188.311 -207.273 188.468 -213.847 193.422L-741.745 591.221C-748.319 596.175 -750.955 604.798 -748.275 612.581L-533.075 1237.57C-530.395 1245.35 -523.009 1250.52 -514.779 1250.38L146.121 1238.84C154.351 1238.7 161.552 1233.27 163.959 1225.4L357.217 593.285Z" stroke="url(#paint27_linear_51_2794)" stroke-width="2" />
    <path opacity="0.292929" d="M359.736 586.356C362.005 578.444 358.921 569.97 352.097 565.368L-194.799 196.482C-201.623 191.879 -210.635 192.193 -217.121 197.261L-736.953 603.398C-743.439 608.466 -745.924 617.134 -743.109 624.869L-517.487 1244.76C-514.671 1252.5 -507.196 1257.54 -498.969 1257.25L160.304 1234.23C168.53 1233.94 175.636 1228.39 177.905 1220.48L359.736 586.356Z" stroke="url(#paint28_linear_51_2794)" stroke-width="2" />
    <path opacity="0.30303" d="M362.103 579.519C364.234 571.568 361.002 563.15 354.099 558.666L-198.041 200.103C-204.944 195.62 -213.949 196.092 -220.346 201.272L-731.981 615.585C-738.378 620.766 -740.711 629.476 -737.762 637.16L-501.83 1251.78C-498.88 1259.47 -491.317 1264.38 -483.097 1263.95L174.352 1229.49C182.572 1229.06 189.579 1223.39 191.71 1215.44L362.103 579.519Z" stroke="url(#paint29_linear_51_2794)" stroke-width="2" />
    <path opacity="0.313131" d="M364.32 572.78C366.311 564.794 362.933 556.433 355.952 552.071L-201.238 203.9C-208.218 199.538 -217.214 200.167 -223.519 205.458L-726.831 627.787C-733.136 633.078 -735.318 641.827 -732.234 649.459L-486.108 1258.64C-483.024 1266.28 -475.377 1271.05 -467.166 1270.48L188.26 1224.65C196.471 1224.07 203.379 1218.28 205.37 1210.29L364.32 572.78Z" stroke="url(#paint30_linear_51_2794)" stroke-width="2" />
    <path opacity="0.323232" d="M366.387 566.138C368.239 558.117 364.715 549.817 357.66 545.577L-204.387 207.866C-211.442 203.626 -220.425 204.412 -226.637 209.813L-721.502 639.992C-727.714 645.392 -729.743 654.178 -726.526 661.755L-470.323 1265.33C-467.107 1272.91 -459.378 1277.55 -451.178 1276.84L202.029 1219.69C210.229 1218.97 217.035 1213.05 218.886 1205.03L366.387 566.138Z" stroke="url(#paint31_linear_51_2794)" stroke-width="2" />
    <path opacity="0.333333" d="M368.308 559.599C370.019 551.547 366.351 543.31 359.223 539.194L-207.485 212.005C-214.613 207.89 -223.581 208.832 -229.698 214.34L-715.995 652.204C-722.112 657.712 -723.987 666.532 -720.639 674.052L-454.48 1271.86C-451.132 1279.38 -443.323 1283.88 -435.136 1283.02L215.656 1214.62C223.843 1213.76 230.544 1207.73 232.255 1199.68L368.308 559.599Z" stroke="url(#paint32_linear_51_2794)" stroke-width="2" />
    <path opacity="0.343434" d="M370.084 553.162C371.655 545.082 367.844 536.91 360.645 532.919L-210.528 216.312C-217.728 212.322 -226.678 213.421 -232.698 219.035L-710.31 664.416C-716.33 670.029 -718.051 678.881 -714.572 686.341L-438.58 1278.21C-435.101 1285.67 -427.215 1290.04 -419.045 1289.04L229.14 1209.45C237.31 1208.45 243.905 1202.3 245.476 1194.22L370.084 553.162Z" stroke="url(#paint33_linear_51_2794)" stroke-width="2" />
    <path opacity="0.353535" d="M371.718 546.834C373.147 538.728 369.195 530.623 361.927 526.759L-213.515 220.79C-220.783 216.926 -229.713 218.181 -235.634 223.899L-704.448 676.628C-710.369 682.346 -711.935 691.226 -708.327 698.624L-422.628 1284.39C-419.019 1291.79 -411.058 1296.03 -402.906 1294.88L242.48 1204.18C250.631 1203.03 257.117 1196.77 258.547 1188.66L371.718 546.834Z" stroke="url(#paint34_linear_51_2794)" stroke-width="2" />
    <path opacity="0.363636" d="M373.212 540.612C374.5 532.482 370.406 524.447 363.072 520.711L-216.443 225.433C-223.777 221.696 -232.683 223.107 -238.503 228.927L-698.409 688.832C-704.229 694.653 -705.64 703.559 -701.903 710.893L-406.625 1290.41C-402.888 1297.74 -394.854 1301.84 -386.724 1300.55L255.672 1198.8C263.802 1197.51 270.179 1191.14 271.466 1183.01L373.212 540.612Z" stroke="url(#paint35_linear_51_2794)" stroke-width="2" />
    <path opacity="0.373737" d="M374.567 534.502C375.713 526.351 371.48 518.389 364.081 514.781L-219.307 230.243C-226.706 226.635 -235.586 228.201 -241.304 234.122L-692.193 701.031C-697.91 706.952 -699.165 715.881 -695.301 723.149L-390.577 1296.25C-386.712 1303.52 -378.608 1307.47 -370.501 1306.04L268.717 1193.33C276.823 1191.9 283.087 1185.42 284.233 1177.27L374.567 534.502Z" stroke="url(#paint36_linear_51_2794)" stroke-width="2" />
    <path opacity="0.383838" d="M375.787 528.503C376.79 520.333 372.418 512.447 364.958 508.968L-222.107 235.215C-229.567 231.736 -238.419 233.457 -244.033 239.477L-685.801 713.215C-691.414 719.235 -692.513 728.185 -688.523 735.384L-374.485 1301.92C-370.494 1309.12 -362.322 1312.93 -354.242 1311.36L281.612 1187.77C289.692 1186.19 295.842 1179.6 296.845 1171.43L375.787 528.503Z" stroke="url(#paint37_linear_51_2794)" stroke-width="2" />
    <path opacity="0.393939" d="M376.874 522.621C377.734 514.435 373.225 506.626 365.706 503.278L-224.838 240.351C-232.358 237.003 -241.178 238.877 -246.686 244.995L-679.232 725.386C-684.74 731.503 -685.683 740.471 -681.567 747.599L-358.352 1307.42C-354.236 1314.55 -345.998 1318.22 -337.947 1316.51L294.358 1182.11C302.409 1180.4 308.443 1173.7 309.303 1165.51L376.874 522.621Z" stroke="url(#paint38_linear_51_2794)" stroke-width="2" />
    <path opacity="0.40404" d="M377.828 516.853C378.546 508.653 373.901 500.924 366.325 497.708L-227.499 245.644C-235.076 242.428 -243.862 244.457 -249.262 250.669L-672.49 737.537C-677.89 743.749 -678.676 752.732 -674.436 759.788L-342.182 1312.75C-337.943 1319.81 -329.642 1323.33 -321.622 1321.48L306.95 1176.36C314.97 1174.51 320.886 1167.7 321.604 1159.5L377.828 516.853Z" stroke="url(#paint39_linear_51_2794)" stroke-width="2" />
    <path opacity="0.414141" d="M378.655 511.208C379.229 502.997 374.451 495.35 366.819 492.266L-230.085 251.101C-237.717 248.018 -246.466 250.199 -251.757 256.505L-665.572 749.67C-670.863 755.976 -671.492 764.971 -667.13 771.951L-325.978 1317.91C-321.616 1324.89 -313.255 1328.27 -305.268 1326.28L319.39 1170.53C327.377 1168.54 333.173 1161.63 333.747 1153.42L378.655 511.208Z" stroke="url(#paint40_linear_51_2794)" stroke-width="2" />
    <path opacity="0.424242" d="M379.355 505.683C379.786 497.463 374.875 489.901 367.19 486.951L-232.595 256.715C-240.28 253.765 -248.99 256.099 -254.17 262.496L-658.481 761.779C-663.662 768.176 -664.133 777.181 -659.65 784.084L-309.743 1322.89C-305.26 1329.8 -296.842 1333.03 -288.891 1330.9L331.675 1164.62C339.626 1162.49 345.301 1155.48 345.731 1147.26L379.355 505.683Z" stroke="url(#paint41_linear_51_2794)" stroke-width="2" />
    <path opacity="0.434343" d="M379.931 500.281C380.218 492.055 375.176 484.579 367.441 481.764L-235.027 262.483C-242.762 259.668 -251.43 262.154 -256.497 268.64L-651.218 773.859C-656.286 780.346 -656.6 789.357 -651.998 796.181L-293.481 1327.7C-288.878 1334.53 -280.404 1337.61 -272.492 1335.34L343.804 1158.62C351.717 1156.35 357.268 1149.25 357.556 1141.02L379.931 500.281Z" stroke="url(#paint42_linear_51_2794)" stroke-width="2" />
    <path opacity="0.444444" d="M380.385 495.005C380.529 486.775 375.357 479.388 367.574 476.708L-237.376 268.407C-245.159 265.727 -253.783 268.364 -258.736 274.937L-643.782 785.911C-648.736 792.485 -648.893 801.501 -644.172 808.243L-277.193 1332.34C-272.472 1339.09 -263.946 1342.02 -256.074 1339.62L355.777 1152.55C363.649 1150.15 369.075 1142.95 369.219 1134.72L380.385 495.005Z" stroke="url(#paint43_linear_51_2794)" stroke-width="2" />
    <path opacity="0.454545" d="M380.721 489.857C380.721 481.625 375.42 474.33 367.592 471.787L-239.642 274.484C-247.47 271.941 -256.046 274.727 -260.885 281.387L-636.176 797.931C-641.014 804.59 -641.014 813.607 -636.176 820.266L-260.885 1336.81C-256.046 1343.47 -247.47 1346.26 -239.642 1343.71L367.592 1146.41C375.42 1143.87 380.721 1136.57 380.721 1128.34L380.721 489.857Z" stroke="url(#paint44_linear_51_2794)" stroke-width="2" />
    <path opacity="0.464646" d="M380.94 484.837C380.796 476.607 375.369 469.405 367.498 466.999L-241.821 280.712C-249.692 278.305 -258.218 281.241 -262.94 287.983L-628.399 809.913C-633.12 816.656 -632.963 825.672 -628.009 832.246L-244.557 1341.1C-239.604 1347.68 -230.98 1350.31 -223.197 1347.63L379.248 1140.2C387.031 1137.52 392.203 1130.13 392.06 1121.9L380.94 484.837Z" stroke="url(#paint45_linear_51_2794)" stroke-width="2" />
    <path opacity="0.474747" d="M381.044 479.947C380.757 471.72 375.206 464.615 367.293 462.346L-243.91 287.086C-251.823 284.817 -260.296 287.901 -264.899 294.725L-620.453 821.856C-625.056 828.68 -624.742 837.692 -619.674 844.178L-228.215 1345.22C-223.147 1351.71 -214.479 1354.19 -206.744 1351.38L390.745 1133.91C398.48 1131.1 403.522 1123.62 403.235 1115.39L381.044 479.947Z" stroke="url(#paint46_linear_51_2794)" stroke-width="2" />
    <path opacity="0.484848" d="M381.038 475.19C380.607 466.969 374.933 459.962 366.982 457.831L-245.908 293.608C-253.859 291.478 -262.277 294.709 -266.76 301.612L-612.339 833.757C-616.822 840.661 -616.35 849.666 -611.17 856.063L-211.86 1349.17C-206.68 1355.57 -197.97 1357.9 -190.285 1354.95L402.081 1127.56C409.766 1124.61 414.677 1117.05 414.246 1108.83L381.038 475.19Z" stroke="url(#paint47_linear_51_2794)" stroke-width="2" />
    <path opacity="0.494949" d="M380.923 470.566C380.349 462.354 374.553 455.447 366.566 453.455L-247.812 300.274C-255.798 298.283 -264.159 301.66 -268.521 308.641L-604.058 845.613C-608.42 852.593 -607.791 861.589 -602.5 867.894L-195.496 1352.94C-190.205 1359.25 -181.456 1361.43 -173.824 1358.35L413.256 1121.15C420.888 1118.07 425.666 1110.42 425.092 1102.21L380.923 470.566Z" stroke="url(#paint48_linear_51_2794)" stroke-width="2" />
    <path opacity="0.50505" d="M380.701 466.081C379.984 457.881 374.068 451.076 366.048 449.224L-249.619 307.086C-257.639 305.235 -265.94 308.758 -270.179 315.813L-595.612 857.424C-599.851 864.48 -599.065 873.463 -593.665 879.675L-179.127 1356.55C-173.727 1362.76 -164.94 1364.79 -157.363 1361.57L424.268 1114.68C431.845 1111.47 436.489 1103.74 435.772 1095.54L380.701 466.081Z" stroke="url(#paint49_linear_51_2794)" stroke-width="2" />
    <path opacity="0.515152" d="M380.377 461.733C379.516 453.546 373.482 446.845 365.431 445.134L-251.327 314.038C-259.378 312.327 -267.616 315.994 -271.732 323.123L-587 869.184C-591.116 876.312 -590.173 885.28 -584.665 891.397L-162.754 1359.98C-157.246 1366.09 -148.426 1367.97 -140.906 1364.62L435.118 1108.16C442.637 1104.81 447.146 1097 446.286 1088.82L380.377 461.733Z" stroke="url(#paint50_linear_51_2794)" stroke-width="2" />
    <path opacity="0.525253" d="M379.951 457.522C378.948 449.353 372.798 442.758 364.718 441.187L-252.934 321.128C-261.014 319.557 -269.186 323.368 -273.177 330.567L-578.225 880.889C-582.216 888.088 -581.117 897.038 -575.503 903.058L-146.381 1363.23C-140.768 1369.25 -131.916 1370.98 -124.456 1367.5L445.804 1101.58C453.264 1098.1 457.636 1090.21 456.632 1082.04L379.951 457.522Z" stroke="url(#paint51_linear_51_2794)" stroke-width="2" />
    <path opacity="0.535354" d="M379.427 453.454C378.281 445.303 372.017 438.816 363.911 437.387L-254.438 328.355C-262.544 326.926 -270.649 330.879 -274.513 338.147L-569.288 892.539C-573.153 899.806 -571.898 908.736 -566.18 914.657L-130.012 1366.32C-124.294 1372.24 -115.414 1373.81 -108.016 1370.2L456.326 1094.95C463.724 1091.34 467.957 1083.38 466.812 1075.23L379.427 453.454Z" stroke="url(#paint52_linear_51_2794)" stroke-width="2" />
    <path opacity="0.545455" d="M378.808 449.527C377.52 441.397 371.144 435.021 363.014 433.733L-255.835 335.717C-263.965 334.43 -272 338.523 -275.737 345.857L-560.19 904.129C-563.927 911.463 -562.517 920.37 -556.696 926.19L-113.649 1369.24C-107.829 1375.06 -98.9226 1376.47 -91.5885 1372.73L466.683 1088.28C474.018 1084.54 478.111 1076.51 476.824 1068.38L378.808 449.527Z" stroke="url(#paint53_linear_51_2794)" stroke-width="2" />
    <path opacity="0.555556" d="M378.095 445.743C376.666 437.637 370.179 431.373 362.028 430.227L-257.126 343.211C-265.277 342.065 -273.239 346.299 -276.847 353.697L-550.934 915.658C-554.542 923.056 -552.976 931.936 -547.055 937.654L-97.2959 1371.98C-91.3748 1377.7 -82.4453 1378.95 -75.1775 1375.09L476.875 1081.56C484.143 1077.69 488.096 1069.59 486.667 1061.48L378.095 445.743Z" stroke="url(#paint54_linear_51_2794)" stroke-width="2" />
    <path opacity="0.565657" d="M377.293 442.105C375.722 434.025 369.128 427.876 360.958 426.872L-258.306 350.836C-266.476 349.833 -274.363 354.205 -277.841 361.665L-541.519 927.123C-544.997 934.583 -543.277 943.435 -537.257 949.049L-80.9549 1374.56C-74.9349 1380.17 -65.9849 1381.27 -58.7856 1377.28L486.902 1074.8C494.101 1070.81 497.912 1062.64 496.341 1054.56L377.293 442.105Z" stroke="url(#paint55_linear_51_2794)" stroke-width="2" />
    <path opacity="0.575758" d="M376.404 438.612C374.693 430.56 367.991 424.527 359.805 423.666L-259.374 358.588C-267.56 357.727 -275.369 362.236 -278.717 369.756L-531.947 938.52C-535.295 946.039 -533.42 954.86 -527.303 960.367L-64.629 1376.96C-58.512 1382.47 -49.544 1383.41 -42.4156 1379.3L496.763 1068C503.891 1063.89 507.559 1055.65 505.848 1047.6L376.404 438.612Z" stroke="url(#paint56_linear_51_2794)" stroke-width="2" />
    <path opacity="0.585859" d="M375.43 435.268C373.578 427.248 366.773 421.332 358.573 420.615L-260.328 366.468C-268.528 365.75 -276.257 370.395 -279.473 377.972L-522.221 949.849C-525.437 957.426 -523.409 966.212 -517.196 971.612L-48.3218 1379.2C-42.1095 1384.6 -33.1266 1385.39 -26.071 1381.15L506.457 1061.17C513.513 1056.93 517.036 1048.63 515.184 1040.61L375.43 435.268Z" stroke="url(#paint57_linear_51_2794)" stroke-width="2" />
    <path opacity="0.59596" d="M374.375 432.072C372.384 424.085 365.476 418.289 357.265 417.714L-261.165 374.469C-269.377 373.895 -277.024 378.674 -280.107 386.306L-512.341 961.105C-515.425 968.736 -513.243 977.486 -506.938 982.777L-32.0356 1381.27C-25.73 1386.56 -16.7347 1387.19 -9.75415 1382.83L515.985 1054.31C522.966 1049.94 526.344 1041.58 524.352 1033.6L374.375 432.072Z" stroke="url(#paint58_linear_51_2794)" stroke-width="2" />
    <path opacity="0.606061" d="M373.241 429.025C371.111 421.074 364.103 415.399 355.883 414.969L-261.885 382.593C-270.105 382.162 -277.668 387.073 -280.618 394.758L-502.31 972.286C-505.26 979.97 -502.926 988.68 -496.529 993.86L-15.774 1383.17C-9.37705 1388.35 -0.372132 1388.82 6.53123 1384.34L525.346 1047.41C532.25 1042.93 535.481 1034.51 533.351 1026.56L373.241 429.025Z" stroke="url(#paint59_linear_51_2794)" stroke-width="2" />
    <path opacity="0.616162" d="M372.031 426.129C369.762 418.217 362.657 412.665 354.43 412.378L-262.485 390.835C-270.712 390.547 -278.187 395.59 -281.003 403.325L-492.129 983.389C-494.944 991.124 -492.458 999.792 -485.972 1004.86L0.460344 1384.9C6.94669 1389.97 15.9585 1390.28 22.7825 1385.68L534.54 1040.5C541.365 1035.89 544.449 1027.42 542.18 1019.51L372.031 426.129Z" stroke="url(#paint60_linear_51_2794)" stroke-width="2" />
    <path opacity="0.626263" d="M370.748 423.386C368.342 415.515 361.14 410.088 352.91 409.944L-262.963 399.194C-271.193 399.05 -278.58 404.222 -281.26 412.005L-481.799 994.414C-484.479 1002.2 -481.842 1010.82 -475.269 1015.77L16.6646 1386.47C23.2384 1391.43 32.2543 1391.58 38.997 1386.86L543.568 1033.56C550.31 1028.84 553.246 1020.31 550.84 1012.44L370.748 423.386Z" stroke="url(#paint61_linear_51_2794)" stroke-width="2" />
    <path opacity="0.636364" d="M369.395 420.796C366.852 412.968 359.557 407.668 351.325 407.668L-263.317 407.668C-271.549 407.668 -278.844 412.968 -281.387 420.796L-471.322 1005.36C-473.866 1013.18 -471.079 1021.76 -464.42 1026.6L32.8362 1387.88C39.4954 1392.71 48.5127 1392.71 55.172 1387.88L552.428 1026.6C559.088 1021.76 561.874 1013.18 559.33 1005.36L369.395 420.796Z" stroke="url(#paint62_linear_51_2794)" stroke-width="2" />
    <path opacity="0.646465" d="M367.975 418.358C365.295 410.576 357.909 405.404 349.679 405.547L-263.546 416.251C-271.776 416.395 -278.978 421.822 -281.384 429.693L-460.701 1016.21C-463.108 1024.08 -460.172 1032.61 -453.429 1037.33L48.9714 1389.12C55.7141 1393.84 64.7301 1393.68 71.3039 1388.73L561.121 1019.62C567.695 1014.67 570.332 1006.05 567.652 998.262L367.975 418.358Z" stroke="url(#paint63_linear_51_2794)" stroke-width="2" />
    <path opacity="0.656566" d="M366.49 416.077C363.675 408.342 356.199 403.299 347.973 403.587L-263.648 424.945C-271.874 425.232 -278.98 430.784 -281.249 438.696L-449.937 1026.98C-452.206 1034.89 -449.122 1043.37 -442.298 1047.97L65.0678 1390.19C71.8919 1394.8 80.9037 1394.48 87.39 1389.41L569.648 1012.63C576.134 1007.57 578.619 998.898 575.804 991.163L366.49 416.077Z" stroke="url(#paint64_linear_51_2794)" stroke-width="2" />
    <path opacity="0.666667" d="M364.944 413.948C361.994 406.263 354.431 401.352 346.211 401.783L-263.621 433.743C-271.841 434.174 -278.849 439.848 -280.979 447.799L-439.032 1037.66C-441.162 1045.61 -437.931 1054.03 -431.028 1058.51L81.1227 1391.11C88.026 1395.59 97.0309 1395.12 103.428 1389.94L578.007 1005.63C584.404 1000.45 586.738 991.741 583.788 984.056L364.944 413.948Z" stroke="url(#paint65_linear_51_2794)" stroke-width="2" />
    <path opacity="0.676768" d="M363.339 411.977C360.256 404.345 352.608 399.567 344.397 400.141L-263.463 442.647C-271.674 443.221 -278.582 449.017 -280.573 457.004L-427.987 1048.25C-429.978 1056.24 -426.601 1064.6 -419.62 1068.96L97.1336 1391.86C104.114 1396.22 113.109 1395.59 119.415 1390.3L586.2 998.624C592.506 993.333 594.687 984.584 591.604 976.952L363.339 411.977Z" stroke="url(#paint66_linear_51_2794)" stroke-width="2" />
    <path opacity="0.686869" d="M361.678 410.163C358.462 402.586 350.733 397.941 342.533 398.659L-263.174 451.651C-271.374 452.369 -278.179 458.284 -280.031 466.305L-416.805 1058.74C-418.657 1066.76 -415.134 1075.06 -408.078 1079.3L113.097 1392.46C120.152 1396.69 129.135 1395.91 135.348 1390.51L594.226 991.611C600.438 986.211 602.467 977.425 599.251 969.848L361.678 410.163Z" stroke="url(#paint67_linear_51_2794)" stroke-width="2" />
    <path opacity="0.69697" d="M359.965 408.505C356.617 400.986 348.808 396.477 340.621 397.337L-262.751 460.754C-270.937 461.615 -277.638 467.648 -279.349 475.7L-405.489 1069.14C-407.2 1077.19 -403.532 1085.43 -396.404 1089.54L129.01 1392.89C136.139 1397.01 145.106 1396.06 151.224 1390.56L602.086 984.597C608.203 979.089 610.078 970.269 606.73 962.749L359.965 408.505Z" stroke="url(#paint68_linear_51_2794)" stroke-width="2" />
    <path opacity="0.707071" d="M358.202 407.008C354.723 399.548 346.836 395.177 338.667 396.18L-262.192 469.956C-270.362 470.959 -276.957 477.109 -278.528 485.189L-394.038 1079.44C-395.609 1087.52 -391.798 1095.69 -384.598 1099.68L144.871 1393.17C152.07 1397.16 161.02 1396.06 167.04 1390.45L609.781 977.586C615.801 971.973 617.521 963.121 614.043 955.661L358.202 407.008Z" stroke="url(#paint69_linear_51_2794)" stroke-width="2" />
    <path opacity="0.717172" d="M356.392 405.667C352.783 398.269 344.821 394.036 336.67 395.181L-261.498 479.248C-269.649 480.394 -276.136 486.658 -277.565 494.764L-382.457 1089.63C-383.886 1097.74 -379.933 1105.84 -372.665 1109.71L160.676 1393.29C167.944 1397.16 176.874 1395.9 182.795 1390.18L617.31 970.577C623.231 964.859 624.797 955.979 621.188 948.581L356.392 405.667Z" stroke="url(#paint70_linear_51_2794)" stroke-width="2" />
    <path opacity="0.727273" d="M354.538 404.487C350.801 397.153 342.766 393.059 334.636 394.347L-260.665 488.634C-268.795 489.921 -275.171 496.297 -276.459 504.427L-370.746 1099.73C-372.033 1107.86 -367.939 1115.89 -360.605 1119.63L176.424 1393.26C183.758 1397 192.664 1395.59 198.485 1389.77L624.674 963.578C630.494 957.757 631.905 948.851 628.168 941.517L354.538 404.487Z" stroke="url(#paint71_linear_51_2794)" stroke-width="2" />
    <path opacity="0.737374" d="M352.642 403.466C348.778 396.198 340.673 392.246 332.567 393.675L-259.694 498.107C-267.8 499.536 -274.064 506.022 -275.21 514.174L-358.908 1109.72C-360.054 1117.87 -355.82 1125.83 -348.422 1129.44L192.111 1393.08C199.509 1396.68 208.389 1395.12 214.107 1389.2L631.873 956.587C637.591 950.666 638.846 941.737 634.981 934.469L352.642 403.466Z" stroke="url(#paint72_linear_51_2794)" stroke-width="2" />
    <path opacity="0.747475" d="M350.71 402.607C346.719 395.408 338.546 391.597 330.466 393.167L-258.582 507.667C-266.662 509.237 -272.812 515.832 -273.815 524.002L-346.945 1119.6C-347.948 1127.77 -343.577 1135.66 -336.117 1139.14L207.734 1392.74C215.194 1396.22 224.046 1394.5 229.66 1388.48L638.909 949.612C644.522 943.592 645.621 934.642 641.631 927.443L350.71 402.607Z" stroke="url(#paint73_linear_51_2794)" stroke-width="2" />
    <path opacity="0.757576" d="M348.741 401.905C344.625 394.776 336.388 391.108 328.336 392.82L-257.328 517.307C-265.38 519.018 -271.413 525.719 -272.274 533.905L-334.86 1129.37C-335.721 1137.56 -331.212 1145.37 -323.692 1148.72L223.292 1392.25C230.812 1395.6 239.632 1393.72 245.14 1387.61L645.781 942.65C651.288 936.533 652.231 927.565 648.115 920.436L348.741 401.905Z" stroke="url(#paint74_linear_51_2794)" stroke-width="2" />
    <path opacity="0.767677" d="M346.741 401.365C342.501 394.309 334.201 390.786 326.18 392.638L-255.932 527.029C-263.952 528.881 -269.868 535.686 -270.586 543.886L-322.655 1139.04C-323.372 1147.24 -318.728 1154.97 -311.151 1158.18L238.781 1391.61C246.358 1394.83 255.144 1392.8 260.545 1386.59L652.49 935.708C657.89 929.496 658.676 920.513 654.437 913.457L346.741 401.365Z" stroke="url(#paint75_linear_51_2794)" stroke-width="2" />
    <path opacity="0.777778" d="M344.711 400.987C340.349 394.006 331.988 390.628 324.001 392.62L-254.392 536.829C-262.378 538.821 -268.175 545.728 -268.749 553.94L-310.331 1148.59C-310.905 1156.8 -306.126 1164.45 -298.494 1167.53L254.2 1390.83C261.832 1393.92 270.581 1391.73 275.872 1385.43L659.038 928.789C664.328 922.484 664.957 913.489 660.596 906.508L344.711 400.987Z" stroke="url(#paint76_linear_51_2794)" stroke-width="2" />
    <path opacity="0.787879" d="M342.655 400.77C338.172 393.867 329.753 390.636 321.802 392.766L-252.706 546.705C-260.657 548.836 -266.332 555.843 -266.763 564.063L-297.891 1158.02C-298.322 1166.24 -293.41 1173.81 -285.726 1176.76L269.545 1389.9C277.229 1392.85 285.939 1390.52 291.119 1384.12L665.424 921.896C670.604 915.499 671.076 906.494 666.593 899.591L342.655 400.77Z" stroke="url(#paint77_linear_51_2794)" stroke-width="2" />
    <path opacity="0.79798" d="M340.576 400.712C335.973 393.888 327.499 390.804 319.587 393.073L-250.875 556.65C-258.787 558.919 -264.339 566.024 -264.626 574.251L-285.337 1167.34C-285.624 1175.57 -280.582 1183.04 -272.847 1185.86L284.814 1388.83C292.549 1391.64 301.217 1389.16 306.285 1382.67L671.649 915.027C676.717 908.541 677.032 899.529 672.429 892.705L340.576 400.712Z" stroke="url(#paint78_linear_51_2794)" stroke-width="2" />
    <path opacity="0.808081" d="M338.476 400.818C333.754 394.075 325.228 391.139 317.357 393.546L-248.896 566.667C-256.768 569.073 -262.195 576.275 -262.338 584.505L-272.672 1176.54C-272.816 1184.77 -267.644 1192.16 -259.861 1194.84L300.005 1387.61C307.788 1390.29 316.411 1387.66 321.365 1381.08L677.715 908.191C682.669 901.618 682.827 892.602 678.105 885.859L338.476 400.818Z" stroke="url(#paint79_linear_51_2794)" stroke-width="2" />
    <path opacity="0.818182" d="M336.359 401.082C331.52 394.422 322.944 391.636 315.116 394.18L-246.77 576.747C-254.598 579.291 -259.899 586.586 -259.899 594.817L-259.899 1185.62C-259.899 1193.85 -254.598 1201.15 -246.77 1203.69L315.116 1386.26C322.944 1388.8 331.52 1386.01 336.359 1379.35L683.623 901.386C688.461 894.727 688.461 885.71 683.623 879.05L336.359 401.082Z" stroke="url(#paint80_linear_51_2794)" stroke-width="2" />
    <path opacity="0.828283" d="M334.227 401.508C329.273 394.935 320.65 392.298 312.867 394.978L-244.495 586.893C-252.278 589.573 -257.45 596.959 -257.306 605.189L-247.018 1194.58C-246.875 1202.81 -241.448 1210.01 -233.576 1212.42L330.144 1384.76C338.015 1387.17 346.541 1384.23 351.263 1377.49L689.373 894.618C694.094 887.876 693.937 878.86 688.983 872.286L334.227 401.508Z" stroke="url(#paint81_linear_51_2794)" stroke-width="2" />
    <path opacity="0.838384" d="M332.083 402.095C327.015 395.609 318.347 393.123 310.612 395.939L-242.071 597.099C-249.806 599.914 -254.848 607.39 -254.561 615.616L-234.035 1203.41C-233.747 1211.64 -228.196 1218.74 -220.283 1221.01L345.085 1383.13C352.998 1385.4 361.471 1382.31 366.074 1375.49L694.965 887.888C699.568 881.064 699.253 872.052 694.186 865.566L332.083 402.095Z" stroke="url(#paint82_linear_51_2794)" stroke-width="2" />
    <path opacity="0.848485" d="M329.93 402.845C324.75 396.448 316.04 394.114 308.356 397.064L-239.496 607.364C-247.18 610.314 -252.092 617.877 -251.661 626.097L-220.949 1212.12C-220.518 1220.34 -214.843 1227.35 -206.892 1229.48L359.94 1381.36C367.891 1383.49 376.31 1380.26 380.793 1373.36L700.402 881.201C704.885 874.298 704.413 865.293 699.233 858.896L329.93 402.845Z" stroke="url(#paint83_linear_51_2794)" stroke-width="2" />
    <path opacity="0.858586" d="M327.772 403.753C322.481 397.447 313.732 395.266 306.1 398.349L-236.77 617.683C-244.402 620.766 -249.18 628.413 -248.606 636.624L-207.763 1220.7C-207.189 1228.91 -201.393 1235.82 -193.406 1237.81L374.706 1379.46C382.692 1381.45 391.053 1378.07 395.415 1371.09L705.685 874.556C710.047 867.575 709.418 858.58 704.127 852.274L327.772 403.753Z" stroke="url(#paint84_linear_51_2794)" stroke-width="2" />
    <path opacity="0.868687" d="M325.611 404.822C320.211 398.61 311.425 396.582 303.848 399.798L-233.892 628.055C-241.469 631.271 -246.113 639 -245.396 647.2L-194.481 1229.16C-193.764 1237.36 -187.848 1244.16 -179.828 1246.01L389.379 1377.43C397.399 1379.28 405.7 1375.75 409.939 1368.7L710.814 867.959C715.053 860.903 714.267 851.92 708.867 845.708L325.611 404.822Z" stroke="url(#paint85_linear_51_2794)" stroke-width="2" />
    <path opacity="0.878788" d="M323.449 406.053C317.942 399.936 309.121 398.061 301.602 401.409L-230.863 638.478C-238.382 641.826 -242.891 649.635 -242.03 657.821L-181.106 1237.48C-180.245 1245.67 -174.211 1252.37 -166.16 1254.08L403.958 1375.26C412.009 1376.98 420.247 1373.31 424.363 1366.18L715.79 861.412C719.906 854.284 718.963 845.316 713.455 839.199L323.449 406.053Z" stroke="url(#paint86_linear_51_2794)" stroke-width="2" />
    <path opacity="0.888889" d="M321.291 407.442C315.678 401.422 306.826 399.702 299.366 403.181L-227.68 648.946C-235.14 652.425 -239.511 660.311 -238.508 668.481L-167.637 1245.68C-166.634 1253.85 -160.485 1260.44 -152.404 1262.01L418.441 1372.97C426.522 1374.54 434.694 1370.73 438.685 1363.53L720.616 854.916C724.607 847.717 723.508 838.767 717.894 832.747L321.291 407.442Z" stroke="url(#paint87_linear_51_2794)" stroke-width="2" />
    <path opacity="0.89899" d="M319.138 408.991C313.421 403.07 304.54 401.504 297.142 405.113L-224.344 659.458C-231.742 663.066 -235.975 671.028 -234.83 679.179L-154.08 1253.74C-152.935 1261.89 -146.671 1268.38 -138.565 1269.81L432.826 1370.56C440.933 1371.99 449.037 1368.03 452.902 1360.77L725.292 848.475C729.156 841.207 727.901 832.277 722.183 826.356L319.138 408.991Z" stroke="url(#paint88_linear_51_2794)" stroke-width="2" />
    <path opacity="0.909091" d="M316.994 410.701C311.173 404.881 302.267 403.47 294.933 407.207L-220.854 670.014C-228.188 673.751 -232.282 681.785 -230.994 689.915L-140.437 1261.67C-139.15 1269.8 -132.773 1276.18 -124.643 1277.46L447.111 1368.02C455.241 1369.31 463.275 1365.21 467.012 1357.88L729.819 842.093C733.556 834.759 732.145 825.853 726.325 820.032L316.994 410.701Z" stroke="url(#paint89_linear_51_2794)" stroke-width="2" />
    <path opacity="0.919192" d="M314.861 412.565C308.939 406.848 300.01 405.593 292.742 409.457L-217.21 680.603C-224.478 684.468 -228.431 692.572 -227.002 700.679L-126.71 1269.46C-125.281 1277.57 -118.794 1283.83 -110.643 1284.98L461.293 1365.36C469.444 1366.5 477.406 1362.27 481.014 1354.87L734.199 835.767C737.807 828.368 736.241 819.488 730.32 813.77L314.861 412.565Z" stroke="url(#paint90_linear_51_2794)" stroke-width="2" />
    <path opacity="0.929293" d="M312.742 414.59C306.722 408.976 297.772 407.877 290.572 411.868L-213.412 691.231C-220.611 695.221 -224.422 703.394 -222.851 711.474L-112.901 1277.12C-111.33 1285.2 -104.736 1291.35 -96.5657 1292.35L475.371 1362.58C483.541 1363.58 491.428 1359.21 494.907 1351.75L738.433 829.504C741.912 822.044 740.191 813.193 734.171 807.579L312.742 414.59Z" stroke="url(#paint91_linear_51_2794)" stroke-width="2" />
    <path opacity="0.939394" d="M310.639 416.772C304.522 411.264 295.554 410.321 288.426 414.437L-209.459 701.891C-216.587 706.006 -220.255 714.244 -218.544 722.296L-99.0137 1284.64C-97.3023 1292.69 -90.6011 1298.73 -82.4149 1299.59L489.344 1359.68C497.53 1360.54 505.339 1356.03 508.687 1348.51L742.523 823.308C745.871 815.788 743.996 806.968 737.879 801.46L310.639 416.772Z" stroke="url(#paint92_linear_51_2794)" stroke-width="2" />
    <path opacity="0.949495" d="M308.557 419.112C302.345 413.712 293.362 412.926 286.306 417.165L-205.351 712.583C-212.406 716.822 -215.93 725.122 -214.078 733.143L-85.0498 1292.03C-83.1982 1300.05 -76.3927 1305.96 -68.1928 1306.68L503.208 1356.67C511.408 1357.39 519.137 1352.74 522.353 1345.17L746.47 817.18C749.686 809.603 747.658 800.817 741.446 795.416L308.557 419.112Z" stroke="url(#paint93_linear_51_2794)" stroke-width="2" />
    <path opacity="0.959596" d="M306.497 421.604C300.191 416.313 291.196 415.684 284.215 420.046L-201.088 723.297C-208.068 727.659 -211.446 736.02 -209.455 744.007L-71.0129 1299.27C-69.0216 1307.25 -62.1139 1313.05 -53.9027 1313.62L516.962 1353.54C525.173 1354.12 532.821 1349.34 535.904 1341.71L750.276 811.117C753.359 803.485 751.178 794.736 744.872 789.445L306.497 421.604Z" stroke="url(#paint94_linear_51_2794)" stroke-width="2" />
    <path opacity="0.969697" d="M304.462 424.254C298.065 419.074 289.06 418.602 282.157 423.085L-196.669 734.039C-203.572 738.522 -206.804 746.94 -204.673 754.891L-56.9049 1306.37C-54.7744 1314.32 -47.7666 1320 -39.5467 1320.43L530.605 1350.31C538.825 1350.74 546.388 1345.83 549.338 1338.14L753.942 805.13C756.892 797.445 754.558 788.735 748.161 783.555L304.462 424.254Z" stroke="url(#paint95_linear_51_2794)" stroke-width="2" />
    <path opacity="0.979798" d="M302.455 427.055C295.968 421.987 286.957 421.673 280.133 426.276L-192.095 744.797C-198.919 749.4 -202.003 757.874 -199.735 765.786L-42.7289 1313.33C-40.46 1321.24 -33.3542 1326.79 -25.128 1327.08L544.135 1346.96C552.361 1347.25 559.837 1342.21 562.652 1334.47L757.47 799.212C760.285 791.478 757.8 782.81 751.313 777.742L302.455 427.055Z" stroke="url(#paint96_linear_51_2794)" stroke-width="2" />
    <path opacity="0.989899" d="M300.479 430.013C293.905 425.059 284.889 424.902 278.146 429.623L-187.366 755.578C-194.109 760.299 -197.044 768.825 -194.638 776.697L-28.4872 1320.15C-26.0806 1328.02 -18.8791 1333.45 -10.649 1333.59L557.55 1343.51C565.78 1343.65 573.166 1338.48 575.846 1330.7L760.862 793.375C763.542 785.592 760.905 776.969 754.331 772.015L300.479 430.013Z" stroke="url(#paint97_linear_51_2794)" stroke-width="2" />
    <path d="M298.535 433.122C291.876 428.284 282.859 428.284 276.199 433.122L-182.482 766.373C-189.141 771.211 -191.927 779.787 -189.384 787.616L-14.1832 1326.83C-11.6396 1334.66 -4.34448 1339.96 3.88678 1339.96H570.848C579.079 1339.96 586.374 1334.66 588.918 1326.83L764.118 787.616C766.662 779.787 763.875 771.211 757.216 766.373L298.535 433.122Z" stroke="url(#paint98_linear_51_2794)" stroke-width="2" />
  </g>
  <defs>
    <linearGradient id="paint0_linear_51_2794" x1="-426.526" y1="1066.52" x2="-324.315" y2="339.252" gradientUnits="userSpaceOnUse">
      <stop stop-color="white" />
      <stop offset="1" stop-color="white" />
    </linearGradient>
    <linearGradient id="paint1_linear_51_2794" x1="-413.453" y1="1068.97" x2="-324.113" y2="341.352" gradientUnits="userSpaceOnUse">
      <stop stop-color="white" />
      <stop offset="1" stop-color="white" />
    </linearGradient>
    <linearGradient id="paint2_linear_51_2794" x1="-400.388" y1="1071.3" x2="-323.901" y2="343.569" gradientUnits="userSpaceOnUse">
      <stop stop-color="white" />
      <stop offset="1" stop-color="white" />
    </linearGradient>
    <linearGradient id="paint3_linear_51_2794" x1="-387.335" y1="1073.52" x2="-323.676" y2="345.902" gradientUnits="userSpaceOnUse">
      <stop stop-color="white" />
      <stop offset="1" stop-color="white" />
    </linearGradient>
    <linearGradient id="paint4_linear_51_2794" x1="-374.294" y1="1075.63" x2="-323.438" y2="348.351" gradientUnits="userSpaceOnUse">
      <stop stop-color="white" />
      <stop offset="1" stop-color="white" />
    </linearGradient>
    <linearGradient id="paint5_linear_51_2794" x1="-361.269" y1="1077.63" x2="-323.183" y2="350.911" gradientUnits="userSpaceOnUse">
      <stop stop-color="white" />
      <stop offset="1" stop-color="white" />
    </linearGradient>
    <linearGradient id="paint6_linear_51_2794" x1="-348.26" y1="1079.52" x2="-322.91" y2="353.586" gradientUnits="userSpaceOnUse">
      <stop stop-color="white" />
      <stop offset="1" stop-color="white" />
    </linearGradient>
    <linearGradient id="paint7_linear_51_2794" x1="-335.27" y1="1081.3" x2="-322.616" y2="356.377" gradientUnits="userSpaceOnUse">
      <stop stop-color="white" />
      <stop offset="1" stop-color="white" />
    </linearGradient>
    <linearGradient id="paint8_linear_51_2794" x1="-322.301" y1="1082.98" x2="-322.301" y2="359.278" gradientUnits="userSpaceOnUse">
      <stop stop-color="white" />
      <stop offset="1" stop-color="white" />
    </linearGradient>
    <linearGradient id="paint9_linear_51_2794" x1="-309.354" y1="1084.54" x2="-321.961" y2="362.291" gradientUnits="userSpaceOnUse">
      <stop stop-color="white" />
      <stop offset="1" stop-color="white" />
    </linearGradient>
    <linearGradient id="paint10_linear_51_2794" x1="-296.432" y1="1086" x2="-321.595" y2="365.418" gradientUnits="userSpaceOnUse">
      <stop stop-color="white" />
      <stop offset="1" stop-color="white" />
    </linearGradient>
    <linearGradient id="paint11_linear_51_2794" x1="-283.536" y1="1087.34" x2="-321.201" y2="368.653" gradientUnits="userSpaceOnUse">
      <stop stop-color="white" />
      <stop offset="1" stop-color="white" />
    </linearGradient>
    <linearGradient id="paint12_linear_51_2794" x1="-270.668" y1="1088.59" x2="-320.777" y2="372.001" gradientUnits="userSpaceOnUse">
      <stop stop-color="white" />
      <stop offset="1" stop-color="white" />
    </linearGradient>
    <linearGradient id="paint13_linear_51_2794" x1="-257.83" y1="1089.73" x2="-320.321" y2="375.458" gradientUnits="userSpaceOnUse">
      <stop stop-color="white" />
      <stop offset="1" stop-color="white" />
    </linearGradient>
    <linearGradient id="paint14_linear_51_2794" x1="-245.024" y1="1090.76" x2="-319.831" y2="379.022" gradientUnits="userSpaceOnUse">
      <stop stop-color="white" />
      <stop offset="1" stop-color="white" />
    </linearGradient>
    <linearGradient id="paint15_linear_51_2794" x1="-232.252" y1="1091.69" x2="-319.305" y2="382.695" gradientUnits="userSpaceOnUse">
      <stop stop-color="white" />
      <stop offset="1" stop-color="white" />
    </linearGradient>
    <linearGradient id="paint16_linear_51_2794" x1="-219.515" y1="1092.51" x2="-318.742" y2="386.476" gradientUnits="userSpaceOnUse">
      <stop stop-color="white" />
      <stop offset="1" stop-color="white" />
    </linearGradient>
    <linearGradient id="paint17_linear_51_2794" x1="-206.815" y1="1093.24" x2="-318.14" y2="390.362" gradientUnits="userSpaceOnUse">
      <stop stop-color="white" />
      <stop offset="1" stop-color="white" />
    </linearGradient>
    <linearGradient id="paint18_linear_51_2794" x1="-194.154" y1="1093.86" x2="-317.496" y2="394.354" gradientUnits="userSpaceOnUse">
      <stop stop-color="white" />
      <stop offset="1" stop-color="white" />
    </linearGradient>
    <linearGradient id="paint19_linear_51_2794" x1="-181.534" y1="1094.38" x2="-316.809" y2="398.446" gradientUnits="userSpaceOnUse">
      <stop stop-color="white" />
      <stop offset="1" stop-color="white" />
    </linearGradient>
    <linearGradient id="paint20_linear_51_2794" x1="-168.956" y1="1094.8" x2="-316.078" y2="402.647" gradientUnits="userSpaceOnUse">
      <stop stop-color="white" />
      <stop offset="1" stop-color="white" />
    </linearGradient>
    <linearGradient id="paint21_linear_51_2794" x1="-156.423" y1="1095.12" x2="-315.3" y2="406.946" gradientUnits="userSpaceOnUse">
      <stop stop-color="white" />
      <stop offset="1" stop-color="white" />
    </linearGradient>
    <linearGradient id="paint22_linear_51_2794" x1="-143.935" y1="1095.35" x2="-314.474" y2="411.35" gradientUnits="userSpaceOnUse">
      <stop stop-color="white" />
      <stop offset="1" stop-color="white" />
    </linearGradient>
    <linearGradient id="paint23_linear_51_2794" x1="-131.494" y1="1095.47" x2="-313.598" y2="415.853" gradientUnits="userSpaceOnUse">
      <stop stop-color="white" />
      <stop offset="1" stop-color="white" />
    </linearGradient>
    <linearGradient id="paint24_linear_51_2794" x1="-119.103" y1="1095.5" x2="-312.67" y2="420.454" gradientUnits="userSpaceOnUse">
      <stop stop-color="white" />
      <stop offset="1" stop-color="white" />
    </linearGradient>
    <linearGradient id="paint25_linear_51_2794" x1="-106.762" y1="1095.44" x2="-311.689" y2="425.152" gradientUnits="userSpaceOnUse">
      <stop stop-color="white" />
      <stop offset="1" stop-color="white" />
    </linearGradient>
    <linearGradient id="paint26_linear_51_2794" x1="-94.4731" y1="1095.28" x2="-310.654" y2="429.949" gradientUnits="userSpaceOnUse">
      <stop stop-color="white" />
      <stop offset="1" stop-color="white" />
    </linearGradient>
    <linearGradient id="paint27_linear_51_2794" x1="-82.2385" y1="1095.03" x2="-309.561" y2="434.841" gradientUnits="userSpaceOnUse">
      <stop stop-color="white" />
      <stop offset="1" stop-color="white" />
    </linearGradient>
    <linearGradient id="paint28_linear_51_2794" x1="-70.0591" y1="1094.7" x2="-308.411" y2="439.829" gradientUnits="userSpaceOnUse">
      <stop stop-color="white" />
      <stop offset="1" stop-color="white" />
    </linearGradient>
    <linearGradient id="paint29_linear_51_2794" x1="-57.9362" y1="1094.26" x2="-307.2" y2="444.908" gradientUnits="userSpaceOnUse">
      <stop stop-color="white" />
      <stop offset="1" stop-color="white" />
    </linearGradient>
    <linearGradient id="paint30_linear_51_2794" x1="-45.8721" y1="1093.74" x2="-305.929" y2="450.081" gradientUnits="userSpaceOnUse">
      <stop stop-color="white" />
      <stop offset="1" stop-color="white" />
    </linearGradient>
    <linearGradient id="paint31_linear_51_2794" x1="-33.8676" y1="1093.14" x2="-304.595" y2="455.342" gradientUnits="userSpaceOnUse">
      <stop stop-color="white" />
      <stop offset="1" stop-color="white" />
    </linearGradient>
    <linearGradient id="paint32_linear_51_2794" x1="-21.9245" y1="1092.44" x2="-303.197" y2="460.694" gradientUnits="userSpaceOnUse">
      <stop stop-color="white" />
      <stop offset="1" stop-color="white" />
    </linearGradient>
    <linearGradient id="paint33_linear_51_2794" x1="-10.0439" y1="1091.66" x2="-301.732" y2="466.134" gradientUnits="userSpaceOnUse">
      <stop stop-color="white" />
      <stop offset="1" stop-color="white" />
    </linearGradient>
    <linearGradient id="paint34_linear_51_2794" x1="1.77255" y1="1090.8" x2="-300.201" y2="471.662" gradientUnits="userSpaceOnUse">
      <stop stop-color="white" />
      <stop offset="1" stop-color="white" />
    </linearGradient>
    <linearGradient id="paint35_linear_51_2794" x1="13.5237" y1="1089.85" x2="-298.601" y2="477.274" gradientUnits="userSpaceOnUse">
      <stop stop-color="white" />
      <stop offset="1" stop-color="white" />
    </linearGradient>
    <linearGradient id="paint36_linear_51_2794" x1="25.2077" y1="1088.83" x2="-296.931" y2="482.972" gradientUnits="userSpaceOnUse">
      <stop stop-color="white" />
      <stop offset="1" stop-color="white" />
    </linearGradient>
    <linearGradient id="paint37_linear_51_2794" x1="36.8234" y1="1087.72" x2="-295.19" y2="488.75" gradientUnits="userSpaceOnUse">
      <stop stop-color="white" />
      <stop offset="1" stop-color="white" />
    </linearGradient>
    <linearGradient id="paint38_linear_51_2794" x1="48.3705" y1="1086.53" x2="-293.376" y2="494.61" gradientUnits="userSpaceOnUse">
      <stop stop-color="white" />
      <stop offset="1" stop-color="white" />
    </linearGradient>
    <linearGradient id="paint39_linear_51_2794" x1="59.8461" y1="1085.27" x2="-291.488" y2="500.548" gradientUnits="userSpaceOnUse">
      <stop stop-color="white" />
      <stop offset="1" stop-color="white" />
    </linearGradient>
    <linearGradient id="paint40_linear_51_2794" x1="71.2506" y1="1083.93" x2="-289.525" y2="506.567" gradientUnits="userSpaceOnUse">
      <stop stop-color="white" />
      <stop offset="1" stop-color="white" />
    </linearGradient>
    <linearGradient id="paint41_linear_51_2794" x1="82.5814" y1="1082.52" x2="-287.485" y2="512.662" gradientUnits="userSpaceOnUse">
      <stop stop-color="white" />
      <stop offset="1" stop-color="white" />
    </linearGradient>
    <linearGradient id="paint42_linear_51_2794" x1="93.8379" y1="1081.03" x2="-285.369" y2="518.832" gradientUnits="userSpaceOnUse">
      <stop stop-color="white" />
      <stop offset="1" stop-color="white" />
    </linearGradient>
    <linearGradient id="paint43_linear_51_2794" x1="105.019" y1="1079.47" x2="-283.173" y2="525.075" gradientUnits="userSpaceOnUse">
      <stop stop-color="white" />
      <stop offset="1" stop-color="white" />
    </linearGradient>
    <linearGradient id="paint44_linear_51_2794" x1="116.124" y1="1077.84" x2="-280.897" y2="531.392" gradientUnits="userSpaceOnUse">
      <stop stop-color="white" />
      <stop offset="1" stop-color="white" />
    </linearGradient>
    <linearGradient id="paint45_linear_51_2794" x1="127.151" y1="1076.15" x2="-278.539" y2="537.779" gradientUnits="userSpaceOnUse">
      <stop stop-color="white" />
      <stop offset="1" stop-color="white" />
    </linearGradient>
    <linearGradient id="paint46_linear_51_2794" x1="138.099" y1="1074.38" x2="-276.1" y2="544.233" gradientUnits="userSpaceOnUse">
      <stop stop-color="white" />
      <stop offset="1" stop-color="white" />
    </linearGradient>
    <linearGradient id="paint47_linear_51_2794" x1="148.968" y1="1072.55" x2="-273.577" y2="550.755" gradientUnits="userSpaceOnUse">
      <stop stop-color="white" />
      <stop offset="1" stop-color="white" />
    </linearGradient>
    <linearGradient id="paint48_linear_51_2794" x1="159.756" y1="1070.66" x2="-270.97" y2="557.341" gradientUnits="userSpaceOnUse">
      <stop stop-color="white" />
      <stop offset="1" stop-color="white" />
    </linearGradient>
    <linearGradient id="paint49_linear_51_2794" x1="170.462" y1="1068.71" x2="-268.278" y2="563.995" gradientUnits="userSpaceOnUse">
      <stop stop-color="white" />
      <stop offset="1" stop-color="white" />
    </linearGradient>
    <linearGradient id="paint50_linear_51_2794" x1="181.085" y1="1066.69" x2="-265.499" y2="570.71" gradientUnits="userSpaceOnUse">
      <stop stop-color="white" />
      <stop offset="1" stop-color="white" />
    </linearGradient>
    <linearGradient id="paint51_linear_51_2794" x1="191.625" y1="1064.62" x2="-262.633" y2="577.485" gradientUnits="userSpaceOnUse">
      <stop stop-color="white" />
      <stop offset="1" stop-color="white" />
    </linearGradient>
    <linearGradient id="paint52_linear_51_2794" x1="202.081" y1="1062.49" x2="-259.68" y2="584.32" gradientUnits="userSpaceOnUse">
      <stop stop-color="white" />
      <stop offset="1" stop-color="white" />
    </linearGradient>
    <linearGradient id="paint53_linear_51_2794" x1="212.451" y1="1060.3" x2="-256.636" y2="591.211" gradientUnits="userSpaceOnUse">
      <stop stop-color="white" />
      <stop offset="1" stop-color="white" />
    </linearGradient>
    <linearGradient id="paint54_linear_51_2794" x1="222.735" y1="1058.06" x2="-253.504" y2="598.158" gradientUnits="userSpaceOnUse">
      <stop stop-color="white" />
      <stop offset="1" stop-color="white" />
    </linearGradient>
    <linearGradient id="paint55_linear_51_2794" x1="232.932" y1="1055.76" x2="-250.28" y2="605.16" gradientUnits="userSpaceOnUse">
      <stop stop-color="white" />
      <stop offset="1" stop-color="white" />
    </linearGradient>
    <linearGradient id="paint56_linear_51_2794" x1="243.042" y1="1053.42" x2="-246.965" y2="612.212" gradientUnits="userSpaceOnUse">
      <stop stop-color="white" />
      <stop offset="1" stop-color="white" />
    </linearGradient>
    <linearGradient id="paint57_linear_51_2794" x1="253.062" y1="1051.02" x2="-243.558" y2="619.317" gradientUnits="userSpaceOnUse">
      <stop stop-color="white" />
      <stop offset="1" stop-color="white" />
    </linearGradient>
    <linearGradient id="paint58_linear_51_2794" x1="262.995" y1="1048.58" x2="-240.058" y2="626.469" gradientUnits="userSpaceOnUse">
      <stop stop-color="white" />
      <stop offset="1" stop-color="white" />
    </linearGradient>
    <linearGradient id="paint59_linear_51_2794" x1="272.837" y1="1046.09" x2="-236.465" y2="633.669" gradientUnits="userSpaceOnUse">
      <stop stop-color="white" />
      <stop offset="1" stop-color="white" />
    </linearGradient>
    <linearGradient id="paint60_linear_51_2794" x1="282.588" y1="1043.56" x2="-232.777" y2="640.913" gradientUnits="userSpaceOnUse">
      <stop stop-color="white" />
      <stop offset="1" stop-color="white" />
    </linearGradient>
    <linearGradient id="paint61_linear_51_2794" x1="292.249" y1="1040.99" x2="-228.995" y2="648.202" gradientUnits="userSpaceOnUse">
      <stop stop-color="white" />
      <stop offset="1" stop-color="white" />
    </linearGradient>
    <linearGradient id="paint62_linear_51_2794" x1="301.819" y1="1038.37" x2="-225.117" y2="655.533" gradientUnits="userSpaceOnUse">
      <stop stop-color="white" />
      <stop offset="1" stop-color="white" />
    </linearGradient>
    <linearGradient id="paint63_linear_51_2794" x1="311.296" y1="1035.72" x2="-221.143" y2="662.902" gradientUnits="userSpaceOnUse">
      <stop stop-color="white" />
      <stop offset="1" stop-color="white" />
    </linearGradient>
    <linearGradient id="paint64_linear_51_2794" x1="320.68" y1="1033.03" x2="-217.073" y2="670.31" gradientUnits="userSpaceOnUse">
      <stop stop-color="white" />
      <stop offset="1" stop-color="white" />
    </linearGradient>
    <linearGradient id="paint65_linear_51_2794" x1="329.972" y1="1030.3" x2="-212.906" y2="677.752" gradientUnits="userSpaceOnUse">
      <stop stop-color="white" />
      <stop offset="1" stop-color="white" />
    </linearGradient>
    <linearGradient id="paint66_linear_51_2794" x1="339.17" y1="1027.54" x2="-208.641" y2="685.23" gradientUnits="userSpaceOnUse">
      <stop stop-color="white" />
      <stop offset="1" stop-color="white" />
    </linearGradient>
    <linearGradient id="paint67_linear_51_2794" x1="348.274" y1="1024.75" x2="-204.279" y2="692.74" gradientUnits="userSpaceOnUse">
      <stop stop-color="white" />
      <stop offset="1" stop-color="white" />
    </linearGradient>
    <linearGradient id="paint68_linear_51_2794" x1="357.284" y1="1021.92" x2="-199.819" y2="700.281" gradientUnits="userSpaceOnUse">
      <stop stop-color="white" />
      <stop offset="1" stop-color="white" />
    </linearGradient>
    <linearGradient id="paint69_linear_51_2794" x1="366.199" y1="1019.07" x2="-195.26" y2="707.853" gradientUnits="userSpaceOnUse">
      <stop stop-color="white" />
      <stop offset="1" stop-color="white" />
    </linearGradient>
    <linearGradient id="paint70_linear_51_2794" x1="375.019" y1="1016.2" x2="-190.603" y2="715.449" gradientUnits="userSpaceOnUse">
      <stop stop-color="white" />
      <stop offset="1" stop-color="white" />
    </linearGradient>
    <linearGradient id="paint71_linear_51_2794" x1="383.745" y1="1013.29" x2="-185.846" y2="723.072" gradientUnits="userSpaceOnUse">
      <stop stop-color="white" />
      <stop offset="1" stop-color="white" />
    </linearGradient>
    <linearGradient id="paint72_linear_51_2794" x1="392.374" y1="1010.37" x2="-180.99" y2="730.718" gradientUnits="userSpaceOnUse">
      <stop stop-color="white" />
      <stop offset="1" stop-color="white" />
    </linearGradient>
    <linearGradient id="paint73_linear_51_2794" x1="400.908" y1="1007.42" x2="-176.035" y2="738.387" gradientUnits="userSpaceOnUse">
      <stop stop-color="white" />
      <stop offset="1" stop-color="white" />
    </linearGradient>
    <linearGradient id="paint74_linear_51_2794" x1="409.346" y1="1004.45" x2="-170.98" y2="746.073" gradientUnits="userSpaceOnUse">
      <stop stop-color="white" />
      <stop offset="1" stop-color="white" />
    </linearGradient>
    <linearGradient id="paint75_linear_51_2794" x1="417.688" y1="1001.47" x2="-165.825" y2="753.779" gradientUnits="userSpaceOnUse">
      <stop stop-color="white" />
      <stop offset="1" stop-color="white" />
    </linearGradient>
    <linearGradient id="paint76_linear_51_2794" x1="425.934" y1="998.465" x2="-160.57" y2="761.502" gradientUnits="userSpaceOnUse">
      <stop stop-color="white" />
      <stop offset="1" stop-color="white" />
    </linearGradient>
    <linearGradient id="paint77_linear_51_2794" x1="434.084" y1="995.45" x2="-155.215" y2="769.239" gradientUnits="userSpaceOnUse">
      <stop stop-color="white" />
      <stop offset="1" stop-color="white" />
    </linearGradient>
    <linearGradient id="paint78_linear_51_2794" x1="442.138" y1="992.42" x2="-149.76" y2="776.986" gradientUnits="userSpaceOnUse">
      <stop stop-color="white" />
      <stop offset="1" stop-color="white" />
    </linearGradient>
    <linearGradient id="paint79_linear_51_2794" x1="450.095" y1="989.381" x2="-144.205" y2="784.747" gradientUnits="userSpaceOnUse">
      <stop stop-color="white" />
      <stop offset="1" stop-color="white" />
    </linearGradient>
    <linearGradient id="paint80_linear_51_2794" x1="457.957" y1="986.331" x2="-138.55" y2="792.514" gradientUnits="userSpaceOnUse">
      <stop stop-color="white" />
      <stop offset="1" stop-color="white" />
    </linearGradient>
    <linearGradient id="paint81_linear_51_2794" x1="465.722" y1="983.274" x2="-132.795" y2="800.289" gradientUnits="userSpaceOnUse">
      <stop stop-color="white" />
      <stop offset="1" stop-color="white" />
    </linearGradient>
    <linearGradient id="paint82_linear_51_2794" x1="473.39" y1="980.211" x2="-126.941" y2="808.069" gradientUnits="userSpaceOnUse">
      <stop stop-color="white" />
      <stop offset="1" stop-color="white" />
    </linearGradient>
    <linearGradient id="paint83_linear_51_2794" x1="480.963" y1="977.146" x2="-120.987" y2="815.854" gradientUnits="userSpaceOnUse">
      <stop stop-color="white" />
      <stop offset="1" stop-color="white" />
    </linearGradient>
    <linearGradient id="paint84_linear_51_2794" x1="488.44" y1="974.076" x2="-114.932" y2="823.638" gradientUnits="userSpaceOnUse">
      <stop stop-color="white" />
      <stop offset="1" stop-color="white" />
    </linearGradient>
    <linearGradient id="paint85_linear_51_2794" x1="495.822" y1="971.006" x2="-108.779" y2="831.424" gradientUnits="userSpaceOnUse">
      <stop stop-color="white" />
      <stop offset="1" stop-color="white" />
    </linearGradient>
    <linearGradient id="paint86_linear_51_2794" x1="503.107" y1="967.94" x2="-102.526" y2="839.208" gradientUnits="userSpaceOnUse">
      <stop stop-color="white" />
      <stop offset="1" stop-color="white" />
    </linearGradient>
    <linearGradient id="paint87_linear_51_2794" x1="510.298" y1="964.874" x2="-96.1745" y2="846.988" gradientUnits="userSpaceOnUse">
      <stop stop-color="white" />
      <stop offset="1" stop-color="white" />
    </linearGradient>
    <linearGradient id="paint88_linear_51_2794" x1="517.393" y1="961.813" x2="-89.7241" y2="854.762" gradientUnits="userSpaceOnUse">
      <stop stop-color="white" />
      <stop offset="1" stop-color="white" />
    </linearGradient>
    <linearGradient id="paint89_linear_51_2794" x1="524.394" y1="958.761" x2="-83.1758" y2="862.532" gradientUnits="userSpaceOnUse">
      <stop stop-color="white" />
      <stop offset="1" stop-color="white" />
    </linearGradient>
    <linearGradient id="paint90_linear_51_2794" x1="531.3" y1="955.713" x2="-76.5293" y2="870.288" gradientUnits="userSpaceOnUse">
      <stop stop-color="white" />
      <stop offset="1" stop-color="white" />
    </linearGradient>
    <linearGradient id="paint91_linear_51_2794" x1="538.113" y1="952.676" x2="-69.785" y2="878.036" gradientUnits="userSpaceOnUse">
      <stop stop-color="white" />
      <stop offset="1" stop-color="white" />
    </linearGradient>
    <linearGradient id="paint92_linear_51_2794" x1="544.831" y1="949.651" x2="-62.9438" y2="885.772" gradientUnits="userSpaceOnUse">
      <stop stop-color="white" />
      <stop offset="1" stop-color="white" />
    </linearGradient>
    <linearGradient id="paint93_linear_51_2794" x1="551.457" y1="946.641" x2="-56.0055" y2="893.495" gradientUnits="userSpaceOnUse">
      <stop stop-color="white" />
      <stop offset="1" stop-color="white" />
    </linearGradient>
    <linearGradient id="paint94_linear_51_2794" x1="557.989" y1="943.642" x2="-48.9712" y2="901.199" gradientUnits="userSpaceOnUse">
      <stop stop-color="white" />
      <stop offset="1" stop-color="white" />
    </linearGradient>
    <linearGradient id="paint95_linear_51_2794" x1="564.429" y1="940.661" x2="-41.8408" y2="908.888" gradientUnits="userSpaceOnUse">
      <stop stop-color="white" />
      <stop offset="1" stop-color="white" />
    </linearGradient>
    <linearGradient id="paint96_linear_51_2794" x1="570.777" y1="937.695" x2="-34.6154" y2="916.554" gradientUnits="userSpaceOnUse">
      <stop stop-color="white" />
      <stop offset="1" stop-color="white" />
    </linearGradient>
    <linearGradient id="paint97_linear_51_2794" x1="577.035" y1="934.752" x2="-27.295" y2="924.203" gradientUnits="userSpaceOnUse">
      <stop stop-color="white" />
      <stop offset="1" stop-color="white" />
    </linearGradient>
    <linearGradient id="paint98_linear_51_2794" x1="583.201" y1="931.829" x2="-19.8809" y2="931.829" gradientUnits="userSpaceOnUse">
      <stop stop-color="white" />
      <stop offset="1" stop-color="white" />
    </linearGradient>
  </defs>
</svg>