<svg width="24" height="24" viewBox="0 0 24 24" fill="none" xmlns="http://www.w3.org/2000/svg">
  <path opacity="0.995" fill-rule="evenodd" clip-rule="evenodd" d="M11.9766 0.539278C11.9766 4.72676 11.9766 8.91429 11.9766 13.1018C11.9922 13.133 12.0078 13.1643 12.0234 13.1955C11.9523 13.196 11.8976 13.2273 11.8594 13.2893C9.42881 16.6514 6.99914 20.0108 4.57031 23.3674C4.39826 23.2385 4.34357 23.0667 4.40625 22.8518C5.14064 20.3361 5.87498 17.8205 6.60938 15.3049C6.65827 15.1522 6.6817 14.996 6.67969 14.8362C8.43919 14.2887 10.1892 13.7184 11.9297 13.1252C7.94095 11.8399 3.95657 10.5508 -0.0234375 9.25803C-0.0234375 9.22676 -0.0234375 9.19554 -0.0234375 9.16428C0.0400352 9.06134 0.133785 8.99103 0.257812 8.95334C2.78895 8.87154 5.32017 8.7934 7.85156 8.71897C8.13797 8.71484 8.41922 8.68357 8.69531 8.62522C8.76755 8.5512 8.82225 8.46523 8.85938 8.3674C9.76561 5.83615 10.6719 3.3049 11.5781 0.773653C11.6566 0.605438 11.7894 0.527311 11.9766 0.539278Z" fill="#DA4554" />
  <path opacity="0.995" fill-rule="evenodd" clip-rule="evenodd" d="M11.9766 0.539278C12.1637 0.527311 12.2965 0.605438 12.375 0.773653C13.2812 3.3049 14.1875 5.83615 15.0938 8.3674C15.1309 8.46523 15.1856 8.5512 15.2578 8.62522C15.5339 8.68357 15.8152 8.71484 16.1016 8.71897C18.633 8.78975 21.1643 8.86789 23.6953 8.95334C23.811 8.99923 23.9047 9.06954 23.9766 9.16428C23.9766 9.19554 23.9766 9.22676 23.9766 9.25803C19.9794 10.5487 15.9795 11.83 11.9766 13.1018C11.9766 8.91429 11.9766 4.72676 11.9766 0.539278Z" fill="#E5636D" />
  <path opacity="0.994" fill-rule="evenodd" clip-rule="evenodd" d="M-0.0234375 9.25781C3.95657 10.5506 7.94095 11.8396 11.9297 13.125C10.1892 13.7182 8.43919 14.2885 6.67969 14.8359C4.44758 13.0888 2.21321 11.3388 -0.0234375 9.58594C-0.0234375 9.47658 -0.0234375 9.36717 -0.0234375 9.25781Z" fill="#BD414F" />
  <path opacity="0.995" fill-rule="evenodd" clip-rule="evenodd" d="M23.9766 9.25781C23.9766 9.36717 23.9766 9.47658 23.9766 9.58594C21.7989 11.2922 19.6115 12.9875 17.4141 14.6719C17.2508 14.8632 17.2274 15.0742 17.3438 15.3047C18.0854 17.8182 18.8198 20.3338 19.5469 22.8516C19.6095 23.0664 19.5549 23.2383 19.3828 23.3672C16.9416 19.9696 14.4885 16.579 12.0234 13.1953C12.0078 13.164 11.9922 13.1328 11.9766 13.1016C15.9795 11.8298 19.9794 10.5485 23.9766 9.25781Z" fill="#DB4655" />
  <path opacity="0.993" fill-rule="evenodd" clip-rule="evenodd" d="M12.0234 13.1953C14.4885 16.579 16.9416 19.9696 19.3828 23.3672C19.1705 23.4403 18.9674 23.4168 18.7734 23.2969C16.5859 21.7969 14.3985 20.2969 12.2109 18.7969C12.0547 18.7031 11.8984 18.7031 11.7422 18.7969C9.55467 20.2969 7.3672 21.7969 5.17969 23.2969C4.98577 23.4168 4.78266 23.4403 4.57031 23.3672C6.99914 20.0106 9.42881 16.6512 11.8594 13.2891C11.8976 13.227 11.9523 13.1958 12.0234 13.1953Z" fill="#BD4150" />

</svg>