<svg width="24" height="24" viewBox="0 0 24 24" fill="none" xmlns="http://www.w3.org/2000/svg">

  <path opacity="0.996" fill-rule="evenodd" clip-rule="evenodd" d="M23.9766 7.14852C23.9766 7.52352 23.9766 7.89852 23.9766 8.27352C16.6484 8.27352 9.32029 8.27352 1.99218 8.27352C1.66145 5.35757 2.70833 3.09195 5.13281 1.47665C7.81312 0.976796 10.0319 1.76586 11.7891 3.84383C11.8534 3.86266 11.9159 3.8861 11.9766 3.91415C12.0373 3.8861 12.0997 3.86266 12.1641 3.84383C14.0838 1.61549 16.4744 0.865491 19.3359 1.59383C21.9661 2.54401 23.513 4.39558 23.9766 7.14852Z" fill="#ECEAEC" />
  <path opacity="0.996" fill-rule="evenodd" clip-rule="evenodd" d="M5.13281 1.47656C2.70833 3.09187 1.66146 5.35748 1.99219 8.27344C1.32031 8.27344 0.648436 8.27344 -0.0234375 8.27344C-0.0234375 7.89844 -0.0234375 7.52344 -0.0234375 7.14844C0.319171 5.01764 1.3973 3.36922 3.21094 2.20312C3.81299 1.85507 4.45362 1.61288 5.13281 1.47656Z" fill="#DAD8DB" />
  <path fill-rule="evenodd" clip-rule="evenodd" d="M-0.0234375 8.32031C-0.0234375 8.3047 -0.0234375 8.28905 -0.0234375 8.27344C0.648436 8.27344 1.32031 8.27344 1.99219 8.27344C9.3203 8.27344 16.6485 8.27344 23.9766 8.27344C23.9766 8.42967 23.9766 8.58595 23.9766 8.74219C23.961 8.74219 23.9453 8.74219 23.9297 8.74219C23.9297 8.60156 23.9297 8.46094 23.9297 8.32031C16.6328 8.32031 9.33595 8.32031 2.03906 8.32031C1.35156 8.32031 0.664064 8.32031 -0.0234375 8.32031Z" fill="#B5BFEA" />
  <path opacity="0.993" fill-rule="evenodd" clip-rule="evenodd" d="M-0.0234375 8.32031C0.664064 8.32031 1.35156 8.32031 2.03906 8.32031C2.23305 9.59756 2.64712 10.8007 3.28125 11.9297C4.05292 13.2484 4.95136 14.4749 5.97656 15.6094C5.10914 15.6172 4.24979 15.6407 3.39844 15.6797C1.98243 14.0796 0.943369 12.2515 0.28125 10.1953C0.151462 9.71016 0.0498998 9.22575 -0.0234375 8.74219C-0.0234375 8.60156 -0.0234375 8.46094 -0.0234375 8.32031Z" fill="#5069D2" />
  <path opacity="0.999" fill-rule="evenodd" clip-rule="evenodd" d="M2.03906 8.32031C9.33595 8.32031 16.6328 8.32031 23.9297 8.32031C23.9297 8.46094 23.9297 8.60156 23.9297 8.74219C23.8299 9.75248 23.5721 10.7213 23.1562 11.6484C22.4632 13.1148 21.596 14.4586 20.5547 15.6797C15.7266 15.6797 10.8984 15.6797 6.07031 15.6797C5.17969 15.6797 4.28906 15.6797 3.39844 15.6797C4.24979 15.6407 5.10914 15.6172 5.97656 15.6094C4.95136 14.4749 4.05292 13.2484 3.28125 11.9297C2.64712 10.8007 2.23305 9.59756 2.03906 8.32031Z" fill="#6986EA" />
  <path opacity="0.991" fill-rule="evenodd" clip-rule="evenodd" d="M3.39844 15.6797C4.28906 15.6797 5.17969 15.6797 6.07031 15.6797C7.61808 17.4073 9.32119 18.9619 11.1797 20.3438C11.9558 20.911 12.7371 21.4657 13.5234 22.0078C12.7031 22.7331 11.8125 22.8347 10.8516 22.3125C8.50861 20.7053 6.34453 18.8693 4.35938 16.8047C4.02759 16.437 3.70727 16.062 3.39844 15.6797Z" fill="#DB4655" />
  <path opacity="0.997" fill-rule="evenodd" clip-rule="evenodd" d="M6.07031 15.6797C10.8984 15.6797 15.7266 15.6797 20.5547 15.6797C18.4711 18.0921 16.1274 20.2014 13.5234 22.0078C12.7371 21.4657 11.9558 20.911 11.1797 20.3438C9.32119 18.9619 7.61808 17.4073 6.07031 15.6797Z" fill="#E5636D" />

</svg>