<svg width="24" height="24" viewBox="0 0 24 24" fill="none" xmlns="http://www.w3.org/2000/svg">
  <path opacity="0.968" fill-rule="evenodd" clip-rule="evenodd" d="M12.3047 2.41406C12.0859 2.41406 11.8672 2.41406 11.6484 2.41406C11.4891 2.42908 11.3328 2.41345 11.1797 2.36719C11.0937 2.13281 11.0078 1.89844 10.9218 1.66406C10.8332 1.30793 10.9191 1.00325 11.1797 0.75C11.4319 0.577027 11.6975 0.428587 11.9765 0.304688C12.2555 0.428587 12.5212 0.577027 12.7734 0.75C13.0206 1.00736 13.1065 1.31205 13.0312 1.66406C12.9453 1.89844 12.8593 2.13281 12.7734 2.36719C12.6202 2.41345 12.4639 2.42908 12.3047 2.41406Z" fill="#D09528" />
  <path opacity="0.96" fill-rule="evenodd" clip-rule="evenodd" d="M11.6484 2.41406C11.8672 2.41406 12.0859 2.41406 12.3047 2.41406C12.3014 3.1116 12.6295 3.56473 13.2891 3.77344C13.4497 3.98511 13.5747 4.21949 13.6641 4.47656C12.969 4.53549 12.4065 4.2855 11.9766 3.72656C11.5466 4.2855 10.9841 4.53549 10.2891 4.47656C10.3785 4.21949 10.5034 3.98511 10.6641 3.77344C11.3236 3.56473 11.6518 3.1116 11.6484 2.41406Z" fill="#FFF5F4" />
  <path opacity="0.985" fill-rule="evenodd" clip-rule="evenodd" d="M8.83595 10.6641C8.82812 11.586 8.83595 12.5079 8.85939 13.4297C8.92965 13.8345 9.10933 14.1783 9.39845 14.4609C7.99239 14.654 6.58614 14.8493 5.1797 15.0469C4.60121 15.1313 4.08559 14.9906 3.63283 14.625C3.37156 14.3211 3.12156 14.0085 2.88283 13.6875C3.52562 13.154 4.18187 12.6384 4.85158 12.1406C4.42983 12.1795 4.00796 12.2342 3.58595 12.3047C2.63357 12.2547 1.95389 11.8015 1.54689 10.9453C1.50878 10.8546 1.48534 10.7608 1.47658 10.6641C2.29172 10.4993 3.10422 10.3197 3.91408 10.125C3.5739 10.0321 3.23015 9.954 2.88283 9.89062C1.67754 9.50644 1.11504 8.68612 1.19533 7.42969C1.99063 7.66359 2.78751 7.87453 3.58595 8.0625C2.11098 6.70036 1.50942 5.02069 1.78126 3.02344C3.56405 4.88428 5.32965 6.75928 7.07814 8.64844C7.18642 8.87184 7.21769 9.10622 7.17189 9.35156C7.00759 9.65634 6.8904 9.97664 6.82033 10.3125C6.88473 10.8378 7.18164 11.1113 7.71095 11.1328C7.85589 11.1325 7.99651 11.109 8.13283 11.0625C8.36279 10.9177 8.59717 10.7849 8.83595 10.6641Z" fill="#E7B251" />
  <path opacity="0.984" fill-rule="evenodd" clip-rule="evenodd" d="M14.5547 14.4609C14.8438 14.1783 15.0235 13.8345 15.0938 13.4297C15.1172 12.5079 15.125 11.586 15.1172 10.6641C15.356 10.7849 15.5903 10.9177 15.8203 11.0625C16.2616 11.2208 16.6445 11.1349 16.9688 10.8047C17.061 10.653 17.1157 10.4889 17.1328 10.3125C17.0622 9.97575 16.945 9.65545 16.7812 9.35156C16.7355 9.10622 16.7667 8.87184 16.875 8.64844C18.6235 6.75928 20.3891 4.88428 22.1719 3.02344C22.4437 5.02069 21.8422 6.70036 20.3672 8.0625C21.1662 7.87444 21.963 7.6635 22.7578 7.42969C22.8393 8.57888 22.3471 9.37575 21.2812 9.82031C20.8701 9.9338 20.4561 10.0354 20.0391 10.125C20.8515 10.3078 21.6641 10.4875 22.4766 10.6641C22.1557 11.6927 21.4526 12.2396 20.3672 12.3047C19.9452 12.2342 19.5233 12.1795 19.1016 12.1406C19.7713 12.6384 20.4275 13.154 21.0703 13.6875C20.8316 14.0085 20.5816 14.3211 20.3203 14.625C19.8675 14.9906 19.3519 15.1313 18.7734 15.0469C17.367 14.8493 15.9607 14.654 14.5547 14.4609Z" fill="#E7B251" />
  <path opacity="0.981" fill-rule="evenodd" clip-rule="evenodd" d="M10.6641 3.77344C10.5034 3.98511 10.3785 4.21949 10.2891 4.47656C10.2578 4.53906 10.2266 4.60157 10.1953 4.66406C9.66408 4.66406 9.1328 4.66406 8.60156 4.66406C8.47753 4.31434 8.32125 3.97841 8.13281 3.65625C9.00783 3.625 9.8828 3.625 10.7578 3.65625C10.7165 3.68945 10.6853 3.72851 10.6641 3.77344Z" fill="#D09528" />
  <path opacity="0.983" fill-rule="evenodd" clip-rule="evenodd" d="M15.3516 4.66406C14.8203 4.66406 14.289 4.66406 13.7578 4.66406C13.7265 4.60157 13.6953 4.53906 13.6641 4.47656C13.5747 4.21949 13.4497 3.98511 13.2891 3.77344C13.2678 3.72851 13.2366 3.68945 13.1953 3.65625C14.0703 3.625 14.9453 3.625 15.8203 3.65625C15.6323 3.97859 15.476 4.31453 15.3516 4.66406Z" fill="#D09528" />
  <path opacity="0.983" fill-rule="evenodd" clip-rule="evenodd" d="M8.60158 4.66406C9.13282 4.66406 9.6641 4.66406 10.1953 4.66406C11.1803 5.9295 11.7741 7.36702 11.9766 8.97656C12.1791 7.36702 12.7729 5.9295 13.7578 4.66406C14.2891 4.66406 14.8203 4.66406 15.3516 4.66406C15.8294 4.89863 16.2278 5.22675 16.5469 5.64844C16.6588 5.96784 16.6901 6.29597 16.6406 6.63281C16.57 6.68133 16.4997 6.6735 16.4297 6.60938C16.1564 6.41798 15.8751 6.23831 15.586 6.07031C14.623 6.77794 14.1933 7.73105 14.2969 8.92969C14.3453 9.23264 14.4156 9.5295 14.5078 9.82031C12.8203 9.82031 11.1328 9.82031 9.44533 9.82031C9.83669 8.76933 9.73516 7.76934 9.14065 6.82031C8.92094 6.5303 8.66313 6.28031 8.36721 6.07031C8.03121 6.2617 7.70308 6.46481 7.38283 6.67969C7.18418 6.14077 7.29354 5.66419 7.71096 5.25C8.00233 5.04427 8.29919 4.84894 8.60158 4.66406Z" fill="#E7B251" />
  <path opacity="0.996" fill-rule="evenodd" clip-rule="evenodd" d="M9.44532 9.82031C11.1328 9.82031 12.8203 9.82031 14.5078 9.82031C14.7109 9.82031 14.9141 9.82031 15.1172 9.82031C15.1172 10.1016 15.1172 10.3828 15.1172 10.6641C15.125 11.586 15.1172 12.5079 15.0938 13.4297C15.0235 13.8345 14.8438 14.1783 14.5547 14.4609C14.3838 14.5695 14.2275 14.6946 14.0859 14.8359C14.0366 14.829 13.9898 14.8367 13.9453 14.8594C13.2974 15.3474 12.6411 15.824 11.9766 16.2891C11.312 15.824 10.6558 15.3474 10.0078 14.8594C9.96338 14.8367 9.91651 14.829 9.86719 14.8359C9.72563 14.6946 9.56935 14.5695 9.39844 14.4609C9.10932 14.1783 8.92965 13.8345 8.85938 13.4297C8.83594 12.5079 8.82812 11.586 8.83594 10.6641C8.83594 10.3828 8.83594 10.1016 8.83594 9.82031C9.03905 9.82031 9.24221 9.82031 9.44532 9.82031Z" fill="#766F77" />
  <path fill-rule="evenodd" clip-rule="evenodd" d="M13.6641 13.2891C13.6641 12.6172 13.6641 11.9453 13.6641 11.2734C12.5391 11.2734 11.4141 11.2734 10.2891 11.2734C10.2891 11.9453 10.2891 12.6172 10.2891 13.2891C10.2424 12.6098 10.2268 11.9223 10.2422 11.2266C11.3985 11.2266 12.5547 11.2266 13.7109 11.2266C13.7264 11.9223 13.7108 12.6098 13.6641 13.2891Z" fill="#DC6C6E" />
  <path fill-rule="evenodd" clip-rule="evenodd" d="M13.6641 13.2891C13.132 13.7418 12.5695 14.1637 11.9766 14.5547C11.3836 14.1637 10.8211 13.7418 10.2891 13.2891C10.2891 12.6172 10.2891 11.9453 10.2891 11.2734C11.4141 11.2734 12.5391 11.2734 13.6641 11.2734C13.6641 11.9453 13.6641 12.6172 13.6641 13.2891Z" fill="#FE6C6C" />
  <path opacity="0.981" fill-rule="evenodd" clip-rule="evenodd" d="M9.86719 14.836C9.9165 14.829 9.96338 14.8368 10.0078 14.8594C10.6558 15.3474 11.312 15.824 11.9766 16.2891C12.6411 15.824 13.2974 15.3474 13.9453 14.8594C13.9897 14.8368 14.0366 14.829 14.0859 14.836C14.8094 15.3153 15.5437 15.784 16.2891 16.2422C16.2352 16.6233 16.1883 17.0061 16.1484 17.3907C16.171 17.7261 16.3272 17.9683 16.6172 18.1172C16.6208 18.1758 16.6521 18.2149 16.7109 18.2344C17.2302 18.4127 17.7458 18.6002 18.2578 18.7969C18.039 19.0469 17.8203 19.2969 17.6016 19.5469C17.5113 19.5406 17.4176 19.5328 17.3203 19.5235C16.6793 19.4375 16.0543 19.2891 15.4453 19.0782C14.9599 18.724 14.7645 18.2474 14.8594 17.6485C14.9133 17.4792 14.9523 17.3073 14.9766 17.1328C14.461 17.0312 13.9454 16.9453 13.4297 16.875C13.0015 17.3966 12.9468 17.9512 13.2656 18.5391C13.8767 19.1034 14.5018 19.6503 15.1406 20.1797C15.101 20.806 14.89 21.3685 14.5078 21.8672C13.9103 21.4396 13.3088 21.0177 12.7031 20.6016C13.0209 21.2758 13.3725 21.9399 13.7578 22.5938C13.1855 22.9815 12.5918 23.3331 11.9766 23.6485C11.3614 23.3331 10.7677 22.9815 10.1953 22.5938C10.5807 21.9399 10.9322 21.2758 11.25 20.6016C10.6443 21.0177 10.0428 21.4396 9.44531 21.8672C9.06309 21.3685 8.85216 20.806 8.8125 20.1797C9.45136 19.6503 10.0764 19.1034 10.6875 18.5391C11.0062 17.9495 10.9515 17.3948 10.5234 16.875C10.0078 16.9453 9.49214 17.0312 8.97656 17.1328C9.0008 17.3073 9.03984 17.4792 9.09375 17.6485C9.18914 18.3406 8.93133 18.8484 8.32031 19.1719C7.79175 19.3042 7.26052 19.4214 6.72656 19.5235C6.504 19.2199 6.26962 18.9231 6.02344 18.6328C6.49636 18.4673 6.96511 18.2877 7.42969 18.0938C7.65305 17.9127 7.77806 17.6783 7.80469 17.3907C7.7648 17.0061 7.71792 16.6233 7.66406 16.2422C8.40942 15.784 9.14377 15.3153 9.86719 14.836Z" fill="#E7B251" />
  <path opacity="0.981" fill-rule="evenodd" clip-rule="evenodd" d="M5.17967 17.6952C5.03056 17.8752 4.84306 18.0002 4.61717 18.0702C3.96314 18.0643 3.6897 17.7362 3.79686 17.0858C4.03753 16.6224 4.40471 16.4896 4.89842 16.6874C5.24473 16.9557 5.33848 17.2916 5.17967 17.6952Z" fill="#70ABFA" />
  <path opacity="0.977" fill-rule="evenodd" clip-rule="evenodd" d="M17.3203 19.5234C17.4176 19.5327 17.5113 19.5405 17.6016 19.5469C17.8203 19.2969 18.039 19.0469 18.2578 18.7969C17.7458 18.6001 17.2302 18.4126 16.7109 18.2344C16.6521 18.2148 16.6208 18.1758 16.6172 18.1172C16.7514 17.3495 17.2123 16.9433 18 16.8984C18.8478 16.9884 19.3087 17.4572 19.3828 18.3047C19.272 19.2826 18.7252 19.7436 17.7422 19.6875C17.5845 19.6638 17.4438 19.6091 17.3203 19.5234Z" fill="#756E77" />
  <path opacity="0.963" fill-rule="evenodd" clip-rule="evenodd" d="M5.17969 17.6953C5.47697 17.9926 5.75822 18.3051 6.02344 18.6328C6.26962 18.923 6.504 19.2199 6.72656 19.5234C6.66333 19.8938 6.46017 19.9954 6.11719 19.8281C5.58975 19.262 5.08978 18.676 4.61719 18.0703C4.84308 18.0003 5.03058 17.8753 5.17969 17.6953Z" fill="#746D77" />
</svg>