<svg width="394" height="318" viewBox="0 0 394 318" fill="none" xmlns="http://www.w3.org/2000/svg">
<path opacity="0.010101" d="M239.03 2.24248C246.229 -1.74814 255.179 -0.649199 261.199 4.96453L557.658 281.417C563.678 287.031 565.398 295.882 561.92 303.342L390.609 670.72C387.13 678.18 379.243 682.552 371.073 681.549L-31.2614 632.148C-39.4314 631.145 -46.0262 624.995 -47.5968 616.915L-124.942 219.006C-126.513 210.926 -122.702 202.754 -115.503 198.763L239.03 2.24248Z" stroke="url(#paint0_linear_28_796)" stroke-width="2"/>
<path opacity="0.020202" d="M244.939 -0.719364C252.207 -4.58373 261.137 -3.32877 267.058 2.38917L558.076 283.423C563.997 289.14 565.563 298.021 561.955 305.419L384.606 669.038C380.998 676.437 373.036 680.67 364.885 679.524L-35.7416 623.22C-43.8928 622.074 -50.3793 615.81 -51.8087 607.704L-122.06 209.287C-123.49 201.181 -119.537 193.076 -112.269 189.212L244.939 -0.719364Z" stroke="url(#paint1_linear_28_796)" stroke-width="2"/>
<path opacity="0.030303" d="M250.813 -3.57602C258.147 -7.31296 267.053 -5.90235 272.873 -0.0819466L558.383 285.427C564.203 291.247 565.614 300.154 561.877 307.488L378.569 667.25C374.832 674.584 366.797 678.678 358.667 677.391L-40.1324 614.227C-48.2624 612.939 -54.6386 606.563 -55.9263 598.433L-119.09 199.633C-120.378 191.504 -116.284 183.469 -108.95 179.732L250.813 -3.57602Z" stroke="url(#paint2_linear_28_796)" stroke-width="2"/>
<path opacity="0.040404" d="M256.649 -6.32782C264.047 -9.93619 272.927 -8.37035 278.645 -2.44924L558.577 287.429C564.295 293.35 565.55 302.279 561.686 309.547L372.499 665.356C368.635 672.624 360.53 676.577 352.424 675.147L-44.4321 605.171C-52.5383 603.741 -58.8023 597.255 -59.9479 589.104L-116.032 190.047C-117.177 181.896 -112.944 173.934 -105.546 170.326L256.649 -6.32782Z" stroke="url(#paint3_linear_28_796)" stroke-width="2"/>
<path opacity="0.050505" d="M262.445 -8.97575C269.905 -12.4545 278.757 -10.7339 284.371 -4.71388L558.661 289.426C564.274 295.446 565.373 304.396 561.383 311.595L366.399 663.354C362.409 670.554 354.236 674.364 346.156 672.794L-48.6398 596.053C-56.7198 594.483 -62.8696 587.888 -63.8728 579.718L-112.887 180.53C-113.89 172.361 -109.518 164.474 -102.058 160.995L262.445 -8.97575Z" stroke="url(#paint4_linear_28_796)" stroke-width="2"/>
<path opacity="0.0606061" d="M268.203 -11.5204C275.723 -14.8683 284.543 -12.9935 290.051 -6.8765L558.635 291.416C564.143 297.533 565.086 306.501 560.97 313.63L360.274 661.246C356.158 668.374 347.92 672.042 339.869 670.331L-52.7521 586.876C-60.8036 585.165 -66.8373 578.464 -67.6978 570.278L-109.655 171.084C-110.515 162.898 -106.006 155.089 -98.4868 151.741L268.203 -11.5204Z" stroke="url(#paint5_linear_28_796)" stroke-width="2"/>
<path opacity="0.0707071" d="M273.919 -13.9626C281.496 -17.1789 290.282 -15.1504 295.682 -8.93817L558.499 293.398C563.9 299.611 564.685 308.594 560.446 315.649L354.122 659.03C349.882 666.086 341.582 669.609 333.562 667.758L-56.7708 577.642C-64.7911 575.791 -70.707 568.985 -71.4245 560.785L-106.339 161.71C-107.056 153.51 -102.412 145.78 -94.8352 142.564L273.919 -13.9626Z" stroke="url(#paint6_linear_28_796)" stroke-width="2"/>
<path opacity="0.0808081" d="M279.589 -16.3043C287.221 -19.3878 295.97 -17.2063 301.261 -10.9007L558.252 295.369C563.543 301.675 564.172 310.67 559.81 317.651L347.945 656.706C343.583 663.687 335.222 667.065 327.235 665.073L-60.6958 568.351C-68.6826 566.36 -74.4788 559.452 -75.053 551.241L-102.942 152.408C-103.516 144.197 -98.7379 136.55 -91.106 133.466L279.589 -16.3043Z" stroke="url(#paint7_linear_28_796)" stroke-width="2"/>
<path opacity="0.0909091" d="M285.214 -18.5454C292.899 -21.4953 301.609 -19.1614 306.789 -12.7645L557.897 297.328C563.077 303.725 563.549 312.73 559.066 319.633L341.747 654.275C337.264 661.178 328.845 664.41 320.894 662.279L-64.5238 559.007C-72.4746 556.876 -78.1494 549.868 -78.5802 541.648L-99.463 143.181C-99.8938 134.961 -94.9826 127.398 -87.298 124.449L285.214 -18.5454Z" stroke="url(#paint8_linear_28_796)" stroke-width="2"/>
<path opacity="0.10101" d="M290.793 -20.6873C298.527 -23.5026 307.195 -21.0171 312.263 -14.5308L557.433 299.272C562.501 305.758 562.815 314.77 558.212 321.594L335.53 651.735C330.927 658.559 322.453 661.643 314.541 659.374L-68.2543 549.61C-76.1668 547.341 -81.7184 540.235 -82.0057 532.009L-95.9034 134.03C-96.1907 125.803 -91.1483 118.328 -83.4134 115.513L290.793 -20.6873Z" stroke="url(#paint9_linear_28_796)" stroke-width="2"/>
<path opacity="0.111111" d="M296.32 -22.7316C304.103 -25.4115 312.727 -22.775 317.68 -16.2012L556.859 301.2C561.813 307.773 561.97 316.789 557.249 323.532L329.293 649.087C324.572 655.829 316.046 658.765 308.174 656.359L-71.8892 540.162C-79.7608 537.755 -85.1875 530.553 -85.3312 522.323L-92.2673 124.955C-92.411 116.725 -87.2389 109.338 -79.456 106.659L296.32 -22.7316Z" stroke="url(#paint10_linear_28_796)" stroke-width="2"/>
<path opacity="0.121212" d="M301.799 -24.6781C309.628 -27.2218 318.204 -24.4353 323.042 -17.776L556.179 303.109C561.017 309.769 561.017 318.786 556.179 325.445L323.042 646.331C318.204 652.99 309.628 655.776 301.799 653.233L-75.4242 530.665C-83.2526 528.122 -88.5529 520.827 -88.5529 512.595L-88.5529 115.959C-88.5529 107.728 -83.2526 100.433 -75.4242 97.8892L301.799 -24.6781Z" stroke="url(#paint11_linear_28_796)" stroke-width="2"/>
<path opacity="0.131313" d="M307.224 -26.5292C315.096 -28.9358 323.622 -26.0001 328.343 -19.2574L555.389 304.999C560.111 311.741 559.953 320.757 555 327.331L316.775 643.466C311.821 650.039 303.198 652.676 295.415 649.996L-78.8621 521.122C-86.645 518.442 -91.8171 511.056 -91.6735 502.826L-84.765 107.042C-84.6214 98.8124 -79.1946 91.6108 -71.323 89.2042L307.224 -26.5292Z" stroke="url(#paint12_linear_28_796)" stroke-width="2"/>
<path opacity="0.141414" d="M312.595 -28.2852C320.507 -30.5541 328.981 -27.47 333.584 -20.6459L554.493 306.866C559.096 313.69 558.782 322.702 553.714 329.188L310.496 640.492C305.429 646.979 296.761 649.464 289.026 646.649L-82.2003 511.534C-89.9352 508.718 -94.9776 501.243 -94.6904 493.016L-80.9033 98.2064C-80.6161 89.9802 -75.0645 82.8744 -67.152 80.6055L312.595 -28.2852Z" stroke="url(#paint13_linear_28_796)" stroke-width="2"/>
<path opacity="0.151515" d="M317.912 -29.9474C325.863 -32.0778 334.281 -28.8463 338.764 -21.9429L553.492 308.71C557.975 315.613 557.503 324.618 552.323 331.015L304.209 637.411C299.029 643.808 290.319 646.142 282.634 643.192L-85.4375 501.902C-93.122 498.952 -98.0332 491.39 -97.6024 483.17L-76.9686 89.4523C-76.5378 81.2323 -70.863 74.2245 -62.9122 72.0941L317.912 -29.9474Z" stroke="url(#paint14_linear_28_796)" stroke-width="2"/>
<path opacity="0.161616" d="M323.171 -31.5172C331.157 -33.5086 339.518 -30.1306 343.88 -23.1501L552.385 310.527C556.747 317.508 556.118 326.503 550.827 332.809L297.912 634.221C292.621 640.526 283.872 642.708 276.24 639.624L-88.5747 492.229C-96.2066 489.146 -100.985 481.499 -100.411 473.288L-72.9642 80.7809C-72.39 72.5696 -66.5938 65.662 -58.607 63.6706L323.171 -31.5172Z" stroke="url(#paint15_linear_28_796)" stroke-width="2"/>
<path opacity="0.171717" d="M328.37 -32.996C336.39 -34.8477 344.691 -31.3243 348.93 -24.2687L551.172 312.317C555.411 319.373 554.625 328.356 549.225 334.568L291.609 630.922C286.208 637.134 277.422 639.162 269.845 635.946L-91.6116 482.517C-99.1886 479.301 -103.833 471.571 -103.115 463.371L-68.8918 72.1931C-68.1744 63.9932 -62.2585 57.1877 -54.2381 55.3361L328.37 -32.996Z" stroke="url(#paint16_linear_28_796)" stroke-width="2"/>
<path opacity="0.181818" d="M333.511 -34.384C341.562 -36.0954 349.8 -32.4277 353.915 -25.2992L549.855 314.079C553.971 321.207 553.028 330.175 547.52 336.292L285.302 627.515C279.794 633.632 270.974 635.507 263.454 632.159L-94.5459 472.768C-102.066 469.42 -106.574 461.61 -105.714 453.424L-64.7513 63.6912C-63.8909 55.505 -57.8571 48.8038 -49.8057 47.0924L333.511 -34.384Z" stroke="url(#paint17_linear_28_796)" stroke-width="2"/>
<path opacity="0.191919" d="M338.588 -35.6837C346.669 -37.2544 354.841 -33.4435 358.832 -26.2442L548.434 315.808C552.425 323.007 551.326 331.958 545.712 337.978L278.992 624C273.378 630.02 264.526 631.741 257.066 628.262L-97.379 462.982C-104.839 459.503 -109.211 451.616 -108.208 443.447L-60.5462 55.2746C-59.5431 47.1047 -53.3932 40.5098 -45.3132 38.9392L338.588 -35.6837Z" stroke="url(#paint18_linear_28_796)" stroke-width="2"/>
<path opacity="0.20202" d="M343.606 -36.8953C351.712 -38.3246 359.817 -34.3717 363.681 -27.1039L546.913 317.505C550.777 324.773 549.522 333.703 543.804 339.624L272.683 620.378C266.965 626.299 258.085 627.865 250.687 624.257L-100.107 453.163C-107.506 449.555 -111.739 441.593 -110.593 433.442L-56.275 46.9457C-55.1294 38.7945 -48.8654 32.308 -40.7592 30.8786L343.606 -36.8953Z" stroke="url(#paint19_linear_28_796)" stroke-width="2"/>
<path opacity="0.212121" d="M348.556 -38.0211C356.686 -39.3088 364.72 -35.215 368.457 -27.8809L545.287 319.168C549.024 326.502 547.613 335.408 541.793 341.228L266.374 616.648C260.553 622.468 251.647 623.879 244.313 620.142L-102.736 443.312C-110.07 439.575 -114.163 431.54 -112.876 423.41L-51.9443 38.7042C-50.6567 30.5742 -44.2805 24.198 -36.1505 22.9104L348.556 -38.0211Z" stroke="url(#paint20_linear_28_796)" stroke-width="2"/>
<path opacity="0.222222" d="M353.442 -39.0617C361.593 -40.2073 369.555 -35.9739 373.163 -28.5757L543.562 320.793C547.17 328.192 545.604 337.072 539.683 342.79L260.069 612.81C254.148 618.528 245.219 619.783 237.951 615.918L-105.259 433.431C-112.526 429.566 -116.479 421.462 -115.05 413.355L-47.5514 30.5519C-46.1221 22.4457 -39.6355 16.1817 -31.4844 15.0361L353.442 -39.0617Z" stroke="url(#paint21_linear_28_796)" stroke-width="2"/>
<path opacity="0.232323" d="M358.259 -40.0188C366.429 -41.0219 374.316 -36.6503 377.794 -29.1902L541.735 322.381C545.213 329.841 543.493 338.693 537.473 344.307L253.769 608.865C247.749 614.478 238.799 615.577 231.6 611.587L-107.679 423.521C-114.879 419.531 -118.69 411.358 -117.119 403.278L-43.1011 22.4893C-41.5305 14.4093 -34.9356 8.25945 -26.7657 7.25631L358.259 -40.0188Z" stroke="url(#paint22_linear_28_796)" stroke-width="2"/>
<path opacity="0.242424" d="M363.008 -40.8939C371.194 -41.7543 379.003 -37.2457 382.351 -29.726L539.808 323.929C543.156 331.448 541.281 340.269 535.164 345.777L247.476 604.813C241.359 610.32 232.391 611.263 225.262 607.147L-109.996 413.586C-117.125 409.47 -120.793 401.232 -119.081 393.181L-38.5938 14.5171C-36.8824 6.4657 -30.1812 0.431909 -21.995 -0.428486L363.008 -40.8939Z" stroke="url(#paint23_linear_28_796)" stroke-width="2"/>
<path opacity="0.252525" d="M367.688 -41.6876C375.888 -42.405 383.617 -37.7608 386.833 -30.1838L537.785 325.435C541.001 333.012 538.972 341.798 532.76 347.199L241.193 600.654C234.98 606.055 225.997 606.841 218.942 602.601L-112.208 403.626C-119.264 399.387 -122.787 391.086 -120.935 383.066L-34.03 6.63694C-32.1784 -1.38338 -25.3729 -7.29927 -17.1729 -8.01666L367.688 -41.6876Z" stroke="url(#paint24_linear_28_796)" stroke-width="2"/>
<path opacity="0.262626" d="M372.296 -42.4021C380.508 -42.9763 388.155 -38.1978 391.238 -30.5659L535.663 326.899C538.747 334.531 536.565 343.28 530.26 348.571L234.921 596.39C228.615 601.681 219.62 602.31 212.639 597.948L-114.316 393.644C-121.296 389.282 -124.674 380.922 -122.683 372.935L-29.4127 -1.15113C-27.4214 -9.13791 -20.5137 -14.9341 -12.3025 -15.5083L372.296 -42.4021Z" stroke="url(#paint25_linear_28_796)" stroke-width="2"/>
<path opacity="0.272727" d="M376.832 -43.0388C385.052 -43.4696 392.614 -38.5585 395.564 -30.8739L533.444 328.317C536.394 336.001 534.06 344.711 527.663 349.891L228.66 592.019C222.263 597.2 213.258 597.672 206.355 593.188L-116.319 383.641C-123.223 379.158 -126.454 370.74 -124.324 362.789L-24.7445 -8.84639C-22.614 -16.7972 -15.6063 -22.472 -7.38625 -22.9028L376.832 -43.0388Z" stroke="url(#paint26_linear_28_796)" stroke-width="2"/>
<path opacity="0.282828" d="M381.294 -43.5985C389.52 -43.8857 396.996 -38.8433 399.811 -31.1084L531.13 329.689C533.946 337.424 531.46 346.092 524.974 351.159L222.415 587.544C215.929 592.612 206.917 592.926 200.093 588.324L-118.218 373.62C-125.042 369.017 -128.126 360.544 -125.857 352.631L-20.0258 -16.4474C-17.7569 -24.3598 -10.6512 -29.9115 -2.42491 -30.1987L381.294 -43.5985Z" stroke="url(#paint27_linear_28_796)" stroke-width="2"/>
<path opacity="0.292929" d="M385.68 -44.0836C393.91 -44.2273 401.296 -39.0552 403.976 -31.2723L528.721 331.012C531.401 338.795 528.764 347.418 522.19 352.372L216.185 582.963C209.612 587.917 200.596 588.074 193.853 583.353L-120.013 363.582C-126.756 358.861 -129.691 350.335 -127.285 342.463L-15.2598 -23.9545C-12.8532 -31.8261 -5.65169 -37.2529 2.57835 -37.3965L385.68 -44.0836Z" stroke="url(#paint28_linear_28_796)" stroke-width="2"/>
<path opacity="0.30303" d="M389.991 -44.4947C398.223 -44.4947 405.518 -39.1944 408.061 -31.366L526.219 332.287C528.763 340.115 525.976 348.691 519.317 353.529L209.976 578.279C203.317 583.117 194.299 583.117 187.64 578.279L-121.701 353.529C-128.361 348.691 -131.147 340.115 -128.604 332.287L-10.4456 -31.366C-7.90203 -39.1944 -0.60687 -44.4947 7.62442 -44.4947L389.991 -44.4947Z" stroke="url(#paint29_linear_28_796)" stroke-width="2"/>
<path opacity="0.313131" d="M394.224 -44.8339C402.454 -44.6903 409.656 -39.2635 412.062 -31.3919L523.624 333.509C526.03 341.381 523.095 349.907 516.352 354.628L203.785 573.49C197.042 578.212 188.026 578.054 181.452 573.101L-123.286 343.463C-129.86 338.51 -132.497 329.886 -129.817 322.104L-5.58837 -38.682C-2.90852 -46.4648 4.47804 -51.6369 12.7081 -51.4933L394.224 -44.8339Z" stroke="url(#paint30_linear_28_796)" stroke-width="2"/>
<path opacity="0.323232" d="M398.38 -45.1019C406.607 -44.8147 413.712 -39.2631 415.981 -31.3506L520.939 334.68C523.208 342.592 520.124 351.066 513.3 355.669L197.617 568.599C190.793 573.202 181.782 572.887 175.295 567.82L-124.765 333.387C-131.251 328.319 -133.737 319.651 -130.921 311.917L-0.686384 -45.9009C2.12887 -53.6358 9.60458 -58.6783 17.8309 -58.391L398.38 -45.1019Z" stroke="url(#paint31_linear_28_796)" stroke-width="2"/>
<path opacity="0.333333" d="M402.456 -45.3017C410.676 -44.8709 417.683 -39.1962 419.814 -31.2453L518.162 335.796C520.293 343.746 517.061 352.165 510.158 356.648L191.472 563.605C184.569 568.088 175.564 567.616 169.167 562.436L-126.14 323.301C-132.536 318.121 -134.87 309.411 -131.921 301.726L4.25527 -53.0238C7.20509 -60.7084 14.7677 -65.6196 22.9877 -65.1888L402.456 -45.3017Z" stroke="url(#paint32_linear_28_796)" stroke-width="2"/>
<path opacity="0.343434" d="M406.451 -45.4337C414.663 -44.8595 421.57 -39.0633 423.562 -31.0765L515.298 336.856C517.289 344.843 513.911 353.203 506.93 357.565L185.354 558.509C178.373 562.87 169.378 562.241 163.072 556.95L-127.409 313.208C-133.714 307.917 -135.896 299.168 -132.812 291.536L9.23721 -60.0489C12.3207 -67.6808 19.9678 -72.4592 28.1791 -71.885L406.451 -45.4337Z" stroke="url(#paint33_linear_28_796)" stroke-width="2"/>
<path opacity="0.353535" d="M410.364 -45.4998C418.564 -44.7824 425.37 -38.8665 427.221 -30.8462L512.343 337.859C514.195 345.879 510.672 354.179 503.616 358.419L179.261 553.311C172.205 557.55 163.223 556.765 157.01 551.364L-128.574 303.109C-134.787 297.709 -136.815 288.923 -133.599 281.346L14.2551 -66.976C17.4714 -74.5529 25.2007 -79.1972 33.4007 -78.4798L410.364 -45.4998Z" stroke="url(#paint34_linear_28_796)" stroke-width="2"/>
<path opacity="0.363636" d="M414.195 -45.5016C422.381 -44.6412 429.083 -38.6074 430.794 -30.556L509.304 338.803C511.015 346.854 507.347 355.092 500.219 359.208L173.199 548.013C166.07 552.129 157.102 551.186 150.985 545.678L-129.634 293.007C-135.751 287.5 -137.626 278.679 -134.278 271.16L19.3098 -73.8047C22.6578 -81.3243 30.467 -85.833 38.6532 -84.9726L414.195 -45.5016Z" stroke="url(#paint35_linear_28_796)" stroke-width="2"/>
<path opacity="0.373737" d="M417.942 -45.4408C426.112 -44.4376 432.707 -38.2878 434.277 -30.2078L506.178 339.687C507.748 347.767 503.937 355.939 496.738 359.93L167.166 542.615C159.966 546.606 151.016 545.507 144.996 539.893L-130.591 282.904C-136.611 277.29 -138.331 268.438 -134.853 260.978L24.3974 -80.5346C27.8761 -87.9947 35.7629 -92.3664 43.9328 -91.3633L417.942 -45.4408Z" stroke="url(#paint36_linear_28_796)" stroke-width="2"/>
<path opacity="0.383838" d="M421.605 -45.3185C429.756 -44.1729 436.243 -37.909 437.672 -29.8027L502.968 340.51C504.398 348.616 500.445 356.721 493.177 360.585L161.167 537.118C153.899 540.983 144.969 539.728 139.048 534.01L-131.442 272.801C-137.363 267.083 -138.929 258.202 -135.32 250.804L29.5182 -87.165C33.1266 -94.5633 41.0884 -98.7966 49.2396 -97.6511L421.605 -45.3185Z" stroke="url(#paint37_linear_28_796)" stroke-width="2"/>
<path opacity="0.393939" d="M425.182 -45.1371C433.312 -43.8495 439.689 -37.4733 440.976 -29.3433L499.675 341.269C500.963 349.399 496.869 357.434 489.535 361.171L155.201 531.523C147.867 535.26 138.96 533.849 133.14 528.029L-132.189 262.699C-138.01 256.879 -139.42 247.972 -135.684 240.638L34.6684 -93.6961C38.4053 -101.03 46.4398 -105.124 54.5698 -103.836L425.182 -45.1371Z" stroke="url(#paint38_linear_28_796)" stroke-width="2"/>
<path opacity="0.40404" d="M428.675 -44.8973C436.781 -43.468 443.045 -36.9815 444.191 -28.8303L496.302 341.965C497.448 350.116 493.215 358.078 485.816 361.687L149.272 525.83C141.874 529.439 132.994 527.873 127.276 521.952L-132.832 252.602C-138.55 246.681 -139.805 237.752 -135.94 230.484L39.8484 -100.127C43.7127 -107.394 51.8174 -111.347 59.9237 -109.918L428.675 -44.8973Z" stroke="url(#paint39_linear_28_796)" stroke-width="2"/>
<path opacity="0.414141" d="M432.078 -44.6022C440.158 -43.0316 446.308 -36.4367 447.311 -28.2668L492.847 342.595C493.85 350.765 489.479 358.652 482.019 362.13L143.38 520.04C135.919 523.519 127.068 521.798 121.454 515.778L-133.373 242.51C-138.986 236.49 -140.085 227.54 -136.095 220.341L45.053 -106.458C49.0436 -113.657 57.2161 -117.468 65.2961 -115.897L432.078 -44.6022Z" stroke="url(#paint40_linear_28_796)" stroke-width="2"/>
<path opacity="0.424242" d="M435.394 -44.2521C443.445 -42.5408 449.479 -35.8396 450.339 -27.6534L489.313 343.158C490.174 351.344 485.665 359.154 478.145 362.502L137.526 514.155C130.007 517.503 121.186 515.628 115.678 509.511L-133.81 232.427C-139.318 226.31 -140.26 217.342 -136.144 210.213L50.2826 -112.688C54.3982 -119.817 62.636 -123.484 70.6874 -121.773L435.394 -44.2521Z" stroke="url(#paint41_linear_28_796)" stroke-width="2"/>
<path opacity="0.434343" d="M438.622 -43.8491C446.642 -41.9974 452.558 -35.192 453.275 -26.992L485.702 343.654C486.42 351.854 481.776 359.583 474.199 362.799L131.714 508.175C124.137 511.391 115.351 509.363 109.951 503.151L-134.143 222.352C-139.544 216.14 -140.329 207.157 -136.09 200.102L55.5357 -118.817C59.7751 -125.873 68.0757 -129.396 76.096 -127.545L438.622 -43.8491Z" stroke="url(#paint42_linear_28_796)" stroke-width="2"/>
<path opacity="0.444444" d="M441.759 -43.3952C449.746 -41.4038 455.542 -34.4962 456.116 -26.2849L482.015 344.079C482.589 352.291 477.811 359.938 470.179 363.021L125.944 502.101C118.312 505.185 109.563 503.003 104.272 496.698L-134.375 212.289C-139.666 205.984 -140.295 196.988 -135.933 190.008L60.8093 -124.846C65.1712 -131.827 73.5319 -135.205 81.5187 -133.213L441.759 -43.3952Z" stroke="url(#paint43_linear_28_796)" stroke-width="2"/>
<path opacity="0.454545" d="M444.806 -42.8921C452.757 -40.7616 458.432 -33.7539 458.862 -25.5339L478.252 344.434C478.682 352.654 473.771 360.217 466.087 363.167L120.218 495.934C112.533 498.883 103.823 496.549 98.6428 490.153L-134.505 202.239C-139.685 195.842 -140.157 186.837 -135.674 179.933L66.1014 -130.774C70.5844 -137.677 79.0028 -140.909 86.9537 -138.778L444.806 -42.8921Z" stroke="url(#paint44_linear_28_796)" stroke-width="2"/>
<path opacity="0.464646" d="M447.762 -42.341C455.675 -40.0721 461.226 -32.9664 461.514 -24.7401L474.416 344.718C474.703 352.944 469.66 360.42 461.925 363.235L114.537 489.674C106.802 492.489 98.1339 490.004 93.0663 483.518L-134.533 192.203C-139.601 185.717 -139.916 176.705 -135.313 169.881L71.4113 -136.6C76.0142 -143.424 84.4877 -146.508 92.4001 -144.239L447.762 -42.341Z" stroke="url(#paint45_linear_28_796)" stroke-width="2"/>
<path opacity="0.474747" d="M450.628 -41.7435C458.5 -39.3369 463.926 -32.1354 464.07 -23.9053L470.508 344.929C470.652 353.159 465.48 360.546 457.697 363.225L108.904 483.324C101.121 486.004 92.4978 483.368 87.5441 476.794L-134.46 182.185C-139.413 175.611 -139.571 166.595 -134.85 159.853L76.7373 -142.325C81.4586 -149.068 89.9846 -152.003 97.8562 -149.597L450.628 -41.7435Z" stroke="url(#paint46_linear_28_796)" stroke-width="2"/>
<path opacity="0.484848" d="M453.401 -41.1022C461.23 -38.5586 466.53 -31.2634 466.53 -23.0321L466.53 345.066C466.53 353.297 461.23 360.592 453.401 363.136L103.319 476.884C95.491 479.428 86.915 476.641 82.0768 469.982L-134.286 172.185C-139.124 165.525 -139.124 156.508 -134.286 149.849L82.0767 -147.948C86.915 -154.608 95.491 -157.394 103.319 -154.851L453.401 -41.1022Z" stroke="url(#paint47_linear_28_796)" stroke-width="2"/>
<path opacity="0.494949" d="M456.082 -40.418C463.865 -37.7382 469.037 -30.3516 468.894 -22.1216L462.483 345.127C462.34 353.357 456.913 360.559 449.041 362.966L97.7858 470.355C89.9141 472.762 81.3881 469.826 76.6668 463.083L-134.011 162.205C-138.732 155.462 -138.575 146.446 -133.621 139.872L87.4287 -153.47C92.3824 -160.044 101.006 -162.681 108.789 -160.001L456.082 -40.418Z" stroke="url(#paint48_linear_28_796)" stroke-width="2"/>
<path opacity="0.50505" d="M458.668 -39.6938C466.403 -36.8785 471.445 -29.4028 471.158 -21.1765L458.367 345.113C458.08 353.339 452.528 360.444 444.616 362.713L92.3013 463.738C84.3889 466.007 75.9154 462.923 71.3125 456.099L-133.639 152.246C-138.241 145.422 -137.927 136.41 -132.859 129.924L92.7884 -158.892C97.856 -165.378 106.524 -167.864 114.259 -165.048L458.668 -39.6938Z" stroke="url(#paint49_linear_28_796)" stroke-width="2"/>
<path opacity="0.515152" d="M461.161 -38.9302C468.845 -35.9804 473.756 -28.4178 473.326 -20.1978L454.185 345.021C453.754 353.241 448.08 360.248 440.129 362.379L86.871 457.034C78.9202 459.164 70.5017 455.933 66.0187 449.03L-133.167 142.311C-137.65 135.408 -137.178 126.403 -131.998 120.006L98.1572 -164.211C103.337 -170.608 112.047 -172.942 119.732 -169.992L461.161 -38.9302Z" stroke="url(#paint50_linear_28_796)" stroke-width="2"/>
<path opacity="0.525253" d="M463.559 -38.1289C471.191 -35.0455 475.97 -27.3983 475.396 -19.1871L449.94 344.851C449.365 353.062 443.569 359.97 435.582 361.961L81.4956 450.245C73.5087 452.236 65.148 448.858 60.7861 441.878L-132.596 132.402C-136.958 125.422 -136.329 116.426 -131.038 110.121L103.533 -169.429C108.824 -175.735 117.573 -177.916 125.205 -174.833L463.559 -38.1289Z" stroke="url(#paint51_linear_28_796)" stroke-width="2"/>
<path opacity="0.535354" d="M465.863 -37.2926C473.44 -34.0763 478.084 -26.347 477.367 -18.147L445.63 344.601C444.913 352.801 438.997 359.607 430.977 361.459L76.1754 443.371C68.155 445.223 59.8545 441.699 55.6151 434.644L-131.928 122.52C-136.167 115.464 -135.381 106.481 -129.981 100.269L108.912 -174.547C114.313 -180.759 123.099 -182.787 130.676 -179.571L465.863 -37.2926Z" stroke="url(#paint52_linear_28_796)" stroke-width="2"/>
<path opacity="0.545455" d="M468.071 -36.4226C475.591 -33.0746 480.1 -25.2654 479.239 -17.0792L441.26 344.272C440.399 352.458 434.366 359.159 426.314 360.871L70.9128 436.414C62.8614 438.125 54.6236 434.457 50.508 427.329L-131.163 112.666C-135.278 105.537 -134.336 96.5694 -128.828 90.4524L114.295 -179.563C119.803 -185.68 128.623 -187.555 136.143 -184.207L468.071 -36.4226Z" stroke="url(#paint53_linear_28_796)" stroke-width="2"/>
<path opacity="0.555556" d="M470.185 -35.5201C477.645 -32.0414 482.016 -24.1546 481.013 -15.9847L436.83 343.862C435.826 352.031 429.677 358.626 421.597 360.197L65.7091 429.374C57.629 430.945 49.4565 427.134 45.4659 419.935L-130.301 102.843C-134.292 95.6435 -133.193 86.6934 -127.579 80.6735L119.678 -184.478C125.292 -190.498 134.144 -192.218 141.604 -188.74L470.185 -35.5201Z" stroke="url(#paint54_linear_28_796)" stroke-width="2"/>
<path opacity="0.565657" d="M472.201 -34.5877C479.599 -30.9793 483.832 -23.0175 482.687 -14.8663L432.34 343.369C431.195 351.52 424.931 358.007 416.824 359.436L60.5644 422.254C52.4582 423.684 44.3535 419.731 40.4891 412.463L-129.345 93.0515C-133.209 85.7837 -131.954 76.8541 -126.236 70.933L125.06 -189.292C130.778 -195.213 139.659 -196.779 147.057 -193.171L472.201 -34.5877Z" stroke="url(#paint55_linear_28_796)" stroke-width="2"/>
<path opacity="0.575758" d="M474.122 -33.6269C481.456 -29.89 485.55 -21.8555 484.262 -13.7255L427.795 342.794C426.507 350.923 420.131 357.3 412.001 358.587L55.4822 415.055C47.3522 416.342 39.3177 412.248 35.5808 404.914L-128.293 83.2938C-132.03 75.9596 -130.619 67.0533 -124.799 61.2329L130.44 -194.007C136.261 -199.827 145.167 -201.238 152.501 -197.501L474.122 -33.6269Z" stroke="url(#paint56_linear_28_796)" stroke-width="2"/>
<path opacity="0.585859" d="M475.945 -32.6394C483.213 -28.775 487.166 -20.6703 485.736 -12.5641L423.193 342.135C421.764 350.241 415.277 356.505 407.126 357.65L50.4611 407.776C42.3099 408.922 34.3481 404.688 30.7397 397.29L-127.149 73.5713C-130.757 66.173 -129.191 57.2927 -123.27 51.5748L135.815 -198.621C141.736 -204.339 150.666 -205.594 157.933 -201.729L475.945 -32.6394Z" stroke="url(#paint57_linear_28_796)" stroke-width="2"/>
<path opacity="0.59596" d="M477.672 -31.6272C484.871 -27.6367 488.682 -19.4642 487.112 -11.3841L418.539 341.391C416.968 349.471 410.374 355.621 402.204 356.624L45.5048 400.421C37.3349 401.424 29.4481 397.052 25.9694 389.592L-125.91 63.8856C-129.389 56.4255 -127.668 47.5738 -121.648 41.9601L141.184 -203.135C147.204 -208.749 156.154 -209.848 163.353 -205.857L477.672 -31.6272Z" stroke="url(#paint58_linear_28_796)" stroke-width="2"/>
<path opacity="0.606061" d="M479.302 -30.5916C486.43 -26.4759 490.098 -18.2382 488.386 -10.1868L413.832 340.562C412.121 348.614 405.42 354.647 397.234 355.508L40.6132 392.99C32.4269 393.851 24.6177 389.342 21.2697 381.822L-124.58 54.2386C-127.928 46.7189 -126.053 37.8986 -119.936 32.3908L146.544 -207.549C152.661 -213.057 161.629 -214 168.758 -209.884L479.302 -30.5916Z" stroke="url(#paint59_linear_28_796)" stroke-width="2"/>
<path opacity="0.616162" d="M480.834 -29.5347C487.89 -25.2953 491.413 -16.9948 489.561 -8.97449L409.076 339.647C407.224 347.668 400.418 353.584 392.219 354.301L35.7879 385.485C27.5879 386.202 19.8585 381.558 16.6423 373.981L-123.158 44.6316C-126.374 37.0547 -124.346 28.2684 -118.134 22.8682L151.895 -211.865C158.108 -217.265 167.091 -218.051 174.146 -213.811L480.834 -29.5347Z" stroke="url(#paint60_linear_28_796)" stroke-width="2"/>
<path opacity="0.626263" d="M482.268 -28.4586C489.249 -24.0967 492.627 -15.736 490.635 -7.74923L404.269 338.646C402.278 346.633 395.37 352.429 387.159 353.003L31.0294 377.906C22.8182 378.48 15.1711 373.702 12.0876 366.07L-121.647 35.0658C-124.73 27.4339 -122.549 18.6844 -116.243 13.3934L157.234 -216.081C163.54 -221.372 172.535 -222.001 179.516 -217.639L482.268 -28.4586Z" stroke="url(#paint61_linear_28_796)" stroke-width="2"/>
<path opacity="0.636364" d="M483.605 -27.3651C490.508 -22.882 493.74 -14.4636 491.609 -6.5128L399.416 337.557C397.286 345.507 390.278 351.182 382.058 351.613L26.3394 370.255C18.1194 370.686 10.5568 365.775 7.60697 358.09L-120.046 25.5427C-122.996 17.8582 -120.662 9.14811 -114.265 3.96797L162.559 -220.2C168.956 -225.38 177.961 -225.852 184.865 -221.369L483.605 -27.3651Z" stroke="url(#paint62_linear_28_796)" stroke-width="2"/>
<path opacity="0.646465" d="M484.845 -26.2551C491.669 -21.6522 494.753 -13.1787 492.484 -5.26627L394.518 336.38C392.25 344.292 385.144 349.844 376.918 350.131L21.7201 362.535C13.4939 362.822 6.01816 357.78 3.20289 350.045L-118.356 16.0648C-121.171 8.32989 -118.686 -0.338118 -112.199 -5.4058L167.871 -224.221C174.357 -229.288 183.369 -229.603 190.193 -225L484.845 -26.2551Z" stroke="url(#paint63_linear_28_796)" stroke-width="2"/>
<path opacity="0.656566" d="M485.985 -25.131C492.728 -20.4097 495.664 -11.8836 493.257 -4.01203L389.576 335.114C387.169 342.986 379.968 348.412 371.738 348.556L17.1707 354.745C8.94059 354.889 1.55405 349.717 -1.1258 341.934L-116.579 6.63279C-119.259 -1.15005 -116.623 -9.77339 -110.049 -14.7271L173.164 -228.144C179.738 -233.097 188.754 -233.255 195.497 -228.533L485.985 -25.131Z" stroke="url(#paint64_linear_28_796)" stroke-width="2"/>
<path opacity="0.666667" d="M487.03 -23.9942C493.689 -19.156 496.476 -10.58 493.932 -2.75157L384.593 333.759C382.05 341.588 374.755 346.888 366.523 346.888L12.6948 346.888C4.46348 346.888 -2.83167 341.588 -5.37528 333.759L-114.714 -2.7515C-117.258 -10.5799 -114.471 -19.1559 -107.812 -23.9941L178.441 -231.969C185.1 -236.808 194.118 -236.808 200.777 -231.969L487.03 -23.9942Z" stroke="url(#paint65_linear_28_796)" stroke-width="2"/>
<path opacity="0.676768" d="M487.976 -22.8473C494.55 -17.8936 497.186 -9.27029 494.506 -1.48743L379.569 332.315C376.889 340.097 369.503 345.269 361.273 345.126L8.29049 338.965C0.0604921 338.821 -7.1411 333.394 -9.5477 325.522L-112.765 -12.0873C-115.172 -19.959 -112.236 -28.485 -105.494 -33.2063L183.696 -235.699C190.439 -240.421 199.455 -240.263 206.029 -235.309L487.976 -22.8473Z" stroke="url(#paint66_linear_28_796)" stroke-width="2"/>
<path opacity="0.686869" d="M488.824 -21.6909C495.31 -16.6232 497.796 -7.95519 494.981 -0.220321L374.506 330.78C371.691 338.515 364.215 343.557 355.989 343.27L3.96073 330.977C-4.2655 330.69 -11.3713 325.138 -13.6401 317.225L-110.731 -21.3722C-113 -29.2846 -109.916 -37.7581 -103.092 -42.361L188.931 -239.333C195.755 -243.936 204.766 -243.621 211.253 -238.553L488.824 -21.6909Z" stroke="url(#paint67_linear_28_796)" stroke-width="2"/>
<path opacity="0.69697" d="M489.575 -20.5278C495.972 -15.3476 498.305 -6.63759 495.356 1.04701L369.407 329.154C366.457 336.839 358.895 341.75 350.675 341.319L-0.293944 322.926C-8.51403 322.495 -15.5218 316.82 -17.6522 308.869L-108.614 -30.6056C-110.745 -38.5565 -107.513 -46.9749 -100.61 -51.458L194.141 -242.872C201.045 -247.355 210.05 -246.883 216.446 -241.703L489.575 -20.5278Z" stroke="url(#paint68_linear_28_796)" stroke-width="2"/>
<path opacity="0.707071" d="M490.226 -19.3596C496.532 -14.0686 498.713 -5.31919 495.63 2.31271L364.271 327.437C361.188 335.069 353.54 339.847 345.329 339.273L-4.47415 314.812C-12.6853 314.238 -19.5931 308.442 -21.5844 300.455L-106.416 -39.7864C-108.407 -47.7732 -105.03 -56.1339 -98.049 -60.4958L199.325 -246.316C206.306 -250.678 215.301 -250.049 221.607 -244.758L490.226 -19.3596Z" stroke="url(#paint69_linear_28_796)" stroke-width="2"/>
<path opacity="0.717172" d="M490.782 -18.1873C496.994 -12.7871 499.023 -4.00089 495.806 3.57607L359.103 325.628C355.887 333.205 348.158 337.85 339.958 337.132L-8.57573 306.64C-16.7757 305.922 -23.5812 300.006 -25.4328 291.986L-104.135 -48.912C-105.987 -56.9323 -102.464 -65.2328 -95.408 -69.4722L204.485 -249.666C211.54 -253.905 220.523 -253.119 226.736 -247.719L490.782 -18.1873Z" stroke="url(#paint70_linear_28_796)" stroke-width="2"/>
<path opacity="0.727273" d="M491.239 -17.0136C497.356 -11.5058 499.231 -2.68556 495.883 4.83408L353.903 323.727C350.555 331.247 342.745 335.756 334.559 334.895L-12.6007 298.407C-20.7869 297.547 -27.488 291.513 -29.1994 283.462L-101.776 -57.9823C-103.487 -66.0337 -99.8193 -74.2715 -92.6908 -78.3871L209.614 -252.923C216.743 -257.039 225.711 -256.096 231.828 -250.588L491.239 -17.0136Z" stroke="url(#paint71_linear_28_796)" stroke-width="2"/>
<path opacity="0.737374" d="M491.599 -15.8396C497.619 -10.2259 499.34 -1.37422 495.861 6.08585L348.672 321.734C345.193 329.194 337.307 333.566 329.137 332.563L-16.5467 290.118C-24.7166 289.115 -31.3115 282.965 -32.8821 274.885L-99.3369 -66.9952C-100.908 -75.0753 -97.0966 -83.2478 -89.8974 -87.2384L214.715 -256.088C221.914 -260.078 230.864 -258.979 236.884 -253.366L491.599 -15.8396Z" stroke="url(#paint72_linear_28_796)" stroke-width="2"/>
<path opacity="0.747475" d="M491.862 -14.6677C497.783 -8.94982 499.349 -0.069508 495.74 7.32875L343.412 319.648C339.804 327.046 331.842 331.279 323.691 330.134L-20.414 281.773C-28.5652 280.627 -35.0517 274.363 -36.481 266.257L-96.8215 -75.9504C-98.2508 -84.0566 -94.2979 -92.1613 -87.0301 -96.0257L219.782 -259.161C227.05 -263.025 235.98 -261.77 241.901 -256.052L491.862 -14.6677Z" stroke="url(#paint73_linear_28_796)" stroke-width="2"/>
<path opacity="0.757576" d="M492.029 -13.4985C497.85 -7.67811 499.26 1.2282 495.523 8.56233L338.128 317.469C334.391 324.803 326.356 328.897 318.226 327.609L-24.1993 273.374C-32.3292 272.087 -38.7054 265.71 -39.9931 257.58L-94.228 -84.845C-95.5157 -92.975 -91.4218 -101.009 -84.0878 -104.746L224.819 -262.142C232.153 -265.879 241.059 -264.469 246.88 -258.648L492.029 -13.4985Z" stroke="url(#paint74_linear_28_796)" stroke-width="2"/>
<path opacity="0.767677" d="M492.099 -12.3347C497.817 -6.41357 499.072 2.51598 495.208 9.78379L332.817 315.196C328.953 322.464 320.848 326.417 312.742 324.988L-27.9047 264.923C-36.0108 263.493 -42.2748 257.007 -43.4204 248.856L-91.5606 -93.6792C-92.7062 -101.83 -88.4727 -109.792 -81.0746 -113.401L229.819 -265.034C237.218 -268.642 246.098 -267.076 251.816 -261.155L492.099 -12.3347Z" stroke="url(#paint75_linear_28_796)" stroke-width="2"/>
<path opacity="0.777778" d="M492.072 -11.178C497.686 -5.15799 498.785 3.7921 494.794 10.9914L327.482 312.83C323.492 320.029 315.319 323.84 307.239 322.27L-31.5284 256.42C-39.6086 254.849 -45.7583 248.254 -46.7615 240.084L-88.8196 -102.452C-89.8228 -110.622 -85.4511 -118.508 -77.991 -121.987L234.783 -267.836C242.243 -271.315 251.095 -269.594 256.709 -263.574L492.072 -11.178Z" stroke="url(#paint76_linear_28_796)" stroke-width="2"/>
<path opacity="0.787879" d="M491.949 -10.0296C497.457 -3.91262 498.4 5.05531 494.284 12.1838L322.126 310.37C318.011 317.499 309.773 321.166 301.721 319.455L-35.0702 247.868C-43.1217 246.156 -49.1554 239.455 -50.0158 231.269L-86.0067 -111.161C-86.8671 -119.347 -82.3584 -127.156 -74.8388 -130.504L239.709 -270.55C247.229 -273.898 256.049 -272.023 261.557 -265.906L491.949 -10.0296Z" stroke="url(#paint77_linear_28_796)" stroke-width="2"/>
<path opacity="0.79798" d="M491.733 -8.8913C497.133 -2.67905 497.919 6.30394 493.679 13.3595L316.752 307.816C312.512 314.872 304.212 318.395 296.192 316.544L-38.5269 239.268C-46.5472 237.416 -52.4631 230.611 -53.1805 222.411L-83.1205 -119.805C-83.838 -128.005 -79.1937 -135.734 -71.6168 -138.951L244.598 -273.176C252.175 -276.392 260.961 -274.364 266.361 -268.151L491.733 -8.8913Z" stroke="url(#paint78_linear_28_796)" stroke-width="2"/>
<path opacity="0.808081" d="M491.419 -7.76501C496.71 -1.45949 497.339 7.53585 492.977 14.5164L311.358 305.168C306.996 312.149 298.635 315.527 290.648 313.535L-41.9013 230.621C-49.888 228.63 -55.6843 221.722 -56.2585 213.511L-80.1661 -128.384C-80.7403 -136.595 -75.9618 -144.243 -68.33 -147.326L249.444 -275.715C257.076 -278.799 265.825 -276.617 271.116 -270.312L491.419 -7.76501Z" stroke="url(#paint79_linear_28_796)" stroke-width="2"/>
<path opacity="0.818182" d="M491.013 -6.65221C496.193 -0.255311 496.665 8.74967 492.182 15.653L305.949 302.426C301.466 309.329 293.048 312.561 285.097 310.43L-45.1895 221.93C-53.1403 219.8 -58.8151 212.792 -59.2459 204.572L-77.1416 -136.897C-77.5724 -145.117 -72.6611 -152.679 -64.9766 -155.629L254.25 -278.168C261.934 -281.118 270.644 -278.784 275.824 -272.388L491.013 -6.65221Z" stroke="url(#paint80_linear_28_796)" stroke-width="2"/>
<path opacity="0.828283" d="M490.511 -5.55456C495.579 0.9318 495.893 9.94361 491.29 16.7677L300.525 299.589C295.922 306.414 287.448 309.498 279.536 307.229L-48.3934 213.197C-56.3059 210.928 -61.8575 203.822 -62.1448 195.596L-74.0506 -145.341C-74.3379 -153.567 -69.2954 -161.043 -61.5606 -163.858L259.011 -280.537C266.746 -283.352 275.414 -280.867 280.481 -274.38L490.511 -5.55456Z" stroke="url(#paint81_linear_28_796)" stroke-width="2"/>
<path opacity="0.838384" d="M489.916 -4.47358C494.87 2.10021 495.027 11.1161 490.306 17.8588L295.088 296.659C290.367 303.402 281.841 306.337 273.969 303.931L-51.5113 204.422C-59.3828 202.015 -64.8096 194.813 -64.9533 186.583L-70.8933 -153.717C-71.0369 -161.947 -65.8648 -169.334 -58.082 -172.013L263.727 -282.821C271.51 -285.501 280.133 -282.865 285.087 -276.291L489.916 -4.47358Z" stroke="url(#paint82_linear_28_796)" stroke-width="2"/>
<path opacity="0.848485" d="M489.227 -3.41161C494.065 3.24766 494.065 12.265 489.227 18.9242L289.639 293.634C284.801 300.293 276.225 303.079 268.396 300.536L-54.5439 195.606C-62.3722 193.063 -67.6725 185.767 -67.6725 177.536L-67.6726 -162.023C-67.6726 -170.255 -62.3723 -177.55 -54.5439 -180.093L268.396 -285.023C276.225 -287.567 284.801 -284.78 289.639 -278.121L489.227 -3.41161Z" stroke="url(#paint83_linear_28_796)" stroke-width="2"/>
<path opacity="0.858586" d="M488.447 -2.36935C493.168 4.37332 493.011 13.3892 488.057 19.9631L284.182 290.514C279.228 297.088 270.605 299.724 262.822 297.044L-57.488 186.753C-65.2708 184.073 -70.4429 176.686 -70.2993 168.456L-64.387 -170.259C-64.2433 -178.489 -58.8165 -185.69 -50.945 -188.097L273.019 -287.143C280.891 -289.549 289.417 -286.613 294.138 -279.871L488.447 -2.36935Z" stroke="url(#paint84_linear_28_796)" stroke-width="2"/>
<path opacity="0.868687" d="M487.573 -1.34918C492.176 5.47489 491.862 14.4867 486.794 20.9731L278.716 287.3C273.649 293.786 264.981 296.272 257.246 293.457L-60.3457 177.863C-68.0806 175.048 -73.123 167.572 -72.8358 159.346L-61.0407 -178.422C-60.7534 -186.649 -55.2017 -193.754 -47.2894 -196.023L277.592 -289.181C285.504 -291.45 293.978 -288.366 298.581 -281.542L487.573 -1.34918Z" stroke="url(#paint85_linear_28_796)" stroke-width="2"/>
<path opacity="0.878788" d="M486.608 -0.352282C491.091 6.55108 490.619 15.556 485.439 21.9529L273.244 283.992C268.064 290.389 259.354 292.723 251.669 289.773L-63.1164 168.938C-70.8009 165.988 -75.7121 158.426 -75.2813 150.206L-57.6347 -186.513C-57.2039 -194.734 -51.5291 -201.741 -43.5783 -203.872L282.114 -291.141C290.064 -293.271 298.483 -290.04 302.966 -283.136L486.608 -0.352282Z" stroke="url(#paint86_linear_28_796)" stroke-width="2"/>
<path opacity="0.888889" d="M485.553 0.619785C489.915 7.6003 489.286 16.5957 483.995 22.9012L267.768 280.59C262.477 286.895 253.728 289.077 246.096 285.993L-65.7979 159.98C-73.4298 156.896 -78.2083 149.249 -77.6341 141.038L-54.1688 -194.531C-53.5947 -202.742 -47.7984 -209.65 -39.8117 -211.641L286.585 -293.021C294.571 -295.012 302.932 -291.634 307.294 -284.654L485.553 0.619785Z" stroke="url(#paint87_linear_28_796)" stroke-width="2"/>
<path opacity="0.89899" d="M484.407 1.56511C488.646 8.62069 487.86 17.6037 482.46 23.8159L262.29 277.093C256.889 283.305 248.103 285.334 240.526 282.118L-68.3911 150.99C-75.968 147.774 -80.6123 140.044 -79.8949 131.845L-50.6459 -202.474C-49.9284 -210.674 -44.0125 -217.48 -35.9922 -219.331L291.002 -294.824C299.022 -296.675 307.323 -293.152 311.562 -286.097L484.407 1.56511Z" stroke="url(#paint88_linear_28_796)" stroke-width="2"/>
<path opacity="0.909091" d="M483.17 2.48256C487.286 9.61106 486.343 18.579 480.836 24.696L256.809 273.503C251.301 279.62 242.481 281.495 234.961 278.147L-70.8967 141.97C-78.4164 138.622 -82.9251 130.813 -82.0647 122.627L-47.0682 -210.342C-46.2078 -218.528 -40.174 -225.229 -32.1227 -226.941L295.364 -296.55C303.415 -298.261 311.653 -294.594 315.769 -287.465L483.17 2.48256Z" stroke="url(#paint89_linear_28_796)" stroke-width="2"/>
<path opacity="0.919192" d="M481.847 3.37073C485.838 10.57 484.739 19.5201 479.125 25.5401L251.331 269.82C245.717 275.84 236.865 277.56 229.405 274.082L-73.3107 132.923C-80.7708 129.444 -85.1425 121.557 -84.1394 113.387L-43.4338 -218.133C-42.4306 -226.303 -36.2808 -232.898 -28.2008 -234.469L299.673 -298.201C307.753 -299.771 315.925 -295.96 319.916 -288.761L481.847 3.37073Z" stroke="url(#paint90_linear_28_796)" stroke-width="2"/>
<path opacity="0.929293" d="M480.435 4.2275C484.299 11.4953 483.044 20.4249 477.326 26.3459L245.854 266.043C240.136 271.964 231.256 273.529 223.858 269.921L-75.6362 123.848C-83.0344 120.24 -87.2678 112.278 -86.1222 104.127L-39.7474 -225.848C-38.6018 -233.999 -32.3378 -240.485 -24.2316 -241.915L303.924 -299.777C312.03 -301.207 320.134 -297.254 323.999 -289.986L480.435 4.2275Z" stroke="url(#paint91_linear_28_796)" stroke-width="2"/>
<path opacity="0.939394" d="M478.935 5.05163C482.672 12.3858 481.261 21.2921 475.441 27.1125L240.381 262.172C234.561 267.993 225.654 269.403 218.32 265.666L-77.8725 114.749C-85.2066 111.012 -89.3004 102.977 -88.0127 94.8474L-36.0101 -233.485C-34.7224 -241.615 -28.3461 -247.991 -20.2162 -249.279L308.116 -301.281C316.246 -302.569 324.28 -298.475 328.017 -291.141L478.935 5.05163Z" stroke="url(#paint92_linear_28_796)" stroke-width="2"/>
<path opacity="0.949495" d="M477.347 5.84122C480.956 13.2394 479.39 22.1198 473.469 27.8377L234.913 258.209C228.992 263.927 220.062 265.182 212.794 261.317L-80.0194 105.625C-87.2873 101.761 -91.2402 93.6564 -89.8109 85.5501L-32.2236 -241.044C-30.7943 -249.15 -24.3077 -255.414 -16.1566 -256.559L312.248 -302.714C320.399 -303.859 328.361 -299.626 331.969 -292.228L477.347 5.84122Z" stroke="url(#paint93_linear_28_796)" stroke-width="2"/>
<path opacity="0.959596" d="M475.676 6.59607C479.155 14.0561 477.434 22.9078 471.414 28.5215L229.454 254.153C223.434 259.767 214.484 260.866 207.285 256.875L-82.0739 96.4814C-89.2732 92.4907 -93.0841 84.3183 -91.5135 76.2382L-28.3864 -248.523C-26.8158 -256.603 -20.2209 -262.752 -12.051 -263.756L316.322 -304.075C324.492 -305.078 332.379 -300.706 335.858 -293.246L475.676 6.59607Z" stroke="url(#paint94_linear_28_796)" stroke-width="2"/>
<path opacity="0.969697" d="M473.919 7.31333C477.266 14.833 475.392 23.6533 469.275 29.161L224.002 250.005C217.885 255.513 208.917 256.456 201.789 252.34L-84.0399 87.3168C-91.1683 83.2012 -94.8361 74.9634 -93.1247 66.912L-24.5042 -255.922C-22.7928 -263.974 -16.0916 -270.007 -7.90542 -270.868L320.333 -305.367C328.519 -306.227 336.329 -301.719 339.676 -294.199L473.919 7.31333Z" stroke="url(#paint95_linear_28_796)" stroke-width="2"/>
<path opacity="0.979798" d="M472.079 7.99286C475.295 15.5698 473.267 24.356 467.055 29.7562L218.564 245.766C212.352 251.166 203.369 251.952 196.313 247.713L-85.9126 78.1347C-92.9683 73.8952 -96.4916 65.5947 -94.6399 57.5744L-20.574 -263.241C-18.7224 -271.261 -11.9168 -277.177 -3.71693 -277.894L324.284 -306.591C332.484 -307.308 340.213 -302.664 343.429 -295.087L472.079 7.99286Z" stroke="url(#paint96_linear_28_796)" stroke-width="2"/>
<path opacity="0.989899" d="M470.154 8.63169C473.238 16.2636 471.056 25.0131 464.751 30.3041L213.135 241.435C206.83 246.726 197.834 247.355 190.854 242.993L-87.697 68.9351C-94.6776 64.5731 -98.0555 56.2124 -96.0642 48.2256L-16.6023 -270.479C-14.611 -278.466 -7.70325 -284.262 0.507935 -284.836L328.169 -307.748C336.38 -308.322 344.027 -303.544 347.111 -295.912L470.154 8.63169Z" stroke="url(#paint97_linear_28_796)" stroke-width="2"/>
<path d="M468.148 9.2297C471.098 16.9143 468.764 25.6243 462.367 30.8044L207.721 237.013C201.324 242.193 192.319 242.665 185.416 238.182L-89.39 59.7208C-96.2934 55.2377 -99.5249 46.8193 -97.3945 38.8685L-12.5877 -277.635C-10.4573 -285.586 -3.4495 -291.26 4.77051 -291.691L331.99 -308.84C340.21 -309.271 347.772 -304.36 350.722 -296.675L468.148 9.2297Z" stroke="url(#paint98_linear_28_796)" stroke-width="2"/>
<defs>
<linearGradient id="paint0_linear_28_796" x1="-7.88916" y1="335.588" x2="428.397" y2="389.158" gradientUnits="userSpaceOnUse">
<stop stop-color="white"/>
<stop offset="1" stop-color="white"/>
</linearGradient>
<linearGradient id="paint1_linear_28_796" x1="-7.27588" y1="327.652" x2="427.215" y2="388.716" gradientUnits="userSpaceOnUse">
<stop stop-color="white"/>
<stop offset="1" stop-color="white"/>
</linearGradient>
<linearGradient id="paint2_linear_28_796" x1="-6.60065" y1="319.738" x2="425.966" y2="388.25" gradientUnits="userSpaceOnUse">
<stop stop-color="white"/>
<stop offset="1" stop-color="white"/>
</linearGradient>
<linearGradient id="paint3_linear_28_796" x1="-5.86318" y1="311.847" x2="424.652" y2="387.758" gradientUnits="userSpaceOnUse">
<stop stop-color="white"/>
<stop offset="1" stop-color="white"/>
</linearGradient>
<linearGradient id="paint4_linear_28_796" x1="-5.06423" y1="303.981" x2="423.273" y2="387.241" gradientUnits="userSpaceOnUse">
<stop stop-color="white"/>
<stop offset="1" stop-color="white"/>
</linearGradient>
<linearGradient id="paint5_linear_28_796" x1="-4.20183" y1="296.141" x2="421.833" y2="386.697" gradientUnits="userSpaceOnUse">
<stop stop-color="white"/>
<stop offset="1" stop-color="white"/>
</linearGradient>
<linearGradient id="paint6_linear_28_796" x1="-3.27909" y1="288.328" x2="420.329" y2="386.125" gradientUnits="userSpaceOnUse">
<stop stop-color="white"/>
<stop offset="1" stop-color="white"/>
</linearGradient>
<linearGradient id="paint7_linear_28_796" x1="-2.29741" y1="280.542" x2="418.761" y2="385.523" gradientUnits="userSpaceOnUse">
<stop stop-color="white"/>
<stop offset="1" stop-color="white"/>
</linearGradient>
<linearGradient id="paint8_linear_28_796" x1="-1.25498" y1="272.785" x2="417.132" y2="384.891" gradientUnits="userSpaceOnUse">
<stop stop-color="white"/>
<stop offset="1" stop-color="white"/>
</linearGradient>
<linearGradient id="paint9_linear_28_796" x1="-0.152673" y1="265.058" x2="415.443" y2="384.228" gradientUnits="userSpaceOnUse">
<stop stop-color="white"/>
<stop offset="1" stop-color="white"/>
</linearGradient>
<linearGradient id="paint10_linear_28_796" x1="1.00636" y1="257.361" x2="413.692" y2="383.532" gradientUnits="userSpaceOnUse">
<stop stop-color="white"/>
<stop offset="1" stop-color="white"/>
</linearGradient>
<linearGradient id="paint11_linear_28_796" x1="2.22489" y1="249.697" x2="411.883" y2="382.803" gradientUnits="userSpaceOnUse">
<stop stop-color="white"/>
<stop offset="1" stop-color="white"/>
</linearGradient>
<linearGradient id="paint12_linear_28_796" x1="3.49879" y1="242.065" x2="410.013" y2="382.039" gradientUnits="userSpaceOnUse">
<stop stop-color="white"/>
<stop offset="1" stop-color="white"/>
</linearGradient>
<linearGradient id="paint13_linear_28_796" x1="4.82942" y1="234.467" x2="408.085" y2="381.24" gradientUnits="userSpaceOnUse">
<stop stop-color="white"/>
<stop offset="1" stop-color="white"/>
</linearGradient>
<linearGradient id="paint14_linear_28_796" x1="6.21679" y1="226.904" x2="406.1" y2="380.405" gradientUnits="userSpaceOnUse">
<stop stop-color="white"/>
<stop offset="1" stop-color="white"/>
</linearGradient>
<linearGradient id="paint15_linear_28_796" x1="7.65848" y1="219.376" x2="404.058" y2="379.532" gradientUnits="userSpaceOnUse">
<stop stop-color="white"/>
<stop offset="1" stop-color="white"/>
</linearGradient>
<linearGradient id="paint16_linear_28_796" x1="9.15355" y1="211.884" x2="401.96" y2="378.62" gradientUnits="userSpaceOnUse">
<stop stop-color="white"/>
<stop offset="1" stop-color="white"/>
</linearGradient>
<linearGradient id="paint17_linear_28_796" x1="10.7031" y1="204.43" x2="399.807" y2="377.671" gradientUnits="userSpaceOnUse">
<stop stop-color="white"/>
<stop offset="1" stop-color="white"/>
</linearGradient>
<linearGradient id="paint18_linear_28_796" x1="12.3045" y1="197.014" x2="397.598" y2="376.68" gradientUnits="userSpaceOnUse">
<stop stop-color="white"/>
<stop offset="1" stop-color="white"/>
</linearGradient>
<linearGradient id="paint19_linear_28_796" x1="13.9601" y1="189.638" x2="395.339" y2="375.649" gradientUnits="userSpaceOnUse">
<stop stop-color="white"/>
<stop offset="1" stop-color="white"/>
</linearGradient>
<linearGradient id="paint20_linear_28_796" x1="15.6641" y1="182.301" x2="393.024" y2="374.576" gradientUnits="userSpaceOnUse">
<stop stop-color="white"/>
<stop offset="1" stop-color="white"/>
</linearGradient>
<linearGradient id="paint21_linear_28_796" x1="17.4203" y1="175.005" x2="390.658" y2="373.46" gradientUnits="userSpaceOnUse">
<stop stop-color="white"/>
<stop offset="1" stop-color="white"/>
</linearGradient>
<linearGradient id="paint22_linear_28_796" x1="19.2245" y1="167.751" x2="388.241" y2="372.3" gradientUnits="userSpaceOnUse">
<stop stop-color="white"/>
<stop offset="1" stop-color="white"/>
</linearGradient>
<linearGradient id="paint23_linear_28_796" x1="21.0774" y1="160.539" x2="385.773" y2="371.096" gradientUnits="userSpaceOnUse">
<stop stop-color="white"/>
<stop offset="1" stop-color="white"/>
</linearGradient>
<linearGradient id="paint24_linear_28_796" x1="22.9792" y1="153.37" x2="383.257" y2="369.847" gradientUnits="userSpaceOnUse">
<stop stop-color="white"/>
<stop offset="1" stop-color="white"/>
</linearGradient>
<linearGradient id="paint25_linear_28_796" x1="24.928" y1="146.246" x2="380.693" y2="368.552" gradientUnits="userSpaceOnUse">
<stop stop-color="white"/>
<stop offset="1" stop-color="white"/>
</linearGradient>
<linearGradient id="paint26_linear_28_796" x1="26.9219" y1="139.165" x2="378.08" y2="367.21" gradientUnits="userSpaceOnUse">
<stop stop-color="white"/>
<stop offset="1" stop-color="white"/>
</linearGradient>
<linearGradient id="paint27_linear_28_796" x1="28.9613" y1="132.131" x2="375.421" y2="365.821" gradientUnits="userSpaceOnUse">
<stop stop-color="white"/>
<stop offset="1" stop-color="white"/>
</linearGradient>
<linearGradient id="paint28_linear_28_796" x1="31.0441" y1="125.142" x2="372.715" y2="364.383" gradientUnits="userSpaceOnUse">
<stop stop-color="white"/>
<stop offset="1" stop-color="white"/>
</linearGradient>
<linearGradient id="paint29_linear_28_796" x1="33.1719" y1="118.201" x2="369.967" y2="362.897" gradientUnits="userSpaceOnUse">
<stop stop-color="white"/>
<stop offset="1" stop-color="white"/>
</linearGradient>
<linearGradient id="paint30_linear_28_796" x1="35.3405" y1="111.307" x2="367.173" y2="361.36" gradientUnits="userSpaceOnUse">
<stop stop-color="white"/>
<stop offset="1" stop-color="white"/>
</linearGradient>
<linearGradient id="paint31_linear_28_796" x1="37.5524" y1="104.461" x2="364.338" y2="359.774" gradientUnits="userSpaceOnUse">
<stop stop-color="white"/>
<stop offset="1" stop-color="white"/>
</linearGradient>
<linearGradient id="paint32_linear_28_796" x1="39.8035" y1="97.6637" x2="361.46" y2="358.136" gradientUnits="userSpaceOnUse">
<stop stop-color="white"/>
<stop offset="1" stop-color="white"/>
</linearGradient>
<linearGradient id="paint33_linear_28_796" x1="42.0951" y1="90.9161" x2="358.543" y2="356.447" gradientUnits="userSpaceOnUse">
<stop stop-color="white"/>
<stop offset="1" stop-color="white"/>
</linearGradient>
<linearGradient id="paint34_linear_28_796" x1="44.4239" y1="84.2185" x2="355.584" y2="354.706" gradientUnits="userSpaceOnUse">
<stop stop-color="white"/>
<stop offset="1" stop-color="white"/>
</linearGradient>
<linearGradient id="paint35_linear_28_796" x1="46.7915" y1="77.5716" x2="352.587" y2="352.911" gradientUnits="userSpaceOnUse">
<stop stop-color="white"/>
<stop offset="1" stop-color="white"/>
</linearGradient>
<linearGradient id="paint36_linear_28_796" x1="49.1948" y1="70.9757" x2="349.552" y2="351.063" gradientUnits="userSpaceOnUse">
<stop stop-color="white"/>
<stop offset="1" stop-color="white"/>
</linearGradient>
<linearGradient id="paint37_linear_28_796" x1="51.635" y1="64.432" x2="346.481" y2="349.162" gradientUnits="userSpaceOnUse">
<stop stop-color="white"/>
<stop offset="1" stop-color="white"/>
</linearGradient>
<linearGradient id="paint38_linear_28_796" x1="54.1091" y1="57.9401" x2="343.374" y2="347.205" gradientUnits="userSpaceOnUse">
<stop stop-color="white"/>
<stop offset="1" stop-color="white"/>
</linearGradient>
<linearGradient id="paint39_linear_28_796" x1="56.6185" y1="51.5017" x2="340.234" y2="345.194" gradientUnits="userSpaceOnUse">
<stop stop-color="white"/>
<stop offset="1" stop-color="white"/>
</linearGradient>
<linearGradient id="paint40_linear_28_796" x1="59.1586" y1="45.1158" x2="337.058" y2="343.126" gradientUnits="userSpaceOnUse">
<stop stop-color="white"/>
<stop offset="1" stop-color="white"/>
</linearGradient>
<linearGradient id="paint41_linear_28_796" x1="61.7308" y1="38.7842" x2="333.85" y2="341.003" gradientUnits="userSpaceOnUse">
<stop stop-color="white"/>
<stop offset="1" stop-color="white"/>
</linearGradient>
<linearGradient id="paint42_linear_28_796" x1="64.3343" y1="32.5069" x2="330.612" y2="338.824" gradientUnits="userSpaceOnUse">
<stop stop-color="white"/>
<stop offset="1" stop-color="white"/>
</linearGradient>
<linearGradient id="paint43_linear_28_796" x1="66.9669" y1="26.284" x2="327.342" y2="336.587" gradientUnits="userSpaceOnUse">
<stop stop-color="white"/>
<stop offset="1" stop-color="white"/>
</linearGradient>
<linearGradient id="paint44_linear_28_796" x1="69.6275" y1="20.116" x2="324.043" y2="334.292" gradientUnits="userSpaceOnUse">
<stop stop-color="white"/>
<stop offset="1" stop-color="white"/>
</linearGradient>
<linearGradient id="paint45_linear_28_796" x1="72.3162" y1="14.0037" x2="320.716" y2="331.94" gradientUnits="userSpaceOnUse">
<stop stop-color="white"/>
<stop offset="1" stop-color="white"/>
</linearGradient>
<linearGradient id="paint46_linear_28_796" x1="75.0321" y1="7.94776" x2="317.362" y2="329.531" gradientUnits="userSpaceOnUse">
<stop stop-color="white"/>
<stop offset="1" stop-color="white"/>
</linearGradient>
<linearGradient id="paint47_linear_28_796" x1="77.7732" y1="1.94761" x2="313.983" y2="327.062" gradientUnits="userSpaceOnUse">
<stop stop-color="white"/>
<stop offset="1" stop-color="white"/>
</linearGradient>
<linearGradient id="paint48_linear_28_796" x1="80.5395" y1="-3.99565" x2="310.579" y2="324.534" gradientUnits="userSpaceOnUse">
<stop stop-color="white"/>
<stop offset="1" stop-color="white"/>
</linearGradient>
<linearGradient id="paint49_linear_28_796" x1="83.3268" y1="-9.88273" x2="307.149" y2="321.947" gradientUnits="userSpaceOnUse">
<stop stop-color="white"/>
<stop offset="1" stop-color="white"/>
</linearGradient>
<linearGradient id="paint50_linear_28_796" x1="86.1374" y1="-15.7124" x2="303.697" y2="319.3" gradientUnits="userSpaceOnUse">
<stop stop-color="white"/>
<stop offset="1" stop-color="white"/>
</linearGradient>
<linearGradient id="paint51_linear_28_796" x1="88.9698" y1="-21.4841" x2="300.225" y2="316.594" gradientUnits="userSpaceOnUse">
<stop stop-color="white"/>
<stop offset="1" stop-color="white"/>
</linearGradient>
<linearGradient id="paint52_linear_28_796" x1="91.8216" y1="-27.1985" x2="296.731" y2="313.828" gradientUnits="userSpaceOnUse">
<stop stop-color="white"/>
<stop offset="1" stop-color="white"/>
</linearGradient>
<linearGradient id="paint53_linear_28_796" x1="94.6928" y1="-32.8551" x2="293.218" y2="311.001" gradientUnits="userSpaceOnUse">
<stop stop-color="white"/>
<stop offset="1" stop-color="white"/>
</linearGradient>
<linearGradient id="paint54_linear_28_796" x1="97.5824" y1="-38.4529" x2="289.687" y2="308.114" gradientUnits="userSpaceOnUse">
<stop stop-color="white"/>
<stop offset="1" stop-color="white"/>
</linearGradient>
<linearGradient id="paint55_linear_28_796" x1="100.488" y1="-43.9927" x2="286.139" y2="305.166" gradientUnits="userSpaceOnUse">
<stop stop-color="white"/>
<stop offset="1" stop-color="white"/>
</linearGradient>
<linearGradient id="paint56_linear_28_796" x1="103.41" y1="-49.474" x2="282.575" y2="302.156" gradientUnits="userSpaceOnUse">
<stop stop-color="white"/>
<stop offset="1" stop-color="white"/>
</linearGradient>
<linearGradient id="paint57_linear_28_796" x1="106.346" y1="-54.8965" x2="278.995" y2="299.086" gradientUnits="userSpaceOnUse">
<stop stop-color="white"/>
<stop offset="1" stop-color="white"/>
</linearGradient>
<linearGradient id="paint58_linear_28_796" x1="109.297" y1="-60.2603" x2="275.403" y2="295.955" gradientUnits="userSpaceOnUse">
<stop stop-color="white"/>
<stop offset="1" stop-color="white"/>
</linearGradient>
<linearGradient id="paint59_linear_28_796" x1="112.26" y1="-65.5647" x2="271.797" y2="292.762" gradientUnits="userSpaceOnUse">
<stop stop-color="white"/>
<stop offset="1" stop-color="white"/>
</linearGradient>
<linearGradient id="paint60_linear_28_796" x1="115.234" y1="-70.8101" x2="268.18" y2="289.508" gradientUnits="userSpaceOnUse">
<stop stop-color="white"/>
<stop offset="1" stop-color="white"/>
</linearGradient>
<linearGradient id="paint61_linear_28_796" x1="118.218" y1="-75.9966" x2="264.552" y2="286.192" gradientUnits="userSpaceOnUse">
<stop stop-color="white"/>
<stop offset="1" stop-color="white"/>
</linearGradient>
<linearGradient id="paint62_linear_28_796" x1="121.212" y1="-81.1242" x2="260.915" y2="282.815" gradientUnits="userSpaceOnUse">
<stop stop-color="white"/>
<stop offset="1" stop-color="white"/>
</linearGradient>
<linearGradient id="paint63_linear_28_796" x1="124.215" y1="-86.192" x2="257.27" y2="279.376" gradientUnits="userSpaceOnUse">
<stop stop-color="white"/>
<stop offset="1" stop-color="white"/>
</linearGradient>
<linearGradient id="paint64_linear_28_796" x1="127.223" y1="-91.2006" x2="253.618" y2="275.875" gradientUnits="userSpaceOnUse">
<stop stop-color="white"/>
<stop offset="1" stop-color="white"/>
</linearGradient>
<linearGradient id="paint65_linear_28_796" x1="130.24" y1="-96.1496" x2="249.961" y2="272.313" gradientUnits="userSpaceOnUse">
<stop stop-color="white"/>
<stop offset="1" stop-color="white"/>
</linearGradient>
<linearGradient id="paint66_linear_28_796" x1="133.261" y1="-101.04" x2="246.298" y2="268.689" gradientUnits="userSpaceOnUse">
<stop stop-color="white"/>
<stop offset="1" stop-color="white"/>
</linearGradient>
<linearGradient id="paint67_linear_28_796" x1="136.286" y1="-105.87" x2="242.632" y2="265.004" gradientUnits="userSpaceOnUse">
<stop stop-color="white"/>
<stop offset="1" stop-color="white"/>
</linearGradient>
<linearGradient id="paint68_linear_28_796" x1="139.314" y1="-110.642" x2="238.964" y2="261.258" gradientUnits="userSpaceOnUse">
<stop stop-color="white"/>
<stop offset="1" stop-color="white"/>
</linearGradient>
<linearGradient id="paint69_linear_28_796" x1="142.342" y1="-115.355" x2="235.292" y2="257.449" gradientUnits="userSpaceOnUse">
<stop stop-color="white"/>
<stop offset="1" stop-color="white"/>
</linearGradient>
<linearGradient id="paint70_linear_28_796" x1="145.373" y1="-120.008" x2="231.623" y2="253.58" gradientUnits="userSpaceOnUse">
<stop stop-color="white"/>
<stop offset="1" stop-color="white"/>
</linearGradient>
<linearGradient id="paint71_linear_28_796" x1="148.403" y1="-124.602" x2="227.952" y2="249.649" gradientUnits="userSpaceOnUse">
<stop stop-color="white"/>
<stop offset="1" stop-color="white"/>
</linearGradient>
<linearGradient id="paint72_linear_28_796" x1="151.431" y1="-129.138" x2="224.284" y2="245.657" gradientUnits="userSpaceOnUse">
<stop stop-color="white"/>
<stop offset="1" stop-color="white"/>
</linearGradient>
<linearGradient id="paint73_linear_28_796" x1="154.457" y1="-133.615" x2="220.618" y2="241.604" gradientUnits="userSpaceOnUse">
<stop stop-color="white"/>
<stop offset="1" stop-color="white"/>
</linearGradient>
<linearGradient id="paint74_linear_28_796" x1="157.48" y1="-138.034" x2="216.958" y2="237.491" gradientUnits="userSpaceOnUse">
<stop stop-color="white"/>
<stop offset="1" stop-color="white"/>
</linearGradient>
<linearGradient id="paint75_linear_28_796" x1="160.498" y1="-142.394" x2="213.301" y2="233.318" gradientUnits="userSpaceOnUse">
<stop stop-color="white"/>
<stop offset="1" stop-color="white"/>
</linearGradient>
<linearGradient id="paint76_linear_28_796" x1="163.511" y1="-146.696" x2="209.651" y2="229.083" gradientUnits="userSpaceOnUse">
<stop stop-color="white"/>
<stop offset="1" stop-color="white"/>
</linearGradient>
<linearGradient id="paint77_linear_28_796" x1="166.516" y1="-150.941" x2="206.007" y2="224.789" gradientUnits="userSpaceOnUse">
<stop stop-color="white"/>
<stop offset="1" stop-color="white"/>
</linearGradient>
<linearGradient id="paint78_linear_28_796" x1="169.516" y1="-155.128" x2="202.373" y2="220.435" gradientUnits="userSpaceOnUse">
<stop stop-color="white"/>
<stop offset="1" stop-color="white"/>
</linearGradient>
<linearGradient id="paint79_linear_28_796" x1="172.505" y1="-159.257" x2="198.747" y2="216.022" gradientUnits="userSpaceOnUse">
<stop stop-color="white"/>
<stop offset="1" stop-color="white"/>
</linearGradient>
<linearGradient id="paint80_linear_28_796" x1="175.486" y1="-163.33" x2="195.133" y2="211.549" gradientUnits="userSpaceOnUse">
<stop stop-color="white"/>
<stop offset="1" stop-color="white"/>
</linearGradient>
<linearGradient id="paint81_linear_28_796" x1="178.456" y1="-167.345" x2="191.529" y2="207.018" gradientUnits="userSpaceOnUse">
<stop stop-color="white"/>
<stop offset="1" stop-color="white"/>
</linearGradient>
<linearGradient id="paint82_linear_28_796" x1="181.415" y1="-171.304" x2="187.938" y2="202.428" gradientUnits="userSpaceOnUse">
<stop stop-color="white"/>
<stop offset="1" stop-color="white"/>
</linearGradient>
<linearGradient id="paint83_linear_28_796" x1="184.36" y1="-175.207" x2="184.36" y2="197.78" gradientUnits="userSpaceOnUse">
<stop stop-color="white"/>
<stop offset="1" stop-color="white"/>
</linearGradient>
<linearGradient id="paint84_linear_28_796" x1="187.293" y1="-179.054" x2="180.798" y2="193.074" gradientUnits="userSpaceOnUse">
<stop stop-color="white"/>
<stop offset="1" stop-color="white"/>
</linearGradient>
<linearGradient id="paint85_linear_28_796" x1="190.211" y1="-182.846" x2="177.25" y2="188.31" gradientUnits="userSpaceOnUse">
<stop stop-color="white"/>
<stop offset="1" stop-color="white"/>
</linearGradient>
<linearGradient id="paint86_linear_28_796" x1="193.113" y1="-186.583" x2="173.718" y2="183.489" gradientUnits="userSpaceOnUse">
<stop stop-color="white"/>
<stop offset="1" stop-color="white"/>
</linearGradient>
<linearGradient id="paint87_linear_28_796" x1="195.999" y1="-190.265" x2="170.204" y2="178.612" gradientUnits="userSpaceOnUse">
<stop stop-color="white"/>
<stop offset="1" stop-color="white"/>
</linearGradient>
<linearGradient id="paint88_linear_28_796" x1="198.867" y1="-193.893" x2="166.709" y2="173.679" gradientUnits="userSpaceOnUse">
<stop stop-color="white"/>
<stop offset="1" stop-color="white"/>
</linearGradient>
<linearGradient id="paint89_linear_28_796" x1="201.716" y1="-197.468" x2="163.232" y2="168.69" gradientUnits="userSpaceOnUse">
<stop stop-color="white"/>
<stop offset="1" stop-color="white"/>
</linearGradient>
<linearGradient id="paint90_linear_28_796" x1="204.549" y1="-200.988" x2="159.777" y2="163.646" gradientUnits="userSpaceOnUse">
<stop stop-color="white"/>
<stop offset="1" stop-color="white"/>
</linearGradient>
<linearGradient id="paint91_linear_28_796" x1="207.359" y1="-204.456" x2="156.343" y2="158.546" gradientUnits="userSpaceOnUse">
<stop stop-color="white"/>
<stop offset="1" stop-color="white"/>
</linearGradient>
<linearGradient id="paint92_linear_28_796" x1="210.149" y1="-207.872" x2="152.93" y2="153.393" gradientUnits="userSpaceOnUse">
<stop stop-color="white"/>
<stop offset="1" stop-color="white"/>
</linearGradient>
<linearGradient id="paint93_linear_28_796" x1="212.915" y1="-211.236" x2="149.54" y2="148.185" gradientUnits="userSpaceOnUse">
<stop stop-color="white"/>
<stop offset="1" stop-color="white"/>
</linearGradient>
<linearGradient id="paint94_linear_28_796" x1="215.661" y1="-214.548" x2="146.176" y2="142.925" gradientUnits="userSpaceOnUse">
<stop stop-color="white"/>
<stop offset="1" stop-color="white"/>
</linearGradient>
<linearGradient id="paint95_linear_28_796" x1="218.382" y1="-217.809" x2="142.835" y2="137.612" gradientUnits="userSpaceOnUse">
<stop stop-color="white"/>
<stop offset="1" stop-color="white"/>
</linearGradient>
<linearGradient id="paint96_linear_28_796" x1="221.08" y1="-221.02" x2="139.522" y2="132.247" gradientUnits="userSpaceOnUse">
<stop stop-color="white"/>
<stop offset="1" stop-color="white"/>
</linearGradient>
<linearGradient id="paint97_linear_28_796" x1="223.751" y1="-224.181" x2="136.234" y2="126.83" gradientUnits="userSpaceOnUse">
<stop stop-color="white"/>
<stop offset="1" stop-color="white"/>
</linearGradient>
<linearGradient id="paint98_linear_28_796" x1="226.396" y1="-227.293" x2="132.974" y2="121.363" gradientUnits="userSpaceOnUse">
<stop stop-color="white"/>
<stop offset="1" stop-color="white"/>
</linearGradient>
</defs>
</svg>
