<svg width="52" height="52" viewBox="0 0 52 52" fill="none" xmlns="http://www.w3.org/2000/svg">
  <path opacity="0.5" d="M22.8818 4.875C22.6359 4.87497 22.4445 4.87494 22.2634 4.88591C19.9657 5.02506 17.9538 6.47519 17.0952 8.61088C17.026 8.78299 16.9645 8.96704 16.8823 9.21376C16.7017 9.69982 16.2873 10.2526 15.707 10.6944C15.6423 10.7435 15.5775 10.79 15.5126 10.8337L19.7203 10.8333C19.7828 10.7043 19.8405 10.5731 19.8928 10.4399L19.8961 10.4323L19.9052 10.4109L19.9157 10.3846L19.9257 10.3587L19.9335 10.3371L19.9374 10.3263L19.9466 10.2998L19.9549 10.2753L19.9594 10.2617L19.9653 10.2436L19.9702 10.2284L19.9741 10.2159C20.0582 9.96389 20.0857 9.88534 20.1107 9.82313C20.5009 8.85236 21.4155 8.19321 22.4598 8.12996C22.5297 8.12573 22.6154 8.12501 22.9261 8.12501H29.0745C29.3851 8.12501 29.4708 8.12573 29.5407 8.12996C30.5851 8.19321 31.4996 8.85236 31.8898 9.82313C31.9145 9.88442 31.9406 9.96011 32.0259 10.2158L32.0298 10.2282L32.0347 10.2435L32.0406 10.2616L32.0451 10.2752L32.0534 10.2996L32.0626 10.3261L32.0664 10.3369L32.0743 10.3584L32.0841 10.3842L32.0946 10.4102L32.1035 10.4314L32.107 10.4392C32.1594 10.5726 32.2171 10.7041 32.2798 10.8333L36.4871 10.8337C36.4223 10.79 36.3575 10.7436 36.2929 10.6944C35.7128 10.2528 35.2984 9.7 35.1178 9.21385L35.1112 9.19419C35.0335 8.96091 34.973 8.7792 34.9053 8.61089C34.0467 6.47519 32.0348 5.02506 29.7372 4.88591C29.5561 4.87494 29.3646 4.87497 29.1187 4.875H22.8818Z" fill="#E03C3C" />
  <path fill-rule="evenodd" clip-rule="evenodd" d="M37.2501 10.8333H14.7499C11.0939 10.8333 9.26594 10.8333 7.87081 11.5476C6.65693 12.1692 5.6693 13.1568 5.04773 14.3707C4.33334 15.7659 4.33334 17.5938 4.33334 21.2498C4.33334 22.1793 4.33334 22.644 4.4923 23.0358C4.63111 23.3779 4.85505 23.6789 5.14287 23.9102C5.47245 24.175 5.91757 24.3085 6.80781 24.5756L18.4167 28.0583V30.6858C18.4167 32.3446 19.412 33.8737 20.9881 34.5141L22.2017 35.0072C24.6391 35.9975 27.3609 35.9975 29.7983 35.0072L31.0119 34.5141C32.588 33.8737 33.5833 32.3446 33.5833 30.6858V28.0583L45.1922 24.5756C46.0824 24.3085 46.5276 24.175 46.8571 23.9102C47.145 23.6789 47.3689 23.3779 47.5077 23.0358C47.6667 22.644 47.6667 22.1793 47.6667 21.2498C47.6667 17.5938 47.6667 15.7659 46.9523 14.3707C46.3307 13.1568 45.3431 12.1692 44.1292 11.5476C42.7341 10.8333 40.9061 10.8333 37.2501 10.8333ZM29.4667 25.9999H22.5333C22.0547 25.9999 21.6667 26.394 21.6667 26.8802V30.6858C21.6667 31.0458 21.8824 31.3695 22.2115 31.5031L23.425 31.9962C25.078 32.6678 26.922 32.6678 28.575 31.9962L29.7885 31.5031C30.1176 31.3695 30.3333 31.0458 30.3333 30.6858V26.8802C30.3333 26.394 29.9453 25.9999 29.4667 25.9999Z" fill="#E03C3C" />
  <path opacity="0.5" d="M6.5 24.4829C6.59632 24.5121 6.69872 24.5428 6.8078 24.5756L18.4167 28.0582V30.6858C18.4167 32.3445 19.412 33.8737 20.9881 34.5141L22.2017 35.0071C24.6391 35.9975 27.3609 35.9975 29.7983 35.0071L31.0119 34.5141C32.588 33.8737 33.5833 32.3445 33.5833 30.6858V28.0582L45.1922 24.5756C45.3012 24.5428 45.4036 24.5121 45.4999 24.4829V26.6497C45.4979 34.6129 45.4243 42.6571 42.6442 45.1283C39.7885 47.6667 35.1923 47.6667 25.9999 47.6667C16.8076 47.6667 12.2114 47.6667 9.35566 45.1283C6.57559 42.6571 6.50195 34.6129 6.5 26.6497V24.4829Z" fill="#E03C3C" />
</svg>