<svg width="394" height="318" viewBox="0 0 394 318" fill="none" xmlns="http://www.w3.org/2000/svg">
<path opacity="0.010101" d="M5.8178 100.957C3.82647 92.9703 7.20442 84.6096 14.1849 80.2477L357.947 -134.558C364.927 -138.92 373.922 -138.291 380.228 -133L690.749 127.558C697.054 132.849 699.236 141.598 696.152 149.23L544.303 525.07C541.22 532.702 533.573 537.48 525.361 536.906L120.993 508.63C112.781 508.056 105.874 502.259 103.882 494.273L5.8178 100.957Z" stroke="url(#paint0_linear_28_1109)" stroke-width="2"/>
<path opacity="0.020202" d="M4.48642 94.4821C2.63477 86.4618 6.1581 78.1613 13.2137 73.9219L359.992 -134.444C367.048 -138.683 376.031 -137.897 382.243 -132.497L687.571 132.92C693.783 138.321 695.812 147.107 692.596 154.684L534.52 527.086C531.304 534.663 523.574 539.308 515.374 538.59L112.35 503.33C104.15 502.613 97.345 496.697 95.4934 488.677L4.48642 94.4821Z" stroke="url(#paint1_linear_28_1109)" stroke-width="2"/>
<path opacity="0.030303" d="M3.24726 88.0697C1.53588 80.0182 5.20354 71.7805 12.332 67.6648L362.008 -134.221C369.136 -138.336 378.104 -137.394 384.221 -131.886L684.281 138.289C690.398 143.797 692.273 152.618 688.925 160.137L524.697 529C521.349 536.52 513.54 541.028 505.354 540.168L103.795 497.963C95.6085 497.102 88.9073 491.068 87.1959 483.017L3.24726 88.0697Z" stroke="url(#paint2_linear_28_1109)" stroke-width="2"/>
<path opacity="0.040404" d="M2.09971 81.7201C0.52911 73.6401 4.33998 65.4676 11.5392 61.477L363.992 -133.891C371.191 -137.881 380.141 -136.782 386.161 -131.169L680.881 143.662C686.901 149.275 688.621 158.127 685.142 165.587L514.837 530.809C511.358 538.269 503.471 542.641 495.301 541.638L95.3269 492.527C87.157 491.524 80.5622 485.374 78.9916 477.294L2.09971 81.7201Z" stroke="url(#paint3_linear_28_1109)" stroke-width="2"/>
<path opacity="0.050505" d="M1.04229 75.4357C-0.387066 67.3295 3.56585 59.2248 10.8337 55.3604L365.942 -133.454C373.21 -137.318 382.14 -136.064 388.061 -130.346L677.369 149.036C683.29 154.754 684.856 163.634 681.247 171.032L504.941 532.514C501.332 539.912 493.371 544.146 485.219 543L86.9481 487.027C78.7969 485.881 72.3104 479.617 70.881 471.511L1.04229 75.4357Z" stroke="url(#paint4_linear_28_1109)" stroke-width="2"/>
<path opacity="0.0606061" d="M0.0747665 69.2152C-1.2129 61.0852 2.88088 53.0507 10.215 49.3138L367.858 -132.915C375.192 -136.651 384.099 -135.241 389.919 -129.42L673.747 154.407C679.567 160.227 680.978 169.134 677.241 176.468L495.012 534.111C491.275 541.445 483.241 545.539 475.111 544.251L78.6602 481.46C70.5303 480.172 64.154 473.796 62.8664 465.666L0.0747665 69.2152Z" stroke="url(#paint5_linear_28_1109)" stroke-width="2"/>
<path opacity="0.0707071" d="M-0.805131 63.0625C-1.95072 54.9114 2.28266 46.9495 9.68089 43.3412L369.738 -132.27C377.136 -135.879 386.016 -134.313 391.734 -128.392L670.014 159.776C675.732 165.697 676.987 174.626 673.123 181.894L485.052 535.603C481.188 542.871 473.083 546.824 464.977 545.394L70.4634 475.831C62.3571 474.401 56.0932 467.915 54.9476 459.764L-0.805131 63.0625Z" stroke="url(#paint6_linear_28_1109)" stroke-width="2"/>
<path opacity="0.0808081" d="M-1.5996 56.9799C-2.60274 48.8099 1.76894 40.9232 9.22902 37.4445L371.577 -131.521C379.037 -135 387.889 -133.279 393.503 -127.259L666.171 165.141C671.784 171.161 672.883 180.111 668.893 187.31L475.062 536.99C471.072 544.189 462.899 548 454.819 546.429L62.3576 470.142C54.2776 468.572 48.1278 461.977 47.1246 453.807L-1.5996 56.9799Z" stroke="url(#paint7_linear_28_1109)" stroke-width="2"/>
<path opacity="0.0909091" d="M-2.30853 50.9662C-3.16893 42.78 1.33971 34.9708 8.85938 31.6228L373.377 -130.671C380.897 -134.019 389.717 -132.144 395.225 -126.027L662.218 170.498C667.725 176.615 668.668 185.583 664.552 192.712L465.045 538.268C460.93 545.397 452.692 549.065 444.64 547.353L54.3454 464.393C46.294 462.682 40.2602 455.981 39.3998 447.795L-2.30853 50.9662Z" stroke="url(#paint8_linear_28_1109)" stroke-width="2"/>
<path opacity="0.10101" d="M-2.93348 45.0232C-3.65089 36.8232 0.993373 29.0939 8.57031 25.8777L375.135 -129.72C382.712 -132.936 391.498 -130.908 396.899 -124.695L658.156 175.846C663.556 182.058 664.342 191.041 660.102 198.097L455.003 539.44C450.764 546.495 442.463 550.019 434.443 548.167L46.4274 458.587C38.4071 456.735 32.4912 449.929 31.7738 441.729L-2.93348 45.0232Z" stroke="url(#paint9_linear_28_1109)" stroke-width="2"/>
<path opacity="0.111111" d="M-3.4773 39.1547C-4.0515 30.9435 0.726954 23.2963 8.35887 20.2128L376.848 -128.667C384.48 -131.75 393.23 -129.569 398.521 -123.263L653.983 181.185C659.274 187.491 659.903 196.486 655.541 203.466L444.936 540.505C440.574 547.486 432.213 550.864 424.227 548.872L38.6032 452.726C30.6164 450.734 24.8201 443.827 24.2459 435.615L-3.4773 39.1547Z" stroke="url(#paint10_linear_28_1109)" stroke-width="2"/>
<path opacity="0.121212" d="M-3.93945 33.3589C-4.37025 25.1389 0.540912 17.5763 8.2255 14.6265L378.517 -127.515C386.202 -130.465 394.912 -128.131 400.092 -121.734L649.703 186.51C654.883 192.907 655.355 201.912 650.872 208.815L434.849 541.462C430.366 548.366 421.947 551.597 413.996 549.467L30.8753 446.81C22.9244 444.679 17.2497 437.671 16.8189 429.451L-3.93945 33.3589Z" stroke="url(#paint11_linear_28_1109)" stroke-width="2"/>
<path opacity="0.131313" d="M-4.32346 27.6398C-4.61073 19.4135 0.431689 11.9378 8.16657 9.12256L380.138 -126.264C387.873 -129.079 396.541 -126.594 401.608 -120.107L645.314 191.822C650.382 198.308 650.696 207.32 646.093 214.144L424.741 542.313C420.138 549.137 411.664 552.221 403.752 549.952L23.2426 440.843C15.3302 438.574 9.77856 431.468 9.4913 423.242L-4.32346 27.6398Z" stroke="url(#paint12_linear_28_1109)" stroke-width="2"/>
<path opacity="0.141414" d="M-4.62961 21.9971C-4.77327 13.7671 0.398851 6.38052 8.18168 3.70069L381.709 -124.915C389.492 -127.595 398.116 -124.959 403.069 -118.385L640.817 197.117C645.771 203.69 645.928 212.706 641.207 219.449L414.615 543.056C409.894 549.798 401.367 552.734 393.496 550.328L15.707 434.826C7.83541 432.419 2.40863 425.218 2.26498 416.988L-4.62961 21.9971Z" stroke="url(#paint13_linear_28_1109)" stroke-width="2"/>
<path opacity="0.151515" d="M-4.85902 16.4314C-4.85903 8.20015 0.441224 0.90497 8.26964 -1.63863L383.231 -123.471C391.06 -126.015 399.636 -123.228 404.474 -116.569L636.213 202.392C641.051 209.052 641.051 218.069 636.213 224.728L404.474 543.69C399.636 550.349 391.06 553.135 383.231 550.592L8.26968 428.759C0.441244 426.216 -4.85901 418.921 -4.859 410.689L-4.85902 16.4314Z" stroke="url(#paint14_linear_28_1109)" stroke-width="2"/>
<path opacity="0.161616" d="M-5.0142 10.9455C-4.87054 2.71542 0.556219 -4.48611 8.42784 -6.89269L384.701 -121.931C392.572 -124.337 401.098 -121.402 405.819 -114.659L631.502 207.649C636.223 214.392 636.066 223.408 631.112 229.981L394.319 544.217C389.365 550.79 380.742 553.427 372.959 550.747L0.930167 422.647C-6.85267 419.967 -12.0248 412.581 -11.8811 404.351L-5.0142 10.9455Z" stroke="url(#paint15_linear_28_1109)" stroke-width="2"/>
<path opacity="0.171717" d="M-5.09688 5.54036C-4.80961 -2.68594 0.741978 -9.79165 8.65442 -12.0605L386.115 -120.296C394.028 -122.565 402.501 -119.48 407.104 -112.656L626.684 212.884C631.287 219.708 630.972 228.72 625.904 235.206L384.151 544.636C379.083 551.122 370.415 553.608 362.68 550.793L-6.31089 416.491C-14.0458 413.676 -19.0882 406.2 -18.8009 397.974L-5.09688 5.54036Z" stroke="url(#paint16_linear_28_1109)" stroke-width="2"/>
<path opacity="0.181818" d="M-5.10726 0.21582C-4.67648 -8.00418 0.998288 -15.0119 8.94912 -17.1424L387.476 -118.568C395.427 -120.699 403.845 -117.467 408.328 -110.564L621.761 218.094C626.244 224.997 625.772 234.002 620.592 240.399L373.974 544.947C368.794 551.344 360.084 553.678 352.4 550.728L-13.4517 410.291C-21.1363 407.341 -26.0474 399.779 -25.6166 391.559L-5.10726 0.21582Z" stroke="url(#paint17_linear_28_1109)" stroke-width="2"/>
<path opacity="0.191919" d="M-5.04843 -5.02537C-4.47426 -13.2366 1.32197 -20.1443 9.30875 -22.1356L388.779 -116.748C396.766 -118.739 405.126 -115.361 409.488 -108.381L616.733 223.28C621.095 230.26 620.466 239.256 615.175 245.561L363.789 545.151C358.498 551.457 349.748 553.638 342.116 550.555L-20.4931 404.051C-28.125 400.967 -32.9035 393.32 -32.3293 385.109L-5.04843 -5.02537Z" stroke="url(#paint18_linear_28_1109)" stroke-width="2"/>
<path opacity="0.20202" d="M-4.92011 -10.1852C-4.20269 -18.3851 1.71317 -25.1906 9.73351 -27.0422L390.025 -114.839C398.045 -116.691 406.345 -113.168 410.585 -106.112L611.601 228.436C615.841 235.491 615.055 244.474 609.655 250.686L353.599 545.245C348.198 551.457 339.412 553.486 331.835 550.27L-27.4327 397.77C-35.0096 394.553 -39.6539 386.824 -38.9365 378.624L-4.92011 -10.1852Z" stroke="url(#paint19_linear_28_1109)" stroke-width="2"/>
<path opacity="0.212121" d="M-4.7265 -15.2579C-3.86609 -23.4441 2.16767 -30.1453 10.2191 -31.8566L391.209 -112.839C399.26 -114.55 407.498 -110.882 411.614 -103.754L606.365 233.564C610.48 240.693 609.538 249.661 604.03 255.778L343.403 545.234C337.895 551.351 329.074 553.226 321.555 549.878L-34.2726 391.453C-41.7922 388.105 -46.3009 380.296 -45.4405 372.11L-4.7265 -15.2579Z" stroke="url(#paint20_linear_28_1109)" stroke-width="2"/>
<path opacity="0.222222" d="M-4.46691 -20.2468C-3.46378 -28.4167 2.686 -35.0116 10.7661 -36.5822L392.333 -110.751C400.413 -112.322 408.586 -108.511 412.576 -101.312L601.026 238.661C605.017 245.86 603.918 254.81 598.304 260.83L333.205 545.114C327.592 551.134 318.74 552.854 311.28 549.375L-41.01 385.1C-48.47 381.621 -52.8417 373.735 -51.8386 365.565L-4.46691 -20.2468Z" stroke="url(#paint21_linear_28_1109)" stroke-width="2"/>
<path opacity="0.232323" d="M-4.14475 -25.1477C-2.99919 -33.2988 3.26477 -39.7854 11.371 -41.2147L393.394 -108.576C401.5 -110.005 409.605 -106.052 413.469 -98.7843L595.585 243.725C599.449 250.993 598.194 259.923 592.476 265.844L323.007 544.887C317.289 550.808 308.409 552.374 301.01 548.766L-47.6462 378.715C-55.0444 375.106 -59.2778 367.144 -58.1322 358.993L-4.14475 -25.1477Z" stroke="url(#paint22_linear_28_1109)" stroke-width="2"/>
<path opacity="0.242424" d="M-3.76077 -29.9609C-2.47312 -38.0908 3.90307 -44.467 12.033 -45.7547L394.39 -106.314C402.52 -107.602 410.555 -103.508 414.292 -96.1739L590.042 248.756C593.779 256.09 592.368 264.996 586.548 270.816L312.81 544.554C306.99 550.374 298.084 551.785 290.749 548.048L-54.1799 372.298C-61.5141 368.561 -65.6079 360.526 -64.3202 352.396L-3.76077 -29.9609Z" stroke="url(#paint23_linear_28_1109)" stroke-width="2"/>
<path opacity="0.252525" d="M-3.31629 -34.6869C-1.88693 -42.7932 4.59957 -49.0571 12.7508 -50.2027L395.322 -103.97C403.473 -105.115 411.435 -100.882 415.043 -93.4834L584.399 253.748C588.008 261.146 586.442 270.027 580.521 275.745L302.618 544.112C296.697 549.83 287.767 551.085 280.499 547.221L-60.6105 365.85C-67.8783 361.985 -71.8312 353.881 -70.4019 345.774L-3.31629 -34.6869Z" stroke="url(#paint24_linear_28_1109)" stroke-width="2"/>
<path opacity="0.262626" d="M-2.81358 -39.3234C-1.24297 -47.4035 5.35188 -53.5533 13.5218 -54.5564L396.186 -101.542C404.356 -102.545 412.243 -98.1731 415.721 -90.713L578.657 258.703C582.135 266.163 580.415 275.015 574.395 280.628L292.43 543.565C286.41 549.178 277.46 550.277 270.261 546.287L-66.9382 359.374C-74.1374 355.384 -77.9483 347.211 -76.3777 339.131L-2.81358 -39.3234Z" stroke="url(#paint25_linear_28_1109)" stroke-width="2"/>
<path opacity="0.272727" d="M-2.25472 -43.8691C-0.543354 -51.9206 6.15781 -57.9543 14.344 -58.8147L396.982 -99.0316C405.168 -99.8919 412.977 -95.3833 416.325 -87.8636L572.815 263.619C576.163 271.138 574.288 279.958 568.171 285.466L282.25 542.911C276.133 548.419 267.165 549.361 260.036 545.246L-73.1629 352.873C-80.2914 348.758 -83.9591 340.52 -82.2477 332.468L-2.25472 -43.8691Z" stroke="url(#paint26_linear_28_1109)" stroke-width="2"/>
<path opacity="0.282828" d="M-1.64056 -48.324C0.211065 -56.3443 7.01653 -62.2602 15.2165 -62.9776L397.708 -96.4413C405.908 -97.1587 413.637 -92.5144 416.853 -84.9374L566.876 268.493C570.092 276.07 568.063 284.856 561.851 290.256L272.078 542.151C265.866 547.552 256.883 548.337 249.828 544.098L-79.2838 346.348C-86.3394 342.109 -89.8627 333.808 -88.0111 325.788L-1.64056 -48.324Z" stroke="url(#paint27_linear_28_1109)" stroke-width="2"/>
<path opacity="0.292929" d="M-0.973841 -52.6861C1.01748 -60.6729 7.92514 -66.4691 16.1364 -67.0433L398.363 -93.7712C406.574 -94.3454 414.221 -89.5669 417.305 -81.935L560.839 273.324C563.922 280.956 561.741 289.706 555.435 294.997L261.918 541.287C255.612 546.578 246.617 547.207 239.636 542.845L-85.3014 339.801C-92.282 335.44 -95.6599 327.079 -93.6686 319.092L-0.973841 -52.6861Z" stroke="url(#paint28_linear_28_1109)" stroke-width="2"/>
<path opacity="0.30303" d="M-0.255001 -56.9573C1.87542 -64.9082 8.88316 -70.5829 17.1032 -71.0137L398.946 -91.0253C407.166 -91.456 414.729 -86.5448 417.679 -78.8603L554.707 278.11C557.656 285.795 555.323 294.505 548.926 299.685L251.771 540.316C245.374 545.496 236.369 545.968 229.465 541.485L-91.2144 333.233C-98.1178 328.75 -101.349 320.332 -99.2189 312.381L-0.255001 -56.9573Z" stroke="url(#paint29_linear_28_1109)" stroke-width="2"/>
<path opacity="0.313131" d="M0.512843 -61.1336C2.78168 -69.046 9.88743 -74.5976 18.1137 -74.8849L399.455 -88.2016C407.682 -88.4889 415.157 -83.4464 417.973 -75.7116L548.479 282.851C551.294 290.586 548.809 299.254 542.322 304.321L241.638 539.242C235.151 544.31 226.139 544.624 219.315 540.022L-97.0239 326.648C-103.848 322.045 -106.932 313.572 -104.663 305.659L0.512843 -61.1336Z" stroke="url(#paint30_linear_28_1109)" stroke-width="2"/>
<path opacity="0.323232" d="M1.3295 -65.2176C3.73609 -73.0892 10.9376 -78.516 19.1677 -78.6596L399.891 -85.3052C408.121 -85.4488 415.508 -80.2767 418.188 -72.4939L542.158 287.542C544.838 295.325 542.201 303.948 535.628 308.902L231.522 538.062C224.948 543.016 215.932 543.173 209.19 538.452L-102.728 320.045C-109.471 315.323 -112.407 306.797 -110 298.926L1.3295 -65.2176Z" stroke="url(#paint31_linear_28_1109)" stroke-width="2"/>
<path opacity="0.333333" d="M2.19146 -69.2056C4.73508 -77.034 12.0302 -82.3343 20.2615 -82.3343L400.25 -82.3343C408.481 -82.3343 415.777 -77.034 418.32 -69.2056L535.743 292.185C538.287 300.014 535.5 308.59 528.841 313.428L221.424 536.78C214.765 541.618 205.747 541.618 199.088 536.78L-108.329 313.428C-114.989 308.59 -117.775 300.014 -115.232 292.185L2.19146 -69.2056Z" stroke="url(#paint32_linear_28_1109)" stroke-width="2"/>
<path opacity="0.343434" d="M3.09816 -73.0993C5.77802 -80.8822 13.1645 -86.0543 21.3946 -85.9106L400.533 -79.2928C408.763 -79.1491 415.964 -73.7224 418.371 -65.8508L529.237 296.776C531.644 304.648 528.708 313.174 521.965 317.895L211.346 535.393C204.604 540.114 195.588 539.957 189.014 535.003L-113.826 306.797C-120.399 301.844 -123.036 293.22 -120.356 285.438L3.09816 -73.0993Z" stroke="url(#paint33_linear_28_1109)" stroke-width="2"/>
<path opacity="0.353535" d="M4.04681 -76.8959C6.86206 -84.6307 14.3378 -89.6732 22.564 -89.3859L400.737 -76.1798C408.963 -75.8925 416.069 -70.3409 418.338 -62.4285L522.64 301.316C524.909 309.229 521.825 317.702 515.001 322.305L201.29 533.905C194.466 538.508 185.454 538.194 178.968 533.126L-119.218 300.158C-125.704 295.09 -128.19 286.422 -125.375 278.687L4.04681 -76.8959Z" stroke="url(#paint34_linear_28_1109)" stroke-width="2"/>
<path opacity="0.363636" d="M5.03668 -80.5971C7.98649 -88.2816 15.549 -93.1928 23.7691 -92.762L400.862 -72.9994C409.082 -72.5686 416.09 -66.8938 418.22 -58.943L515.953 305.801C518.084 313.751 514.852 322.17 507.949 326.653L191.258 532.314C184.355 536.798 175.35 536.326 168.953 531.146L-124.506 293.508C-130.903 288.327 -133.237 279.617 -130.287 271.933L5.03668 -80.5971Z" stroke="url(#paint35_linear_28_1109)" stroke-width="2"/>
<path opacity="0.373737" d="M6.06518 -84.2002C9.14868 -91.8321 16.7958 -96.6105 25.007 -96.0363L400.907 -69.7509C409.118 -69.1767 416.026 -63.3804 418.017 -55.3937L509.178 310.231C511.169 318.218 507.791 326.579 500.811 330.94L181.251 530.624C174.27 534.985 165.275 534.356 158.969 529.065L-129.69 286.852C-135.995 281.561 -138.177 272.811 -135.093 265.179L6.06518 -84.2002Z" stroke="url(#paint36_linear_28_1109)" stroke-width="2"/>
<path opacity="0.383838" d="M7.13157 -87.707C10.3478 -95.2839 18.0771 -99.9282 26.2771 -99.2108L400.871 -66.4381C409.071 -65.7207 415.877 -59.8048 417.728 -51.7845L502.316 314.603C504.167 322.623 500.644 330.924 493.588 335.163L171.272 528.831C164.216 533.07 155.233 532.284 149.021 526.884L-134.769 280.189C-140.981 274.789 -143.009 266.003 -139.793 258.426L7.13157 -87.707Z" stroke="url(#paint37_linear_28_1109)" stroke-width="2"/>
<path opacity="0.393939" d="M8.23242 -91.1155C11.5804 -98.6352 19.3896 -103.144 27.5758 -102.283L400.753 -63.061C408.939 -62.2006 415.64 -56.1668 417.351 -48.1154L495.367 318.917C497.078 326.969 493.41 335.206 486.282 339.322L161.321 526.938C154.192 531.054 145.225 530.111 139.108 524.603L-139.744 273.524C-145.861 268.016 -147.736 259.196 -144.388 251.676L8.23242 -91.1155Z" stroke="url(#paint38_linear_28_1109)" stroke-width="2"/>
<path opacity="0.40404" d="M9.36808 -94.4267C12.8468 -101.887 20.7335 -106.258 28.9034 -105.255L400.552 -59.6226C408.722 -58.6195 415.317 -52.4696 416.887 -44.3896L488.334 323.17C489.905 331.251 486.094 339.423 478.894 343.414L151.402 524.946C144.203 528.936 135.253 527.837 129.233 522.224L-144.615 266.856C-150.635 261.243 -152.356 252.391 -148.877 244.931L9.36808 -94.4267Z" stroke="url(#paint39_linear_28_1109)" stroke-width="2"/>
<path opacity="0.414141" d="M10.534 -97.6377C14.1424 -105.036 22.1042 -109.269 30.2553 -108.124L400.266 -56.1221C408.417 -54.9765 414.904 -48.7126 416.333 -40.6063L481.216 327.364C482.645 335.47 478.692 343.575 471.425 347.439L141.514 522.856C134.246 526.72 125.317 525.465 119.396 519.747L-149.383 260.19C-155.305 254.473 -156.87 245.592 -153.262 238.194L10.534 -97.6377Z" stroke="url(#paint40_linear_28_1109)" stroke-width="2"/>
<path opacity="0.424242" d="M11.7302 -100.75C15.4671 -108.084 23.5016 -112.178 31.6316 -110.89L399.895 -52.5628C408.025 -51.2752 414.401 -44.8989 415.689 -36.769L474.016 331.495C475.304 339.625 471.21 347.659 463.876 351.396L131.661 520.668C124.326 524.405 115.42 522.995 109.6 517.174L-154.048 253.527C-159.868 247.706 -161.279 238.8 -157.542 231.466L11.7302 -100.75Z" stroke="url(#paint41_linear_28_1109)" stroke-width="2"/>
<path opacity="0.434343" d="M12.955 -103.763C16.8193 -111.031 24.924 -114.984 33.0303 -113.555L399.439 -48.9469C407.545 -47.5176 413.809 -41.031 414.955 -32.8798L466.736 335.561C467.882 343.712 463.648 351.674 456.25 355.282L121.843 518.383C114.445 521.991 105.565 520.426 99.8469 514.505L-158.609 246.866C-164.327 240.945 -165.582 232.015 -161.717 224.747L12.955 -103.763Z" stroke="url(#paint42_linear_28_1109)" stroke-width="2"/>
<path opacity="0.444444" d="M14.2055 -106.676C18.1961 -113.876 26.3686 -117.687 34.4487 -116.116L398.896 -45.2746C406.976 -43.704 413.126 -37.1091 414.129 -28.9392L459.375 339.562C460.379 347.732 456.007 355.619 448.547 359.098L112.063 516.003C104.603 519.481 95.7513 517.761 90.1376 511.741L-163.067 240.212C-168.681 234.192 -169.78 225.242 -165.789 218.043L14.2055 -106.676Z" stroke="url(#paint43_linear_28_1109)" stroke-width="2"/>
<path opacity="0.454545" d="M15.4801 -109.489C19.5958 -116.618 27.8335 -120.285 35.8849 -118.574L398.265 -41.5478C406.316 -39.8364 412.35 -33.1352 413.211 -24.949L451.936 343.497C452.796 351.684 448.288 359.493 440.768 362.841L102.321 513.527C94.8018 516.875 85.9815 515 80.4737 508.883L-167.423 233.566C-172.931 227.449 -173.873 218.481 -169.758 211.352L15.4801 -109.489Z" stroke="url(#paint44_linear_28_1109)" stroke-width="2"/>
<path opacity="0.464646" d="M16.7776 -112.202C21.0171 -119.258 29.3175 -122.781 37.3379 -120.93L397.546 -37.7691C405.566 -35.9174 411.482 -29.1119 412.2 -20.912L444.42 347.364C445.137 355.564 440.493 363.294 432.916 366.51L92.6208 510.957C85.0438 514.173 76.2576 512.145 70.8574 505.932L-171.677 226.929C-177.077 220.717 -177.863 211.734 -173.623 204.678L16.7776 -112.202Z" stroke="url(#paint45_linear_28_1109)" stroke-width="2"/>
<path opacity="0.474747" d="M18.0962 -114.816C22.4582 -121.796 30.8189 -125.174 38.8056 -123.183L396.739 -33.9401C404.725 -31.9487 410.521 -25.041 411.096 -16.8298L436.828 351.162C437.402 359.373 432.624 367.02 424.992 370.104L82.9627 508.293C75.3308 511.376 66.5814 509.195 61.2904 502.889L-175.828 220.303C-181.119 213.997 -181.748 205.002 -177.386 198.021L18.0962 -114.816Z" stroke="url(#paint46_linear_28_1109)" stroke-width="2"/>
<path opacity="0.484848" d="M19.4335 -117.328C23.9165 -124.232 32.3349 -127.463 40.2858 -125.333L395.841 -30.0621C403.792 -27.9316 409.466 -20.9238 409.897 -12.7039L429.162 354.889C429.593 363.109 424.682 370.672 416.997 373.622L73.3483 505.536C65.6637 508.486 56.9536 506.152 51.7735 499.755L-179.878 213.69C-185.058 207.293 -185.53 198.288 -181.047 191.384L19.4335 -117.328Z" stroke="url(#paint47_linear_28_1109)" stroke-width="2"/>
<path opacity="0.494949" d="M20.7882 -119.741C25.3911 -126.565 33.8646 -129.649 41.777 -127.38L394.853 -26.1374C402.766 -23.8685 408.317 -16.7628 408.605 -8.53651L421.423 358.545C421.711 366.771 416.668 374.247 408.933 377.062L63.7795 502.688C56.0446 505.503 47.3766 503.017 42.3089 496.531L-183.827 207.091C-188.894 200.604 -189.209 191.593 -184.606 184.769L20.7882 -119.741Z" stroke="url(#paint48_linear_28_1109)" stroke-width="2"/>
<path opacity="0.50505" d="M22.1572 -122.051C26.8785 -128.794 35.4045 -131.729 43.2761 -129.323L393.774 -22.165C401.645 -19.7584 407.072 -12.5568 407.216 -4.3268L413.612 362.13C413.756 370.36 408.584 377.746 400.801 380.426L54.2567 499.751C46.4738 502.431 37.8505 499.794 32.8968 493.22L-187.676 200.511C-192.63 193.937 -192.787 184.921 -188.066 178.178L22.1572 -122.051Z" stroke="url(#paint49_linear_28_1109)" stroke-width="2"/>
<path opacity="0.515152" d="M23.5398 -124.261C28.3781 -130.92 36.954 -133.707 44.7825 -131.163L392.602 -18.1498C400.431 -15.6062 405.731 -8.31101 405.731 -0.079737L405.731 365.64C405.731 373.871 400.431 381.166 392.602 383.71L44.7825 496.723C36.954 499.267 28.378 496.48 23.5398 489.821L-191.425 193.948C-196.263 187.289 -196.263 178.271 -191.425 171.612L23.5398 -124.261Z" stroke="url(#paint50_linear_28_1109)" stroke-width="2"/>
<path opacity="0.525253" d="M24.9345 -126.371C29.8882 -132.945 38.5115 -135.581 46.2944 -132.901L391.339 -14.0929C399.122 -11.413 404.294 -4.02646 404.151 4.20356L397.782 369.075C397.638 377.305 392.211 384.506 384.34 386.913L35.3586 493.607C27.487 496.014 18.9609 493.078 14.2397 486.335L-195.074 187.405C-199.795 180.662 -199.638 171.646 -194.684 165.072L24.9345 -126.371Z" stroke="url(#paint51_linear_28_1109)" stroke-width="2"/>
<path opacity="0.535354" d="M26.3386 -128.379C31.4063 -134.866 40.0743 -137.351 47.8092 -134.536L389.983 -9.99477C397.718 -7.17951 402.761 0.296215 402.473 8.52248L389.765 372.435C389.478 380.661 383.926 387.767 376.014 390.036L25.9858 490.405C18.0734 492.673 9.59986 489.589 4.99698 482.765L-198.624 180.884C-203.227 174.06 -202.912 165.049 -197.845 158.562L26.3386 -128.379Z" stroke="url(#paint52_linear_28_1109)" stroke-width="2"/>
<path opacity="0.545455" d="M27.7507 -130.288C32.9308 -136.684 41.6409 -139.018 49.3254 -136.068L388.534 -5.85857C396.218 -2.90873 401.13 4.65384 400.699 12.8738L381.683 375.717C381.252 383.937 375.577 390.945 367.627 393.075L16.6658 487.115C8.71495 489.246 0.296578 486.014 -4.18652 479.111L-202.076 174.387C-206.56 167.484 -206.088 158.479 -200.907 152.082L27.7507 -130.288Z" stroke="url(#paint53_linear_28_1109)" stroke-width="2"/>
<path opacity="0.555556" d="M29.1692 -132.095C34.4602 -138.401 43.2097 -140.582 50.8416 -137.499L386.991 -1.68561C394.623 1.3979 399.401 9.04503 398.827 17.2563L373.537 378.922C372.963 387.133 367.166 394.041 359.18 396.032L7.40036 483.74C-0.586439 485.732 -8.94715 482.354 -13.3091 475.373L-205.431 167.915C-209.792 160.934 -209.163 151.939 -203.873 145.633L29.1692 -132.095Z" stroke="url(#paint54_linear_28_1109)" stroke-width="2"/>
<path opacity="0.565657" d="M30.5917 -133.801C35.9919 -140.014 44.7781 -142.042 52.355 -138.826L385.353 2.52346C392.93 5.73968 397.574 13.469 396.857 21.669L365.328 382.048C364.61 390.248 358.694 397.054 350.674 398.905L-1.80993 480.283C-9.83026 482.134 -18.1308 478.611 -22.3702 471.555L-208.688 161.47C-212.928 154.415 -212.142 145.432 -206.742 139.219L30.5917 -133.801Z" stroke="url(#paint55_linear_28_1109)" stroke-width="2"/>
<path opacity="0.575758" d="M32.0171 -135.408C37.5249 -141.525 46.3452 -143.4 53.8648 -140.052L383.621 6.76479C391.141 10.1128 395.649 17.922 394.789 26.1082L357.058 385.094C356.198 393.28 350.164 399.981 342.113 401.693L-10.9627 476.741C-19.0141 478.453 -27.2519 474.785 -31.3675 467.656L-211.849 155.053C-215.965 147.925 -215.022 138.957 -209.514 132.84L32.0171 -135.408Z" stroke="url(#paint56_linear_28_1109)" stroke-width="2"/>
<path opacity="0.585859" d="M33.4427 -136.914C39.0564 -142.934 47.908 -144.654 55.3681 -141.176L381.793 11.039C389.253 14.5177 393.625 22.4044 392.622 30.5744L348.728 388.06C347.725 396.23 341.575 402.825 333.495 404.396L-20.0578 473.119C-28.1379 474.69 -36.3103 470.879 -40.3009 463.68L-214.915 148.668C-218.906 141.468 -217.807 132.518 -212.193 126.498L33.4427 -136.914Z" stroke="url(#paint57_linear_28_1109)" stroke-width="2"/>
<path opacity="0.59596" d="M34.8675 -138.32C40.5854 -144.241 49.4657 -145.807 56.8639 -142.198L379.87 15.3424C387.269 18.9508 391.502 26.9126 390.357 35.0638L340.341 390.944C339.195 399.095 332.931 405.582 324.825 407.011L-29.0928 469.416C-37.1991 470.846 -45.3038 466.893 -49.1682 459.625L-217.886 142.313C-221.75 135.046 -220.495 126.116 -214.777 120.195L34.8675 -138.32Z" stroke="url(#paint58_linear_28_1109)" stroke-width="2"/>
<path opacity="0.606061" d="M36.2895 -139.626C42.1099 -145.446 51.0162 -146.857 58.3503 -143.12L377.852 19.6742C385.186 23.4112 389.28 31.4457 387.992 39.5756L331.897 393.746C330.609 401.876 324.233 408.252 316.103 409.54L-38.0669 465.635C-46.1969 466.922 -54.2314 462.828 -57.9683 455.494L-220.762 135.993C-224.499 128.659 -223.089 119.752 -217.268 113.932L36.2895 -139.626Z" stroke="url(#paint59_linear_28_1109)" stroke-width="2"/>
<path opacity="0.616162" d="M37.7069 -140.833C43.628 -146.551 52.5576 -147.806 59.8253 -143.941L375.737 24.0321C383.005 27.8964 386.958 36.0012 385.528 44.1074L323.399 396.464C321.969 404.57 315.483 410.834 307.331 411.98L-46.9787 461.775C-55.1299 462.92 -63.0917 458.687 -66.7001 451.289L-223.546 129.707C-227.154 122.309 -225.588 113.429 -219.667 107.711L37.7069 -140.833Z" stroke="url(#paint60_linear_28_1109)" stroke-width="2"/>
<path opacity="0.626263" d="M39.1176 -141.94C45.1376 -147.553 54.0876 -148.652 61.2869 -144.662L373.526 28.4152C380.725 32.4058 384.536 40.5783 382.965 48.6583L314.847 399.099C313.276 407.179 306.681 413.329 298.511 414.332L-55.8273 457.839C-63.9973 458.842 -71.884 454.47 -75.3627 447.01L-226.237 123.459C-229.716 115.999 -227.995 107.147 -221.975 101.534L39.1176 -141.94Z" stroke="url(#paint61_linear_28_1109)" stroke-width="2"/>
<path opacity="0.636364" d="M40.5199 -142.947C46.6369 -148.455 55.6048 -149.398 62.7333 -145.282L371.217 32.8213C378.346 36.9369 382.014 45.1747 380.302 53.2261L306.243 401.649C304.531 409.7 297.83 415.734 289.644 416.594L-64.6115 453.828C-72.7977 454.689 -80.6069 450.18 -83.9549 442.66L-228.837 117.249C-232.185 109.73 -230.31 100.909 -224.193 95.4015L40.5199 -142.947Z" stroke="url(#paint62_linear_28_1109)" stroke-width="2"/>
<path opacity="0.646465" d="M41.913 -143.858C48.1252 -149.258 57.1082 -150.044 64.1638 -145.804L368.813 37.2475C375.869 41.487 379.392 49.7875 377.54 57.8078L297.59 404.113C295.738 412.133 288.933 418.049 280.733 418.766L-73.329 449.743C-81.529 450.46 -89.2583 445.816 -92.4745 438.239L-231.346 111.078C-234.562 103.501 -232.534 94.7153 -226.321 89.3151L41.913 -143.858Z" stroke="url(#paint63_linear_28_1109)" stroke-width="2"/>
<path opacity="0.656566" d="M43.294 -144.669C49.5995 -149.96 58.5948 -150.589 65.5754 -146.227L366.311 41.6939C373.292 46.0558 376.67 54.4165 374.678 62.4033L288.888 406.491C286.896 414.478 279.989 420.274 271.778 420.848L-81.9799 445.585C-90.1911 446.159 -97.8382 441.381 -100.922 433.749L-233.765 104.95C-236.849 97.318 -234.667 88.5685 -228.362 83.2775L43.294 -144.669Z" stroke="url(#paint64_linear_28_1109)" stroke-width="2"/>
<path opacity="0.666667" d="M44.6625 -145.383C51.0594 -150.564 60.0644 -151.036 66.9677 -146.552L363.713 46.1564C370.617 50.6394 373.848 59.0578 371.718 67.0086L280.14 408.781C278.01 416.732 271.002 422.406 262.782 422.837L-90.5616 441.355C-98.7816 441.786 -106.344 436.875 -109.294 429.19L-236.095 98.8628C-239.045 91.1782 -236.711 82.4681 -230.314 77.288L44.6625 -145.383Z" stroke="url(#paint65_linear_28_1109)" stroke-width="2"/>
<path opacity="0.676768" d="M46.015 -146C52.5014 -151.068 61.5132 -151.383 68.3372 -146.78L361.017 50.6354C367.841 55.2382 370.925 63.7118 368.657 71.6242L271.347 410.984C269.078 418.896 261.972 424.448 253.746 424.735L-99.075 437.056C-107.301 437.343 -114.777 432.301 -117.592 424.566L-238.338 92.8209C-241.153 85.086 -238.667 76.418 -232.181 71.3503L46.015 -146Z" stroke="url(#paint66_linear_28_1109)" stroke-width="2"/>
<path opacity="0.686869" d="M47.3514 -146.52C53.9252 -151.474 62.9411 -151.631 69.6838 -146.91L358.224 55.1284C364.967 59.8496 367.903 68.3757 365.496 76.2473L262.51 413.099C260.104 420.971 252.902 426.397 244.672 426.541L-107.517 432.689C-115.747 432.832 -123.134 427.66 -125.814 419.877L-240.493 86.8249C-243.173 79.0421 -240.536 70.4187 -233.962 65.465L47.3514 -146.52Z" stroke="url(#paint67_linear_28_1109)" stroke-width="2"/>
<path opacity="0.69697" d="M48.6693 -146.944C55.3286 -151.782 64.3459 -151.782 71.0051 -146.944L355.334 59.6331C361.994 64.4714 364.78 73.0474 362.237 80.8758L253.632 415.125C251.089 422.953 243.794 428.254 235.562 428.254L-115.888 428.254C-124.119 428.254 -131.414 422.953 -133.958 415.125L-242.562 80.8758C-245.106 73.0474 -242.319 64.4714 -235.66 59.6332L48.6693 -146.944Z" stroke="url(#paint68_linear_28_1109)" stroke-width="2"/>
<path opacity="0.707071" d="M49.9662 -147.271C56.7089 -151.993 65.7248 -151.835 72.2986 -146.881L352.346 64.1496C358.92 69.1033 361.556 77.7266 358.877 85.5094L244.714 417.063C242.034 424.845 234.647 430.018 226.417 429.874L-124.187 423.754C-132.417 423.611 -139.619 418.184 -142.025 410.312L-244.548 74.9766C-246.954 67.105 -244.018 58.5789 -237.276 53.8577L49.9662 -147.271Z" stroke="url(#paint69_linear_28_1109)" stroke-width="2"/>
<path opacity="0.717172" d="M51.2425 -147.505C58.0665 -152.108 67.0783 -151.793 73.5647 -146.725L349.262 68.6732C355.748 73.7409 358.234 82.4089 355.419 90.1438L235.758 418.909C232.942 426.644 225.467 431.687 217.24 431.399L-132.411 419.189C-140.638 418.902 -147.743 413.35 -150.012 405.438L-246.448 69.1261C-248.717 61.2137 -245.633 52.7402 -238.809 48.1373L51.2425 -147.505Z" stroke="url(#paint70_linear_28_1109)" stroke-width="2"/>
<path opacity="0.727273" d="M52.4944 -147.642C59.3977 -152.125 68.4027 -151.654 74.7996 -146.473L346.08 73.2048C352.476 78.3849 354.81 87.095 351.86 94.7795L226.764 420.666C223.814 428.351 216.252 433.262 208.032 432.831L-140.562 414.562C-148.782 414.132 -155.79 408.457 -157.92 400.506L-248.267 63.3282C-250.397 55.3774 -247.165 46.959 -240.262 42.4759L52.4944 -147.642Z" stroke="url(#paint71_linear_28_1109)" stroke-width="2"/>
<path opacity="0.737374" d="M53.7217 -147.687C60.7023 -152.049 69.6976 -151.42 76.0032 -146.129L342.801 77.741C349.106 83.032 351.288 91.7815 348.204 99.4134L217.736 422.332C214.653 429.964 207.006 434.743 198.795 434.169L-148.636 409.874C-156.848 409.3 -163.755 403.503 -165.747 395.517L-250.003 57.5827C-251.994 49.5959 -248.616 41.2352 -241.636 36.8733L53.7217 -147.687Z" stroke="url(#paint72_linear_28_1109)" stroke-width="2"/>
<path opacity="0.747475" d="M54.9216 -147.637C61.9772 -151.876 70.9602 -151.09 77.1725 -145.69L339.424 82.2818C345.636 87.682 347.665 96.4682 344.448 104.045L208.675 423.908C205.458 431.485 197.729 436.13 189.529 435.412L-156.635 405.127C-164.835 404.409 -171.641 398.493 -173.492 390.473L-251.66 51.8924C-253.512 43.8721 -249.988 35.5716 -242.933 31.3322L54.9216 -147.637Z" stroke="url(#paint73_linear_28_1109)" stroke-width="2"/>
<path opacity="0.757576" d="M56.0944 -147.496C63.2229 -151.612 72.1909 -150.669 78.3079 -145.161L335.952 86.8223C342.069 92.3301 343.944 101.15 340.596 108.67L199.582 425.391C196.235 432.91 188.425 437.419 180.239 436.559L-164.556 400.319C-172.742 399.459 -179.443 393.425 -181.154 385.374L-253.236 46.2558C-254.948 38.2044 -251.28 29.9666 -244.151 25.851L56.0944 -147.496Z" stroke="url(#paint74_linear_28_1109)" stroke-width="2"/>
<path opacity="0.767677" d="M57.2365 -147.262C64.4358 -151.253 73.3859 -150.154 79.4059 -144.54L332.382 91.3639C338.402 96.9776 340.123 105.829 336.644 113.289L190.46 426.782C186.981 434.242 179.094 438.614 170.924 437.611L-172.399 395.456C-180.568 394.453 -187.163 388.303 -188.734 380.223L-254.735 40.6772C-256.306 32.5972 -252.495 24.4247 -245.295 20.4341L57.2365 -147.262Z" stroke="url(#paint75_linear_28_1109)" stroke-width="2"/>
<path opacity="0.777778" d="M58.347 -146.937C65.6148 -150.801 74.5443 -149.546 80.4655 -143.828L328.716 95.9042C334.637 101.622 336.203 110.502 332.594 117.901L181.309 428.082C177.7 435.48 169.739 439.714 161.587 438.568L-180.163 390.538C-188.314 389.393 -194.8 383.129 -196.23 375.023L-256.157 35.1571C-257.586 27.0509 -253.633 18.9461 -246.366 15.0818L58.347 -146.937Z" stroke="url(#paint76_linear_28_1109)" stroke-width="2"/>
<path opacity="0.787879" d="M59.4243 -146.521C66.7584 -150.258 75.6648 -148.847 81.4851 -143.027L324.953 100.441C330.774 106.262 332.184 115.168 328.447 122.502L172.131 429.29C168.394 436.624 160.36 440.718 152.23 439.43L-187.847 385.567C-195.977 384.28 -202.353 377.903 -203.641 369.773L-257.503 29.6967C-258.791 21.5668 -254.697 13.5323 -247.363 9.79536L59.4243 -146.521Z" stroke="url(#paint77_linear_28_1109)" stroke-width="2"/>
<path opacity="0.79798" d="M60.4678 -146.017C67.866 -149.625 76.7464 -148.059 82.4643 -142.138L321.095 104.971C326.813 110.893 328.068 119.822 324.204 127.09L162.93 430.403C159.065 437.67 150.961 441.623 142.854 440.194L-195.45 380.542C-203.556 379.113 -209.82 372.626 -210.966 364.475L-258.775 24.2951C-259.92 16.1439 -255.687 8.18206 -248.289 4.57371L60.4678 -146.017Z" stroke="url(#paint78_linear_28_1109)" stroke-width="2"/>
<path opacity="0.808081" d="M61.4745 -145.423C68.9346 -148.901 77.7862 -147.181 83.4 -141.161L317.141 109.496C322.755 115.516 323.854 124.466 319.863 131.666L153.705 431.424C149.714 438.623 141.542 442.434 133.461 440.864L-202.972 375.468C-211.052 373.897 -217.202 367.302 -218.205 359.132L-259.973 18.9568C-260.976 10.7869 -256.605 2.90013 -249.145 -0.578554L61.4745 -145.423Z" stroke="url(#paint79_linear_28_1109)" stroke-width="2"/>
<path opacity="0.818182" d="M62.4442 -144.742C69.9639 -148.09 78.7842 -146.215 84.292 -140.098L313.093 114.011C318.601 120.128 319.543 129.096 315.428 136.225L144.459 432.351C140.343 439.48 132.105 443.147 124.054 441.436L-210.411 370.343C-218.463 368.632 -224.497 361.931 -225.357 353.744L-261.099 13.68C-261.96 5.49384 -257.451 -2.3154 -249.931 -5.66336L62.4442 -144.742Z" stroke="url(#paint80_linear_28_1109)" stroke-width="2"/>
<path opacity="0.828283" d="M63.3745 -143.973C70.9514 -147.189 79.7376 -145.161 85.1379 -138.949L308.949 118.517C314.349 124.729 315.135 133.712 310.896 140.767L135.193 433.185C130.954 440.241 122.653 443.764 114.633 441.913L-217.768 365.172C-225.789 363.32 -231.705 356.515 -232.422 348.315L-262.155 8.4683C-262.872 0.268324 -258.228 -7.46105 -250.651 -10.6773L63.3745 -143.973Z" stroke="url(#paint81_linear_28_1109)" stroke-width="2"/>
<path opacity="0.838384" d="M64.2648 -143.119C71.8967 -146.202 80.6462 -144.021 85.9372 -137.715L304.711 123.009C310.002 129.315 310.631 138.31 306.269 145.291L125.91 433.926C121.548 440.906 113.188 444.284 105.201 442.293L-225.041 359.954C-233.028 357.963 -238.824 351.055 -239.399 342.844L-263.14 3.3211C-263.714 -4.89013 -258.936 -12.5373 -251.304 -15.6208L64.2648 -143.119Z" stroke="url(#paint82_linear_28_1109)" stroke-width="2"/>
<path opacity="0.848485" d="M65.1122 -142.178C72.7968 -145.128 81.5068 -142.794 86.6869 -136.397L300.379 127.49C305.559 133.887 306.031 142.892 301.548 149.795L116.61 434.574C112.127 441.477 103.709 444.708 95.758 442.578L-232.231 354.694C-240.182 352.563 -245.857 345.555 -246.288 337.335L-264.059 -1.75866C-264.49 -9.97866 -259.578 -17.5412 -251.894 -20.4911L65.1122 -142.178Z" stroke="url(#paint83_linear_28_1109)" stroke-width="2"/>
<path opacity="0.858586" d="M65.917 -141.155C73.6519 -143.97 82.3198 -141.485 87.3876 -134.998L295.953 131.953C301.021 138.44 301.335 147.452 296.733 154.276L107.297 435.126C102.694 441.95 94.2203 445.034 86.3079 442.765L-239.335 349.388C-247.248 347.12 -252.799 340.014 -253.087 331.788L-264.91 -6.77265C-265.197 -14.9989 -260.154 -22.4746 -252.42 -25.2899L65.917 -141.155Z" stroke="url(#paint84_linear_28_1109)" stroke-width="2"/>
<path opacity="0.868687" d="M66.6764 -140.047C74.4593 -142.727 83.0826 -140.091 88.0363 -133.517L291.434 136.401C296.388 142.975 296.545 151.991 291.824 158.733L97.9701 435.585C93.2488 442.328 84.7227 445.264 76.8511 442.857L-246.355 344.043C-254.227 341.637 -259.653 334.435 -259.797 326.205L-265.695 -11.7172C-265.839 -19.9473 -260.667 -27.3339 -252.884 -30.0137L66.6764 -140.047Z" stroke="url(#paint85_linear_28_1109)" stroke-width="2"/>
<path opacity="0.878788" d="M67.3895 -138.857C75.218 -141.4 83.7939 -138.614 88.6322 -131.955L286.822 140.831C291.661 147.49 291.661 156.507 286.822 163.166L88.6322 435.952C83.794 442.611 75.218 445.397 67.3895 442.854L-253.289 338.659C-261.117 336.116 -266.417 328.82 -266.417 320.589L-266.417 -16.5921C-266.417 -24.8234 -261.117 -32.1185 -253.289 -34.6621L67.3895 -138.857Z" stroke="url(#paint86_linear_28_1109)" stroke-width="2"/>
<path opacity="0.888889" d="M68.0552 -137.586C75.9268 -139.993 84.4529 -137.057 89.1741 -130.314L282.119 145.239C286.84 151.982 286.682 160.998 281.729 167.571L79.2852 436.223C74.3315 442.797 65.7082 445.433 57.9254 442.754L-260.136 333.236C-267.919 330.556 -273.091 323.17 -272.947 314.94L-267.077 -21.3974C-266.933 -29.6274 -261.506 -36.829 -253.635 -39.2356L68.0552 -137.586Z" stroke="url(#paint87_linear_28_1109)" stroke-width="2"/>
<path opacity="0.89899" d="M68.6719 -136.234C76.5843 -138.503 85.0578 -135.419 89.6607 -128.595L277.323 149.626C281.926 156.45 281.612 165.462 276.544 171.949L69.9306 436.402C64.863 442.888 56.1949 445.373 48.46 442.558L-266.897 327.778C-274.632 324.962 -279.674 317.487 -279.387 309.26L-267.675 -26.1308C-267.387 -34.3571 -261.836 -41.4628 -253.923 -43.7317L68.6719 -136.234Z" stroke="url(#paint88_linear_28_1109)" stroke-width="2"/>
<path opacity="0.909091" d="M69.2379 -134.803C77.1887 -136.933 85.6071 -133.702 90.0902 -126.798L272.437 153.991C276.92 160.894 276.448 169.899 271.268 176.296L60.5697 436.487C55.3895 442.884 46.6795 445.218 38.9949 442.268L-273.571 322.285C-281.255 319.336 -286.166 311.773 -285.736 303.553L-268.213 -30.7911C-267.783 -39.0111 -262.108 -46.0189 -254.157 -48.1493L69.2379 -134.803Z" stroke="url(#paint89_linear_28_1109)" stroke-width="2"/>
<path opacity="0.919192" d="M69.7534 -133.295C77.7403 -135.286 86.101 -131.908 90.4629 -124.928L267.461 158.329C271.823 165.31 271.194 174.305 265.903 180.611L51.2057 436.477C45.9147 442.783 37.1652 444.964 29.5333 441.881L-280.156 316.758C-287.788 313.675 -292.566 306.028 -291.992 297.817L-268.692 -35.38C-268.118 -43.5913 -262.322 -50.499 -254.335 -52.4903L69.7534 -133.295Z" stroke="url(#paint90_linear_28_1109)" stroke-width="2"/>
<path opacity="0.929293" d="M70.2154 -131.709C78.2357 -133.56 86.5362 -130.037 90.7756 -122.982L262.395 162.642C266.635 169.697 265.849 178.68 260.449 184.892L41.8383 436.375C36.4382 442.587 27.6519 444.615 20.075 441.399L-286.653 311.201C-294.23 307.985 -298.875 300.255 -298.157 292.055L-269.115 -39.8942C-268.398 -48.0942 -262.482 -54.8996 -254.462 -56.7512L70.2154 -131.709Z" stroke="url(#paint91_linear_28_1109)" stroke-width="2"/>
<path opacity="0.939394" d="M70.6232 -130.046C78.6747 -131.758 86.9124 -128.09 91.028 -120.962L257.24 166.927C261.356 174.055 260.413 183.023 254.906 189.14L32.4701 436.18C26.9624 442.297 18.142 444.172 10.6224 440.824L-293.063 305.614C-300.582 302.266 -305.091 294.457 -304.231 286.271L-269.483 -44.3327C-268.622 -52.5189 -262.589 -59.22 -254.537 -60.9314L70.6232 -130.046Z" stroke="url(#paint92_linear_28_1109)" stroke-width="2"/>
<path opacity="0.949495" d="M70.9751 -128.309C79.0551 -129.879 87.2276 -126.069 91.2182 -118.869L251.997 171.183C255.987 178.382 254.888 187.332 249.275 193.352L23.1021 435.892C17.4883 441.912 8.63667 443.633 1.17659 440.154L-299.384 300C-306.844 296.522 -311.216 288.635 -310.213 280.465L-269.797 -48.695C-268.794 -56.865 -262.644 -63.4598 -254.564 -65.0304L70.9751 -128.309Z" stroke="url(#paint93_linear_28_1109)" stroke-width="2"/>
<path opacity="0.959596" d="M71.2717 -126.499C79.378 -127.929 87.4827 -123.976 91.347 -116.708L246.667 175.406C250.531 182.674 249.276 191.603 243.558 197.524L13.7379 435.51C8.01991 441.431 -0.860407 442.997 -8.25864 439.389L-305.615 294.358C-313.013 290.75 -317.247 282.788 -316.101 274.637L-270.057 -52.9825C-268.912 -61.1337 -262.648 -67.6202 -254.541 -69.0496L71.2717 -126.499Z" stroke="url(#paint94_linear_28_1109)" stroke-width="2"/>
<path opacity="0.969697" d="M71.5095 -124.616C79.6395 -125.903 87.674 -121.81 91.4109 -114.475L241.249 179.598C244.986 186.932 243.575 195.839 237.755 201.659L4.37667 435.037C-1.44368 440.858 -10.35 442.268 -17.6842 438.531L-311.758 288.693C-319.092 284.956 -323.186 276.922 -321.898 268.792L-270.267 -57.1912C-268.98 -65.3212 -262.603 -71.6974 -254.474 -72.9851L71.5095 -124.616Z" stroke="url(#paint95_linear_28_1109)" stroke-width="2"/>
<path opacity="0.979798" d="M71.6898 -122.663C79.841 -123.809 87.8028 -119.576 91.4112 -112.177L235.747 183.754C239.355 191.152 237.789 200.033 231.868 205.751L-4.97735 434.469C-10.8985 440.187 -19.8281 441.442 -27.0959 437.578L-317.81 283.003C-325.077 279.138 -329.03 271.034 -327.601 262.927L-270.427 -61.3243C-268.997 -69.4305 -262.511 -75.6945 -254.36 -76.8401L71.6898 -122.663Z" stroke="url(#paint96_linear_28_1109)" stroke-width="2"/>
<path opacity="0.989899" d="M71.8088 -120.639C79.9787 -121.642 87.8655 -117.27 91.3442 -109.81L230.158 187.877C233.637 195.337 231.916 204.188 225.896 209.802L-14.3252 433.812C-20.3453 439.426 -29.2954 440.525 -36.4946 436.534L-323.773 277.293C-330.972 273.302 -334.783 265.13 -333.213 257.05L-270.539 -65.3764C-268.969 -73.4565 -262.374 -79.6063 -254.204 -80.6095L71.8088 -120.639Z" stroke="url(#paint97_linear_28_1109)" stroke-width="2"/>
<path d="M71.8672 -118.546C80.0534 -119.406 87.8626 -114.898 91.2106 -107.378L224.485 191.962C227.833 199.482 225.959 208.302 219.841 213.81L-23.6636 433.063C-29.7806 438.57 -38.7486 439.513 -45.8771 435.397L-329.646 271.563C-336.775 267.448 -340.442 259.21 -338.731 251.158L-270.605 -69.3497C-268.894 -77.4011 -262.192 -83.4348 -254.006 -84.2952L71.8672 -118.546Z" stroke="url(#paint98_linear_28_1109)" stroke-width="2"/>
<defs>
<linearGradient id="paint0_linear_28_1109" x1="263.898" y1="425.739" x2="428.561" y2="18.1829" gradientUnits="userSpaceOnUse">
<stop stop-color="white"/>
<stop offset="1" stop-color="white"/>
</linearGradient>
<linearGradient id="paint1_linear_28_1109" x1="256.391" y1="423.092" x2="427.828" y2="19.2105" gradientUnits="userSpaceOnUse">
<stop stop-color="white"/>
<stop offset="1" stop-color="white"/>
</linearGradient>
<linearGradient id="paint2_linear_28_1109" x1="248.921" y1="420.392" x2="427.055" y2="20.2963" gradientUnits="userSpaceOnUse">
<stop stop-color="white"/>
<stop offset="1" stop-color="white"/>
</linearGradient>
<linearGradient id="paint3_linear_28_1109" x1="241.49" y1="417.637" x2="426.24" y2="21.4384" gradientUnits="userSpaceOnUse">
<stop stop-color="white"/>
<stop offset="1" stop-color="white"/>
</linearGradient>
<linearGradient id="paint4_linear_28_1109" x1="234.099" y1="414.829" x2="425.384" y2="22.6365" gradientUnits="userSpaceOnUse">
<stop stop-color="white"/>
<stop offset="1" stop-color="white"/>
</linearGradient>
<linearGradient id="paint5_linear_28_1109" x1="226.749" y1="411.967" x2="424.486" y2="23.8871" gradientUnits="userSpaceOnUse">
<stop stop-color="white"/>
<stop offset="1" stop-color="white"/>
</linearGradient>
<linearGradient id="paint6_linear_28_1109" x1="219.441" y1="409.054" x2="423.544" y2="25.192" gradientUnits="userSpaceOnUse">
<stop stop-color="white"/>
<stop offset="1" stop-color="white"/>
</linearGradient>
<linearGradient id="paint7_linear_28_1109" x1="212.174" y1="406.09" x2="422.556" y2="26.5508" gradientUnits="userSpaceOnUse">
<stop stop-color="white"/>
<stop offset="1" stop-color="white"/>
</linearGradient>
<linearGradient id="paint8_linear_28_1109" x1="204.951" y1="403.076" x2="421.524" y2="27.9604" gradientUnits="userSpaceOnUse">
<stop stop-color="white"/>
<stop offset="1" stop-color="white"/>
</linearGradient>
<linearGradient id="paint9_linear_28_1109" x1="197.773" y1="400.011" x2="420.447" y2="29.42" gradientUnits="userSpaceOnUse">
<stop stop-color="white"/>
<stop offset="1" stop-color="white"/>
</linearGradient>
<linearGradient id="paint10_linear_28_1109" x1="190.639" y1="396.9" x2="419.321" y2="30.9313" gradientUnits="userSpaceOnUse">
<stop stop-color="white"/>
<stop offset="1" stop-color="white"/>
</linearGradient>
<linearGradient id="paint11_linear_28_1109" x1="183.551" y1="393.739" x2="418.149" y2="32.4903" gradientUnits="userSpaceOnUse">
<stop stop-color="white"/>
<stop offset="1" stop-color="white"/>
</linearGradient>
<linearGradient id="paint12_linear_28_1109" x1="176.509" y1="390.533" x2="416.927" y2="34.0987" gradientUnits="userSpaceOnUse">
<stop stop-color="white"/>
<stop offset="1" stop-color="white"/>
</linearGradient>
<linearGradient id="paint13_linear_28_1109" x1="169.514" y1="387.281" x2="415.656" y2="35.7541" gradientUnits="userSpaceOnUse">
<stop stop-color="white"/>
<stop offset="1" stop-color="white"/>
</linearGradient>
<linearGradient id="paint14_linear_28_1109" x1="162.568" y1="383.984" x2="414.336" y2="37.4547" gradientUnits="userSpaceOnUse">
<stop stop-color="white"/>
<stop offset="1" stop-color="white"/>
</linearGradient>
<linearGradient id="paint15_linear_28_1109" x1="155.669" y1="380.643" x2="412.964" y2="39.2012" gradientUnits="userSpaceOnUse">
<stop stop-color="white"/>
<stop offset="1" stop-color="white"/>
</linearGradient>
<linearGradient id="paint16_linear_28_1109" x1="148.82" y1="377.26" x2="411.54" y2="40.9925" gradientUnits="userSpaceOnUse">
<stop stop-color="white"/>
<stop offset="1" stop-color="white"/>
</linearGradient>
<linearGradient id="paint17_linear_28_1109" x1="142.021" y1="373.834" x2="410.066" y2="42.8262" gradientUnits="userSpaceOnUse">
<stop stop-color="white"/>
<stop offset="1" stop-color="white"/>
</linearGradient>
<linearGradient id="paint18_linear_28_1109" x1="135.272" y1="370.367" x2="408.537" y2="44.703" gradientUnits="userSpaceOnUse">
<stop stop-color="white"/>
<stop offset="1" stop-color="white"/>
</linearGradient>
<linearGradient id="paint19_linear_28_1109" x1="128.576" y1="366.859" x2="406.957" y2="46.6188" gradientUnits="userSpaceOnUse">
<stop stop-color="white"/>
<stop offset="1" stop-color="white"/>
</linearGradient>
<linearGradient id="paint20_linear_28_1109" x1="121.93" y1="363.314" x2="405.32" y2="48.5772" gradientUnits="userSpaceOnUse">
<stop stop-color="white"/>
<stop offset="1" stop-color="white"/>
</linearGradient>
<linearGradient id="paint21_linear_28_1109" x1="115.337" y1="359.73" x2="403.631" y2="50.5729" gradientUnits="userSpaceOnUse">
<stop stop-color="white"/>
<stop offset="1" stop-color="white"/>
</linearGradient>
<linearGradient id="paint22_linear_28_1109" x1="108.797" y1="356.109" x2="401.885" y2="52.6081" gradientUnits="userSpaceOnUse">
<stop stop-color="white"/>
<stop offset="1" stop-color="white"/>
</linearGradient>
<linearGradient id="paint23_linear_28_1109" x1="102.31" y1="352.453" x2="400.083" y2="54.6804" gradientUnits="userSpaceOnUse">
<stop stop-color="white"/>
<stop offset="1" stop-color="white"/>
</linearGradient>
<linearGradient id="paint24_linear_28_1109" x1="95.8783" y1="348.761" x2="398.225" y2="56.7873" gradientUnits="userSpaceOnUse">
<stop stop-color="white"/>
<stop offset="1" stop-color="white"/>
</linearGradient>
<linearGradient id="paint25_linear_28_1109" x1="89.5007" y1="345.034" x2="396.311" y2="58.9292" gradientUnits="userSpaceOnUse">
<stop stop-color="white"/>
<stop offset="1" stop-color="white"/>
</linearGradient>
<linearGradient id="paint26_linear_28_1109" x1="83.1778" y1="341.276" x2="394.338" y2="61.1055" gradientUnits="userSpaceOnUse">
<stop stop-color="white"/>
<stop offset="1" stop-color="white"/>
</linearGradient>
<linearGradient id="paint27_linear_28_1109" x1="76.9108" y1="337.485" x2="392.308" y2="63.3143" gradientUnits="userSpaceOnUse">
<stop stop-color="white"/>
<stop offset="1" stop-color="white"/>
</linearGradient>
<linearGradient id="paint28_linear_28_1109" x1="70.6994" y1="333.664" x2="390.219" y2="65.5555" gradientUnits="userSpaceOnUse">
<stop stop-color="white"/>
<stop offset="1" stop-color="white"/>
</linearGradient>
<linearGradient id="paint29_linear_28_1109" x1="64.5451" y1="329.813" x2="388.072" y2="67.8256" gradientUnits="userSpaceOnUse">
<stop stop-color="white"/>
<stop offset="1" stop-color="white"/>
</linearGradient>
<linearGradient id="paint30_linear_28_1109" x1="58.4471" y1="325.934" x2="385.865" y2="70.1267" gradientUnits="userSpaceOnUse">
<stop stop-color="white"/>
<stop offset="1" stop-color="white"/>
</linearGradient>
<linearGradient id="paint31_linear_28_1109" x1="52.4072" y1="322.025" x2="383.599" y2="72.4542" gradientUnits="userSpaceOnUse">
<stop stop-color="white"/>
<stop offset="1" stop-color="white"/>
</linearGradient>
<linearGradient id="paint32_linear_28_1109" x1="46.4242" y1="318.092" x2="381.272" y2="74.8103" gradientUnits="userSpaceOnUse">
<stop stop-color="white"/>
<stop offset="1" stop-color="white"/>
</linearGradient>
<linearGradient id="paint33_linear_28_1109" x1="40.4996" y1="314.132" x2="378.886" y2="77.1914" gradientUnits="userSpaceOnUse">
<stop stop-color="white"/>
<stop offset="1" stop-color="white"/>
</linearGradient>
<linearGradient id="paint34_linear_28_1109" x1="34.6328" y1="310.149" x2="376.437" y2="79.5987" gradientUnits="userSpaceOnUse">
<stop stop-color="white"/>
<stop offset="1" stop-color="white"/>
</linearGradient>
<linearGradient id="paint35_linear_28_1109" x1="28.8251" y1="306.141" x2="373.929" y2="82.0285" gradientUnits="userSpaceOnUse">
<stop stop-color="white"/>
<stop offset="1" stop-color="white"/>
</linearGradient>
<linearGradient id="paint36_linear_28_1109" x1="23.0761" y1="302.113" x2="371.358" y2="84.4823" gradientUnits="userSpaceOnUse">
<stop stop-color="white"/>
<stop offset="1" stop-color="white"/>
</linearGradient>
<linearGradient id="paint37_linear_28_1109" x1="17.387" y1="298.062" x2="368.727" y2="86.9562" gradientUnits="userSpaceOnUse">
<stop stop-color="white"/>
<stop offset="1" stop-color="white"/>
</linearGradient>
<linearGradient id="paint38_linear_28_1109" x1="11.7566" y1="293.992" x2="366.032" y2="89.4509" gradientUnits="userSpaceOnUse">
<stop stop-color="white"/>
<stop offset="1" stop-color="white"/>
</linearGradient>
<linearGradient id="paint39_linear_28_1109" x1="6.18717" y1="289.902" x2="363.277" y2="91.9638" gradientUnits="userSpaceOnUse">
<stop stop-color="white"/>
<stop offset="1" stop-color="white"/>
</linearGradient>
<linearGradient id="paint40_linear_28_1109" x1="0.676275" y1="285.796" x2="360.458" y2="94.4963" gradientUnits="userSpaceOnUse">
<stop stop-color="white"/>
<stop offset="1" stop-color="white"/>
</linearGradient>
<linearGradient id="paint41_linear_28_1109" x1="-4.77401" y1="281.672" x2="357.577" y2="97.0453" gradientUnits="userSpaceOnUse">
<stop stop-color="white"/>
<stop offset="1" stop-color="white"/>
</linearGradient>
<linearGradient id="paint42_linear_28_1109" x1="-10.1635" y1="277.533" x2="354.633" y2="99.6093" gradientUnits="userSpaceOnUse">
<stop stop-color="white"/>
<stop offset="1" stop-color="white"/>
</linearGradient>
<linearGradient id="paint43_linear_28_1109" x1="-15.4929" y1="273.379" x2="351.627" y2="102.189" gradientUnits="userSpaceOnUse">
<stop stop-color="white"/>
<stop offset="1" stop-color="white"/>
</linearGradient>
<linearGradient id="paint44_linear_28_1109" x1="-20.7621" y1="269.213" x2="348.557" y2="104.782" gradientUnits="userSpaceOnUse">
<stop stop-color="white"/>
<stop offset="1" stop-color="white"/>
</linearGradient>
<linearGradient id="paint45_linear_28_1109" x1="-25.9702" y1="265.034" x2="345.424" y2="107.387" gradientUnits="userSpaceOnUse">
<stop stop-color="white"/>
<stop offset="1" stop-color="white"/>
</linearGradient>
<linearGradient id="paint46_linear_28_1109" x1="-31.1171" y1="260.843" x2="342.228" y2="110.002" gradientUnits="userSpaceOnUse">
<stop stop-color="white"/>
<stop offset="1" stop-color="white"/>
</linearGradient>
<linearGradient id="paint47_linear_28_1109" x1="-36.2033" y1="256.643" x2="338.968" y2="112.628" gradientUnits="userSpaceOnUse">
<stop stop-color="white"/>
<stop offset="1" stop-color="white"/>
</linearGradient>
<linearGradient id="paint48_linear_28_1109" x1="-41.2282" y1="252.432" x2="335.646" y2="115.261" gradientUnits="userSpaceOnUse">
<stop stop-color="white"/>
<stop offset="1" stop-color="white"/>
</linearGradient>
<linearGradient id="paint49_linear_28_1109" x1="-46.193" y1="248.216" x2="332.259" y2="117.905" gradientUnits="userSpaceOnUse">
<stop stop-color="white"/>
<stop offset="1" stop-color="white"/>
</linearGradient>
<linearGradient id="paint50_linear_28_1109" x1="-51.0966" y1="243.993" x2="328.809" y2="120.554" gradientUnits="userSpaceOnUse">
<stop stop-color="white"/>
<stop offset="1" stop-color="white"/>
</linearGradient>
<linearGradient id="paint51_linear_28_1109" x1="-55.9388" y1="239.763" x2="325.297" y2="123.207" gradientUnits="userSpaceOnUse">
<stop stop-color="white"/>
<stop offset="1" stop-color="white"/>
</linearGradient>
<linearGradient id="paint52_linear_28_1109" x1="-60.7203" y1="235.529" x2="321.72" y2="125.866" gradientUnits="userSpaceOnUse">
<stop stop-color="white"/>
<stop offset="1" stop-color="white"/>
</linearGradient>
<linearGradient id="paint53_linear_28_1109" x1="-65.4409" y1="231.292" x2="318.08" y2="128.528" gradientUnits="userSpaceOnUse">
<stop stop-color="white"/>
<stop offset="1" stop-color="white"/>
</linearGradient>
<linearGradient id="paint54_linear_28_1109" x1="-70.1002" y1="227.052" x2="314.378" y2="131.191" gradientUnits="userSpaceOnUse">
<stop stop-color="white"/>
<stop offset="1" stop-color="white"/>
</linearGradient>
<linearGradient id="paint55_linear_28_1109" x1="-74.6993" y1="222.811" x2="310.612" y2="133.855" gradientUnits="userSpaceOnUse">
<stop stop-color="white"/>
<stop offset="1" stop-color="white"/>
</linearGradient>
<linearGradient id="paint56_linear_28_1109" x1="-79.2372" y1="218.57" x2="306.783" y2="136.519" gradientUnits="userSpaceOnUse">
<stop stop-color="white"/>
<stop offset="1" stop-color="white"/>
</linearGradient>
<linearGradient id="paint57_linear_28_1109" x1="-83.7152" y1="214.33" x2="302.891" y2="139.182" gradientUnits="userSpaceOnUse">
<stop stop-color="white"/>
<stop offset="1" stop-color="white"/>
</linearGradient>
<linearGradient id="paint58_linear_28_1109" x1="-88.1324" y1="210.092" x2="298.936" y2="141.842" gradientUnits="userSpaceOnUse">
<stop stop-color="white"/>
<stop offset="1" stop-color="white"/>
</linearGradient>
<linearGradient id="paint59_linear_28_1109" x1="-92.4894" y1="205.858" x2="294.919" y2="144.498" gradientUnits="userSpaceOnUse">
<stop stop-color="white"/>
<stop offset="1" stop-color="white"/>
</linearGradient>
<linearGradient id="paint60_linear_28_1109" x1="-96.7863" y1="201.627" x2="290.84" y2="147.15" gradientUnits="userSpaceOnUse">
<stop stop-color="white"/>
<stop offset="1" stop-color="white"/>
</linearGradient>
<linearGradient id="paint61_linear_28_1109" x1="-101.024" y1="197.402" x2="286.698" y2="149.796" gradientUnits="userSpaceOnUse">
<stop stop-color="white"/>
<stop offset="1" stop-color="white"/>
</linearGradient>
<linearGradient id="paint62_linear_28_1109" x1="-105.202" y1="193.183" x2="282.494" y2="152.435" gradientUnits="userSpaceOnUse">
<stop stop-color="white"/>
<stop offset="1" stop-color="white"/>
</linearGradient>
<linearGradient id="paint63_linear_28_1109" x1="-109.32" y1="188.971" x2="278.229" y2="155.065" gradientUnits="userSpaceOnUse">
<stop stop-color="white"/>
<stop offset="1" stop-color="white"/>
</linearGradient>
<linearGradient id="paint64_linear_28_1109" x1="-113.379" y1="184.769" x2="273.903" y2="157.687" gradientUnits="userSpaceOnUse">
<stop stop-color="white"/>
<stop offset="1" stop-color="white"/>
</linearGradient>
<linearGradient id="paint65_linear_28_1109" x1="-117.378" y1="180.574" x2="269.516" y2="160.298" gradientUnits="userSpaceOnUse">
<stop stop-color="white"/>
<stop offset="1" stop-color="white"/>
</linearGradient>
<linearGradient id="paint66_linear_28_1109" x1="-121.32" y1="176.391" x2="265.067" y2="162.898" gradientUnits="userSpaceOnUse">
<stop stop-color="white"/>
<stop offset="1" stop-color="white"/>
</linearGradient>
<linearGradient id="paint67_linear_28_1109" x1="-125.203" y1="172.219" x2="260.559" y2="165.485" gradientUnits="userSpaceOnUse">
<stop stop-color="white"/>
<stop offset="1" stop-color="white"/>
</linearGradient>
<linearGradient id="paint68_linear_28_1109" x1="-129.028" y1="168.059" x2="255.99" y2="168.059" gradientUnits="userSpaceOnUse">
<stop stop-color="white"/>
<stop offset="1" stop-color="white"/>
</linearGradient>
<linearGradient id="paint69_linear_28_1109" x1="-132.797" y1="163.914" x2="251.361" y2="170.619" gradientUnits="userSpaceOnUse">
<stop stop-color="white"/>
<stop offset="1" stop-color="white"/>
</linearGradient>
<linearGradient id="paint70_linear_28_1109" x1="-136.507" y1="159.782" x2="246.674" y2="173.163" gradientUnits="userSpaceOnUse">
<stop stop-color="white"/>
<stop offset="1" stop-color="white"/>
</linearGradient>
<linearGradient id="paint71_linear_28_1109" x1="-140.161" y1="155.666" x2="241.927" y2="175.691" gradientUnits="userSpaceOnUse">
<stop stop-color="white"/>
<stop offset="1" stop-color="white"/>
</linearGradient>
<linearGradient id="paint72_linear_28_1109" x1="-143.758" y1="151.567" x2="237.122" y2="178.201" gradientUnits="userSpaceOnUse">
<stop stop-color="white"/>
<stop offset="1" stop-color="white"/>
</linearGradient>
<linearGradient id="paint73_linear_28_1109" x1="-147.3" y1="147.486" x2="232.258" y2="180.693" gradientUnits="userSpaceOnUse">
<stop stop-color="white"/>
<stop offset="1" stop-color="white"/>
</linearGradient>
<linearGradient id="paint74_linear_28_1109" x1="-150.785" y1="143.421" x2="227.338" y2="183.164" gradientUnits="userSpaceOnUse">
<stop stop-color="white"/>
<stop offset="1" stop-color="white"/>
</linearGradient>
<linearGradient id="paint75_linear_28_1109" x1="-154.216" y1="139.378" x2="222.36" y2="185.615" gradientUnits="userSpaceOnUse">
<stop stop-color="white"/>
<stop offset="1" stop-color="white"/>
</linearGradient>
<linearGradient id="paint76_linear_28_1109" x1="-157.592" y1="135.355" x2="217.325" y2="188.046" gradientUnits="userSpaceOnUse">
<stop stop-color="white"/>
<stop offset="1" stop-color="white"/>
</linearGradient>
<linearGradient id="paint77_linear_28_1109" x1="-160.914" y1="131.353" x2="212.234" y2="190.454" gradientUnits="userSpaceOnUse">
<stop stop-color="white"/>
<stop offset="1" stop-color="white"/>
</linearGradient>
<linearGradient id="paint78_linear_28_1109" x1="-164.182" y1="127.372" x2="207.088" y2="192.837" gradientUnits="userSpaceOnUse">
<stop stop-color="white"/>
<stop offset="1" stop-color="white"/>
</linearGradient>
<linearGradient id="paint79_linear_28_1109" x1="-167.397" y1="123.416" x2="201.887" y2="195.197" gradientUnits="userSpaceOnUse">
<stop stop-color="white"/>
<stop offset="1" stop-color="white"/>
</linearGradient>
<linearGradient id="paint80_linear_28_1109" x1="-170.559" y1="119.482" x2="196.631" y2="197.531" gradientUnits="userSpaceOnUse">
<stop stop-color="white"/>
<stop offset="1" stop-color="white"/>
</linearGradient>
<linearGradient id="paint81_linear_28_1109" x1="-173.669" y1="115.574" x2="191.321" y2="199.839" gradientUnits="userSpaceOnUse">
<stop stop-color="white"/>
<stop offset="1" stop-color="white"/>
</linearGradient>
<linearGradient id="paint82_linear_28_1109" x1="-176.727" y1="111.692" x2="185.959" y2="202.119" gradientUnits="userSpaceOnUse">
<stop stop-color="white"/>
<stop offset="1" stop-color="white"/>
</linearGradient>
<linearGradient id="paint83_linear_28_1109" x1="-179.735" y1="107.837" x2="180.543" y2="204.373" gradientUnits="userSpaceOnUse">
<stop stop-color="white"/>
<stop offset="1" stop-color="white"/>
</linearGradient>
<linearGradient id="paint84_linear_28_1109" x1="-182.692" y1="104.008" x2="175.075" y2="206.596" gradientUnits="userSpaceOnUse">
<stop stop-color="white"/>
<stop offset="1" stop-color="white"/>
</linearGradient>
<linearGradient id="paint85_linear_28_1109" x1="-185.599" y1="100.208" x2="169.556" y2="208.79" gradientUnits="userSpaceOnUse">
<stop stop-color="white"/>
<stop offset="1" stop-color="white"/>
</linearGradient>
<linearGradient id="paint86_linear_28_1109" x1="-188.458" y1="96.4379" x2="163.985" y2="210.954" gradientUnits="userSpaceOnUse">
<stop stop-color="white"/>
<stop offset="1" stop-color="white"/>
</linearGradient>
<linearGradient id="paint87_linear_28_1109" x1="-191.268" y1="92.6969" x2="158.365" y2="213.085" gradientUnits="userSpaceOnUse">
<stop stop-color="white"/>
<stop offset="1" stop-color="white"/>
</linearGradient>
<linearGradient id="paint88_linear_28_1109" x1="-194.03" y1="88.9872" x2="152.695" y2="215.184" gradientUnits="userSpaceOnUse">
<stop stop-color="white"/>
<stop offset="1" stop-color="white"/>
</linearGradient>
<linearGradient id="paint89_linear_28_1109" x1="-196.745" y1="85.31" x2="146.975" y2="217.252" gradientUnits="userSpaceOnUse">
<stop stop-color="white"/>
<stop offset="1" stop-color="white"/>
</linearGradient>
<linearGradient id="paint90_linear_28_1109" x1="-199.412" y1="81.6633" x2="141.209" y2="219.283" gradientUnits="userSpaceOnUse">
<stop stop-color="white"/>
<stop offset="1" stop-color="white"/>
</linearGradient>
<linearGradient id="paint91_linear_28_1109" x1="-202.035" y1="78.0505" x2="135.395" y2="221.281" gradientUnits="userSpaceOnUse">
<stop stop-color="white"/>
<stop offset="1" stop-color="white"/>
</linearGradient>
<linearGradient id="paint92_linear_28_1109" x1="-204.612" y1="74.4723" x2="129.534" y2="223.243" gradientUnits="userSpaceOnUse">
<stop stop-color="white"/>
<stop offset="1" stop-color="white"/>
</linearGradient>
<linearGradient id="paint93_linear_28_1109" x1="-207.145" y1="70.9291" x2="123.626" y2="225.17" gradientUnits="userSpaceOnUse">
<stop stop-color="white"/>
<stop offset="1" stop-color="white"/>
</linearGradient>
<linearGradient id="paint94_linear_28_1109" x1="-209.633" y1="67.4197" x2="117.674" y2="227.058" gradientUnits="userSpaceOnUse">
<stop stop-color="white"/>
<stop offset="1" stop-color="white"/>
</linearGradient>
<linearGradient id="paint95_linear_28_1109" x1="-212.08" y1="63.9477" x2="111.677" y2="228.91" gradientUnits="userSpaceOnUse">
<stop stop-color="white"/>
<stop offset="1" stop-color="white"/>
</linearGradient>
<linearGradient id="paint96_linear_28_1109" x1="-214.483" y1="60.5101" x2="105.638" y2="230.721" gradientUnits="userSpaceOnUse">
<stop stop-color="white"/>
<stop offset="1" stop-color="white"/>
</linearGradient>
<linearGradient id="paint97_linear_28_1109" x1="-216.845" y1="57.1121" x2="99.5548" y2="232.495" gradientUnits="userSpaceOnUse">
<stop stop-color="white"/>
<stop offset="1" stop-color="white"/>
</linearGradient>
<linearGradient id="paint98_linear_28_1109" x1="-219.166" y1="53.7518" x2="93.4299" y2="234.229" gradientUnits="userSpaceOnUse">
<stop stop-color="white"/>
<stop offset="1" stop-color="white"/>
</linearGradient>
</defs>
</svg>
