<svg width="52" height="52" viewBox="0 0 52 52" fill="none" xmlns="http://www.w3.org/2000/svg">
  <path opacity="0.5" d="M45.5 34.663V21.663V21.6629C45.5 15.5347 45.5 12.4706 43.5962 10.5668C41.9314 8.90196 39.3792 8.69298 34.6667 8.66675H17.3333C12.6208 8.69298 10.0686 8.90196 8.40381 10.5668C6.5 12.4706 6.5 15.5347 6.5 21.663V34.663C6.5 40.7912 6.5 43.8554 8.40381 45.7592C10.3076 47.663 13.3717 47.663 19.5 47.663H19.5H32.5H32.5C38.6283 47.663 41.6924 47.663 43.5962 45.7592C45.5 43.8554 45.5 40.7913 45.5 34.663V34.663Z" fill="#E03C3C" />
  <path d="M17.3333 7.58325C17.3333 5.78833 18.7884 4.33325 20.5833 4.33325H31.4167C33.2116 4.33325 34.6667 5.78833 34.6667 7.58325V9.74992C34.6667 11.5448 33.2116 12.9999 31.4167 12.9999H20.5833C18.7884 12.9999 17.3333 11.5448 17.3333 9.74992V7.58325Z" fill="#E03C3C" />
  <path fill-rule="evenodd" clip-rule="evenodd" d="M33.688 22.7245C34.3003 23.3806 34.2649 24.4089 33.6088 25.0212L24.3231 33.6879C23.6987 34.2706 22.7299 34.2706 22.1055 33.6879L18.3912 30.2212C17.7351 29.6089 17.6997 28.5806 18.312 27.9245C18.9244 27.2684 19.9527 27.2329 20.6088 27.8453L23.2143 30.2771L31.3912 22.6453C32.0473 22.0329 33.0756 22.0684 33.688 22.7245Z" fill="#E03C3C" />
</svg>