<svg width="52" height="52" viewBox="0 0 52 52" fill="none" xmlns="http://www.w3.org/2000/svg">
  <path opacity="0.5" d="M30.3333 8.66675H21.6667C13.4957 8.66675 9.41016 8.66675 6.87175 11.2052C4.33334 13.7436 4.33334 17.8291 4.33334 26.0001C4.33334 34.1711 4.33334 38.2566 6.87175 40.795C9.41016 43.3334 13.4957 43.3334 21.6667 43.3334H30.3333C38.5044 43.3334 42.5899 43.3334 45.1283 40.795C47.6667 38.2566 47.6667 34.1711 47.6667 26.0001C47.6667 17.8291 47.6667 13.7436 45.1283 11.2052C42.5899 8.66675 38.5044 8.66675 30.3333 8.66675Z" fill="#E03C3C" />
  <path d="M28.7083 19.5001C28.7083 18.6026 29.4359 17.8751 30.3333 17.8751H41.1667C42.0641 17.8751 42.7917 18.6026 42.7917 19.5001C42.7917 20.3975 42.0641 21.1251 41.1667 21.1251H30.3333C29.4359 21.1251 28.7083 20.3975 28.7083 19.5001Z" fill="#E03C3C" />
  <path d="M30.875 26.0001C30.875 25.1026 31.6025 24.3751 32.5 24.3751H41.1667C42.0641 24.3751 42.7917 25.1026 42.7917 26.0001C42.7917 26.8975 42.0641 27.6251 41.1667 27.6251H32.5C31.6025 27.6251 30.875 26.8975 30.875 26.0001Z" fill="#E03C3C" />
  <path d="M33.0417 32.5001C33.0417 31.6026 33.7692 30.8751 34.6667 30.8751H41.1667C42.0641 30.8751 42.7917 31.6026 42.7917 32.5001C42.7917 33.3975 42.0641 34.1251 41.1667 34.1251H34.6667C33.7692 34.1251 33.0417 33.3975 33.0417 32.5001Z" fill="#E03C3C" />
  <path d="M19.5 23.8334C21.8932 23.8334 23.8333 21.8933 23.8333 19.5001C23.8333 17.1068 21.8932 15.1667 19.5 15.1667C17.1068 15.1667 15.1667 17.1068 15.1667 19.5001C15.1667 21.8933 17.1068 23.8334 19.5 23.8334Z" fill="#E03C3C" />
  <path d="M19.5 36.8334C28.1667 36.8334 28.1667 34.8933 28.1667 32.5001C28.1667 30.1068 24.2865 28.1667 19.5 28.1667C14.7135 28.1667 10.8333 30.1068 10.8333 32.5001C10.8333 34.8933 10.8333 36.8334 19.5 36.8334Z" fill="#E03C3C" />
</svg>